<svg width="24" height="24" viewBox="0 0 24 24" fill="none" xmlns="http://www.w3.org/2000/svg">
<path d="M4.4377 24.0001C4.10223 23.9409 3.76022 23.8987 3.43129 23.8197C1.38828 23.3271 0.108442 22.0179 0.0186578 20.231C-0.0743917 18.376 0.168839 16.5483 1.01445 14.8111C1.5605 13.6897 2.35388 12.7207 3.68187 12.1273C4.50136 11.7612 5.38125 11.5884 6.30032 11.6034C6.59008 11.6081 6.89535 11.7306 7.16062 11.8504C7.5875 12.0436 7.98255 12.2838 8.39719 12.4975C10.8051 13.7373 13.2137 13.7359 15.62 12.4934C15.9538 12.3206 16.295 12.1545 16.6092 11.9579C17.1847 11.5979 17.8189 11.553 18.5029 11.6367C20.3704 11.8653 21.6894 12.718 22.5783 14.0782C23.3725 15.2928 23.7291 16.6116 23.8883 17.9705C23.9699 18.6686 24.0083 19.3736 23.9985 20.0745C23.9683 22.1683 22.2444 23.7265 19.7468 23.9558C19.6848 23.9613 19.6252 23.9844 19.564 24.0001C14.5205 24.0001 9.4787 24.0001 4.4377 24.0001ZM12.0025 22.5942C12.0025 22.5929 12.0025 22.5922 12.0025 22.5908C14.3826 22.5908 16.7627 22.6085 19.142 22.5854C21.1197 22.5663 22.3334 21.515 22.3171 19.8683C22.3114 19.2443 22.2812 18.6176 22.1979 17.9984C22.0485 16.8858 21.7718 15.7964 21.1246 14.7961C20.4528 13.7591 19.4807 13.0875 18.0164 13.0201C17.8874 13.014 17.7373 13.0453 17.6254 13.1004C17.2622 13.278 16.9145 13.4774 16.5578 13.6638C13.8969 15.0547 11.1422 15.2309 8.30904 14.0694C7.64872 13.7985 7.04553 13.4318 6.41296 13.1126C6.31991 13.0657 6.2089 13.0078 6.10932 13.0119C5.19923 13.046 4.38301 13.2841 3.72921 13.8332C3.18642 14.2892 2.80687 14.8356 2.53099 15.4296C1.82414 16.9484 1.65355 18.5387 1.70008 20.1473C1.72538 21.0264 2.18083 21.745 3.11704 22.2064C3.74064 22.5133 4.43198 22.5963 5.14372 22.5963C7.42997 22.5935 9.71621 22.5942 12.0025 22.5942Z" fill="#676767"/>
<path d="M17.889 5.99389C17.8996 9.30334 15.2386 11.9715 11.8997 11.9998C8.60803 12.028 5.90608 9.33795 5.88913 6.01649C5.87218 2.69432 8.56002 -0.000706105 11.8891 1.38774e-07C15.2118 0.00141263 17.8784 2.66536 17.889 5.99389ZM11.8877 10.5407C14.4053 10.5428 16.4272 8.52153 16.4293 6.00024C16.4321 3.48178 14.4117 1.46051 11.8891 1.45981C9.36651 1.45839 7.34887 3.47542 7.34816 5.99883C7.34816 8.51871 9.36651 10.5393 11.8877 10.5407Z" fill="#676767"/>
</svg>
