<svg width="32" height="42" viewBox="0 0 32 42" fill="none" xmlns="http://www.w3.org/2000/svg">
<ellipse cx="15.3509" cy="26.7442" rx="15.3509" ry="15.2558" fill="#FDC040" fill-opacity="0.35"/>
<path d="M3.26176 37.7871H9.59981C9.80806 37.7871 9.99338 37.7175 10.1271 37.5846C10.2609 37.4516 10.3313 37.267 10.3313 37.0592V22.728C10.3313 22.5203 10.2609 22.3357 10.1271 22.2027C9.99338 22.0698 9.80806 22.0001 9.59981 22.0001H3.26176C2.01685 22.0001 1.01846 22.991 1.01846 24.2305V35.5568C1.01846 36.7962 2.01685 37.7871 3.26176 37.7871ZM2.4814 24.2305C2.4814 23.7941 2.8204 23.4559 3.26176 23.4559H8.86834V36.3314H3.26176C2.8204 36.3314 2.4814 35.9931 2.4814 35.5568V24.2305Z" fill="#124F7A" stroke="#124F7A" stroke-width="0.3"/>
<path d="M16.4529 22.1759L16.4612 22.1883L16.4717 22.1988C16.5979 22.3241 16.8087 22.4735 17.0427 22.4735H28.4977C29.1716 22.4735 29.7432 23.0429 29.7432 23.7104C29.7432 24.3779 29.1716 24.9473 28.4977 24.9473H27.3347C27.1265 24.9473 26.9411 25.0169 26.8074 25.1498C26.6736 25.2828 26.6032 25.4674 26.6032 25.6752C26.6032 25.8829 26.6736 26.0675 26.8074 26.2005C26.9411 26.3334 27.1265 26.403 27.3347 26.403H28.4977C30.0259 26.403 31.2083 25.2451 31.148 23.8227C31.1463 22.2959 29.9741 21.1333 28.4395 21.1333H18.0702C18.656 19.4688 18.8155 18.008 18.6463 16.6509C18.6411 13.8543 16.3062 11.5407 13.4375 11.5407C13.2538 11.5407 13.0743 11.613 12.9399 11.7287C12.8065 11.8436 12.7081 12.0102 12.7061 12.2045C12.3584 16.6868 11.0865 20.5317 8.83529 23.9163L8.83517 23.9162L8.83177 23.9218C8.6213 24.2704 8.6846 24.7147 9.0578 24.9372C9.40655 25.1452 9.85112 25.0839 10.0756 24.715C12.3303 21.267 13.6697 17.4224 14.1516 13.0166C15.9203 13.3029 17.2415 14.8235 17.2415 16.6604V16.7182V16.7306L17.2436 16.743C17.4696 18.0904 17.1897 19.62 16.3814 21.5134L16.3809 21.5132L16.3771 21.5246C16.3079 21.731 16.3048 21.9551 16.4529 22.1759Z" fill="#124F7A" stroke="#124F7A" stroke-width="0.3"/>
<path d="M26.7533 30.3326H27.9163C29.4519 30.3326 30.6248 29.1683 30.6248 27.6399C30.6248 26.1115 29.4519 24.9473 27.9163 24.9473C27.708 24.9473 27.5227 25.0169 27.389 25.1498C27.2552 25.2828 27.1848 25.4674 27.1848 25.6752C27.1848 25.8829 27.2552 26.0675 27.389 26.2005C27.5227 26.3334 27.708 26.403 27.9163 26.403C28.5902 26.403 29.1618 26.9724 29.1618 27.6399C29.1618 28.3074 28.5902 28.8768 27.9163 28.8768H26.7533C26.5451 28.8768 26.3598 28.9464 26.226 29.0793C26.0922 29.2123 26.0219 29.397 26.0219 29.6047C26.0219 29.8124 26.0922 29.9971 26.226 30.13C26.3598 30.2629 26.5451 30.3326 26.7533 30.3326Z" fill="#124F7A" stroke="#124F7A" stroke-width="0.3"/>
<path d="M29.9851 31.3961H29.9852L29.985 31.3903C29.9547 30.6063 29.6802 29.9734 29.2021 29.5373C28.7251 29.102 28.0609 28.8769 27.2766 28.8769C27.0684 28.8769 26.8831 28.9465 26.7493 29.0794C26.6155 29.2124 26.5452 29.397 26.5452 29.6047C26.5452 29.8125 26.6155 29.9971 26.7493 30.1301C26.8831 30.263 27.0684 30.3326 27.2766 30.3326C27.7189 30.3326 28.0243 30.4424 28.2193 30.6302C28.4132 30.8169 28.5222 31.1042 28.5222 31.5117C28.5222 32.241 27.9466 32.8064 27.2766 32.8064H26.1137C25.9054 32.8064 25.7201 32.876 25.5864 33.0089C25.4526 33.1419 25.3822 33.3265 25.3822 33.5343C25.3822 33.742 25.4526 33.9266 25.5864 34.0596C25.7201 34.1925 25.9054 34.2621 26.1137 34.2621H27.2766C28.6983 34.2621 29.8621 33.098 29.9845 31.6981L29.9851 31.6982V31.6851V31.5695V31.4539V31.3961Z" fill="#124F7A" stroke="#124F7A" stroke-width="0.3"/>
<path d="M10.6961 37.6561L10.696 37.6561L10.7011 37.6584C11.356 37.9543 12.0166 38.134 12.798 38.134H26.6952C28.2298 38.134 29.4002 36.9721 29.4617 35.5055L29.4618 35.5055V35.4992C29.4618 33.9708 28.289 32.8065 26.7533 32.8065C26.5451 32.8065 26.3597 32.8762 26.226 33.0091C26.0922 33.142 26.0218 33.3267 26.0218 33.5344C26.0218 33.7421 26.0922 33.9268 26.226 34.0598C26.3597 34.1927 26.5451 34.2623 26.7533 34.2623C27.4273 34.2623 27.9988 34.8317 27.9988 35.4992C27.9988 36.1667 27.4273 36.7361 26.7533 36.7361H12.8561C12.295 36.7361 11.795 36.6247 11.3529 36.405L9.96222 35.714C9.60253 35.5034 9.15685 35.6398 9.00018 36.0098C8.79054 36.3698 8.93222 36.8126 9.30576 36.9652L10.6961 37.6561Z" fill="#124F7A" stroke="#124F7A" stroke-width="0.3"/>
<path d="M3.84319 35.3602H7.50647C7.71472 35.3602 7.90004 35.2906 8.03377 35.1577C8.16758 35.0247 8.23794 34.84 8.23794 34.6323C8.23794 34.4246 8.16758 34.2399 8.03377 34.107C7.90004 33.9741 7.71472 33.9044 7.50647 33.9044H3.84319C3.63494 33.9044 3.44962 33.9741 3.31589 34.107C3.18207 34.2399 3.11172 34.4246 3.11172 34.6323C3.11172 34.84 3.18207 35.0247 3.31589 35.1577C3.44962 35.2906 3.63494 35.3602 3.84319 35.3602Z" fill="#124F7A" stroke="#124F7A" stroke-width="0.3"/>
<path d="M11.1525 3.68256L11.1372 3.68433L11.1226 3.68918C10.9498 3.74642 10.6545 3.87795 10.5659 4.17462C10.4147 4.42554 10.5175 4.72334 10.7142 4.91944L12.4005 6.65116L11.838 9.05488C11.7705 9.3248 11.8311 9.63131 12.0754 9.79312L12.1582 9.66808L12.0754 9.79312C12.1828 9.86426 12.3213 9.91533 12.4595 9.93251C12.5925 9.94902 12.7448 9.93631 12.8707 9.85733L15.1159 8.79749L17.1859 10.0207C17.247 10.0723 17.3214 10.0903 17.3777 10.0983C17.4392 10.107 17.5063 10.107 17.5609 10.107H17.5659C17.6427 10.107 17.7163 10.0887 17.7704 10.0752L17.7765 10.0737C17.8382 10.0584 17.8782 10.0492 17.9148 10.0492H17.96L17.9977 10.0243C18.2381 9.86499 18.2974 9.56476 18.2974 9.32135V9.31281L18.2964 9.30431L18.0145 6.83846L19.8101 5.22123C20.0465 5.0575 20.1043 4.75497 20.0373 4.48842C19.9604 4.18262 19.7243 4.03991 19.4628 3.97493L19.4629 3.97466L19.4539 3.97301L17.0306 3.52496L16.0163 1.28485L16.0164 1.2848L16.0136 1.27931C15.9465 1.14587 15.858 1.03689 15.7444 0.961636C15.63 0.885786 15.4987 0.85 15.3563 0.85C15.1264 0.85 14.8421 0.996288 14.6998 1.27782L13.5744 3.40269L11.1525 3.68256ZM16.4274 6.60536V6.61572L16.4288 6.62598L16.6175 7.98501L15.5053 7.2942C15.4439 7.24158 15.3687 7.22335 15.312 7.2153C15.2505 7.20657 15.1833 7.20658 15.1288 7.20659L15.1237 7.20659L15.1203 7.20659C15.0928 7.20657 15.0366 7.20652 14.9855 7.21669C14.9595 7.22186 14.9198 7.2323 14.8834 7.25739C14.8674 7.26836 14.8515 7.28274 14.8379 7.30046L13.6472 7.84657L13.933 6.5214L13.9364 6.50577V6.48978C13.9364 6.38794 13.9195 6.27186 13.886 6.1637C13.8532 6.05763 13.8 5.94513 13.7176 5.8633L12.7783 4.92974L14.0854 4.79055C14.2255 4.78916 14.3407 4.75263 14.4389 4.68427C14.535 4.61744 14.6057 4.52634 14.6668 4.43522L14.6714 4.42844L14.6752 4.4212L15.2902 3.24584L15.8567 4.46565C15.9394 4.69956 16.1652 4.83541 16.3558 4.89856L16.3661 4.90196L16.3768 4.90386L17.6821 5.13552L16.6572 5.96889L16.6514 5.97361L16.6461 5.97888C16.5638 6.0607 16.5106 6.1732 16.4777 6.27928C16.4443 6.38743 16.4274 6.50351 16.4274 6.60536Z" fill="#124F7A" stroke="#124F7A" stroke-width="0.3"/>
<path d="M4.99789 4.846L4.99355 4.85247L4.9899 4.85936L3.86502 6.9834L1.3938 7.20666C1.24143 7.20846 1.10122 7.26711 0.999621 7.37818C0.901918 7.48498 0.849078 7.62995 0.844353 7.79457C0.782662 7.99879 0.784248 8.28268 1.00275 8.50138L2.68995 10.2899L2.12756 12.6373C2.05993 12.9073 2.12048 13.2141 2.36484 13.376L2.44769 13.2509L2.36484 13.376C2.47222 13.4471 2.61072 13.4982 2.749 13.5153C2.88195 13.5319 3.03422 13.5191 3.16019 13.4402L5.40533 12.3803L7.47535 13.6035C7.53643 13.6552 7.61088 13.6732 7.66712 13.6811C7.72863 13.6899 7.7958 13.6899 7.85032 13.6898H7.85538C7.89617 13.6898 7.93431 13.6848 7.96562 13.6799C7.97882 13.6779 7.99 13.676 8.00019 13.6743C8.01736 13.6715 8.03173 13.6691 8.04831 13.667C8.09493 13.6612 8.11813 13.6645 8.13752 13.6742L8.21499 13.7127L8.28711 13.6649C8.52752 13.5056 8.58685 13.2054 8.58685 12.962V12.9532L8.58584 12.9445L8.30393 10.5351L10.1007 8.86107C10.3361 8.69717 10.3937 8.39517 10.3267 8.12905C10.2498 7.82325 10.0138 7.68054 9.75226 7.61556L9.75233 7.61529L9.74337 7.61363L7.32008 7.16558L6.30576 4.92547L6.30587 4.92542L6.30311 4.91993C6.23597 4.78649 6.14749 4.67752 6.03391 4.60226C5.91942 4.52641 5.78814 4.49062 5.64579 4.49062C5.52833 4.49062 5.40233 4.52854 5.29154 4.58783C5.1801 4.64746 5.0724 4.73492 4.99789 4.846ZM6.77502 10.246V10.254L6.77589 10.2621L6.91737 11.5743L5.79474 10.877C5.73338 10.8244 5.65816 10.8062 5.60145 10.7981C5.53995 10.7894 5.47277 10.7894 5.41825 10.7894L5.4132 10.7894L5.4103 10.7894C5.34939 10.7894 5.20513 10.7894 5.05793 10.8618L3.82302 11.4282L4.10434 10.1701C4.14134 10.0539 4.13896 9.92702 4.1129 9.81477C4.08652 9.70119 4.03237 9.58751 3.95038 9.50535L3.00095 8.51461L4.37461 8.37339C4.51484 8.37205 4.63008 8.33551 4.72841 8.26711C4.82446 8.20028 4.89516 8.10918 4.95629 8.01806L4.96084 8.01127L4.96463 8.00404L5.57962 6.82868L6.14612 8.04849C6.22885 8.2824 6.45464 8.41825 6.64527 8.48139L6.65555 8.4848L6.66623 8.4867L7.99169 8.72192L6.99917 9.61436L6.9853 9.62683L6.9749 9.64233C6.84546 9.83529 6.77502 10.0372 6.77502 10.246Z" fill="#124F7A" stroke="#124F7A" stroke-width="0.3"/>
<path d="M21.8386 12.6413L21.8352 12.657V12.6729C21.8352 12.9123 21.8926 13.2067 22.1232 13.3679C22.2118 13.4495 22.3425 13.4986 22.467 13.5151C22.5951 13.5321 22.7473 13.5186 22.8728 13.4396L25.06 12.3807L27.1292 13.6034C27.1902 13.6551 27.2647 13.6731 27.3209 13.681C27.3824 13.6898 27.4496 13.6898 27.5041 13.6898H27.5092C27.5408 13.6898 27.5737 13.6864 27.597 13.6841C27.6019 13.6836 27.6064 13.6832 27.6103 13.6828C27.6377 13.6802 27.6532 13.6799 27.6651 13.6814C27.6746 13.6826 27.6814 13.6849 27.6889 13.6898C27.6975 13.6953 27.713 13.7083 27.7335 13.7389L27.8166 13.8627L27.9409 13.7804C28.1813 13.6211 28.2407 13.3209 28.2407 13.0775V13.0687L28.2396 13.06L27.9577 10.6506L29.7545 8.97655C29.9899 8.81265 30.0475 8.51065 29.9805 8.24453C29.9036 7.93873 29.6676 7.79602 29.4061 7.73104L29.4061 7.73077L29.3972 7.72911L26.9759 7.28143L26.019 5.04385L26.0135 5.03093L26.0056 5.01926C25.8831 4.83661 25.6695 4.6061 25.3577 4.6061C25.0674 4.6061 24.8494 4.75348 24.7098 4.96148L24.7094 4.96119L24.7033 4.97214L23.5207 7.09888L21.1055 7.32215C20.8848 7.32533 20.5846 7.46818 20.5038 7.77651C20.4366 7.9818 20.4316 8.2761 20.6566 8.50129L22.3453 10.2914L21.8386 12.6413ZM26.4288 10.2459V10.2539L26.4297 10.262L26.5712 11.5742L25.4486 10.8769C25.3872 10.8243 25.312 10.8061 25.2553 10.798C25.1938 10.7893 25.1266 10.7893 25.072 10.7893L25.067 10.7893H25.0648C25.0359 10.7893 24.9821 10.7893 24.9262 10.7986C24.8789 10.8064 24.8105 10.8237 24.7524 10.8697L23.535 11.4281L23.8163 10.17C23.8533 10.0538 23.8509 9.92693 23.8249 9.81467C23.7985 9.70109 23.7443 9.5874 23.6623 9.50524L22.7119 8.5135L24.0287 8.37329C24.1688 8.3719 24.284 8.33537 24.3822 8.26701C24.4783 8.20019 24.549 8.10909 24.6101 8.01796L24.6105 8.01821L24.6162 8.00804L25.2808 6.82858L25.7991 8.04593C25.8811 8.28135 26.1078 8.41793 26.2991 8.4813L26.3094 8.48471L26.32 8.4866L27.6455 8.72183L26.653 9.61426L26.6391 9.62674L26.6287 9.64224C26.4993 9.8352 26.4288 10.0371 26.4288 10.2459Z" fill="#124F7A" stroke="#124F7A" stroke-width="0.3"/>
</svg>
