<svg width="18" height="21" viewBox="0 0 18 21" fill="none" xmlns="http://www.w3.org/2000/svg">
<path d="M15.6931 18.7826L16.3481 5.04562H17.2975C17.6868 5.04562 18 4.72615 18 4.34093C18 3.95571 17.6868 3.62686 17.2975 3.62686H13.1487V2.21743C13.1487 0.873831 12.2279 0 10.7659 0H7.21521C5.75317 0 4.84177 0.873831 4.84177 2.21743V3.62686H0.712022C0.332274 3.62686 0 3.95571 0 4.34093C0 4.72615 0.332274 5.04562 0.712022 5.04562H1.66141L2.31644 18.792C2.38291 20.145 3.28483 21 4.65192 21H13.3576C14.7153 21 15.6266 20.1355 15.6931 18.7826ZM6.36076 2.3114C6.36076 1.77584 6.75951 1.40001 7.32915 1.40001H10.6614C11.2405 1.40001 11.6393 1.77584 11.6393 2.3114V3.62686H6.36076V2.3114ZM4.79434 19.5906C4.2437 19.5906 3.83543 19.1772 3.80696 18.6322L3.14241 5.04562H14.8292L14.2026 18.6322C14.1741 19.1866 13.7753 19.5906 13.2152 19.5906H4.79434ZM11.8197 17.9369C12.1329 17.9369 12.3703 17.6832 12.3798 17.3262L12.6646 7.40401C12.6741 7.04697 12.4272 6.7839 12.1045 6.7839C11.8102 6.7839 11.5633 7.05639 11.5538 7.39463L11.269 17.3262C11.2595 17.6644 11.4969 17.9369 11.8197 17.9369ZM6.18991 17.9369C6.5127 17.9369 6.75003 17.6644 6.74051 17.3262L6.45571 7.39463C6.44623 7.05639 6.18991 6.7839 5.89559 6.7839C5.57279 6.7839 5.33547 7.04697 5.34494 7.40401L5.63926 17.3262C5.64874 17.6832 5.87659 17.9369 6.18991 17.9369ZM9.57916 17.3262V7.39463C9.57916 7.05639 9.3228 6.7839 9.00952 6.7839C8.6962 6.7839 8.4304 7.05639 8.4304 7.39463V17.3262C8.4304 17.6644 8.6962 17.9369 9.00952 17.9369C9.31332 17.9369 9.57916 17.6644 9.57916 17.3262Z" fill="#124F7A"/>
</svg>
