<svg width="158" height="74" viewBox="0 0 158 74" fill="none" xmlns="http://www.w3.org/2000/svg">
<path d="M5.04376 10.5C6.37352 10.5 7.29577 10.7566 7.81051 11.2698C8.32526 11.7847 8.58442 12.7042 8.58442 14.0281V14.5252C8.58442 15.851 8.32704 16.7704 7.81051 17.2854C7.29577 17.7985 6.37173 18.0551 5.04376 18.0551H3.99639C2.63268 18.0551 1.70327 17.7985 1.20462 17.2854C0.705956 16.7722 0.45752 15.851 0.45752 14.5252V14.0281C0.45752 12.7042 0.705956 11.7829 1.20462 11.2698C1.70327 10.7566 2.63268 10.5 3.99639 10.5H5.04376ZM6.48969 20.3947C7.15457 20.3947 7.61927 20.5266 7.88558 20.7921C8.15189 21.0576 8.28415 21.5369 8.28415 22.2336V44.4072C8.28415 45.1022 8.1501 45.5851 7.88558 45.8488C7.61927 46.1143 7.15457 46.2461 6.48969 46.2461H2.6005C1.90167 46.2461 1.42088 46.1143 1.15457 45.8488C0.888261 45.5833 0.756 45.1022 0.756 44.4072V22.2336C0.756 21.5369 0.888261 21.0576 1.15457 20.7921C1.42088 20.5266 1.90167 20.3947 2.6005 20.3947H6.48969Z" fill="#197CC1"/>
<path d="M23.8446 19.6482H25.4908C26.1556 19.6482 26.6293 19.7818 26.9117 20.0456C27.1941 20.311 27.3353 20.7904 27.3353 21.4871V24.5697C27.3353 25.2326 27.1941 25.6976 26.9117 25.9631C26.6293 26.2286 26.1556 26.3605 25.4908 26.3605H23.6463C22.3165 26.3605 21.1351 26.4763 20.1056 26.708C19.9054 26.7418 19.8071 26.8576 19.8071 27.0554V44.4073C19.8071 45.1022 19.6731 45.5851 19.4085 45.8488C19.1422 46.1143 18.6775 46.2462 18.0127 46.2462H14.1199C13.4211 46.2462 12.9385 46.1143 12.674 45.8488C12.4077 45.5833 12.2754 45.1022 12.2754 44.4073V24.0726C12.2754 23.244 12.4077 22.64 12.674 22.2586C12.9385 21.8773 13.4711 21.5209 14.27 21.1895C16.5292 20.295 19.7213 19.7818 23.8446 19.6482Z" fill="#197CC1"/>
<path d="M28.082 30.1381C28.082 26.8256 29.0972 24.2473 31.124 22.4084C33.1508 20.5695 36.0928 19.65 39.9498 19.65C43.839 19.65 46.7987 20.5695 48.8256 22.4084C50.8541 24.2473 51.8676 26.8256 51.8676 30.1381V36.5529C51.8676 39.8671 50.8524 42.4366 48.8256 44.2577C46.797 46.0805 43.839 46.9911 39.9498 46.9911C36.0928 46.9911 33.1508 46.0716 31.124 44.2327C29.0954 42.3938 28.082 39.8333 28.082 36.5529V30.1381ZM44.3394 30.0383C44.3394 27.5526 42.8756 26.3089 39.9516 26.3089C37.0597 26.3089 35.6138 27.5526 35.6138 30.0383V36.601C35.6138 39.0867 37.0597 40.3304 39.9516 40.3304C42.8756 40.3304 44.3394 39.0867 44.3394 36.601V30.0383Z" fill="#197CC1"/>
<path d="M57.0545 21.4372C59.9464 20.2451 63.3387 19.6482 67.2279 19.6482C74.4093 19.6482 78 23.0783 78 29.9403V44.4073C78 45.1022 77.8678 45.5851 77.6015 45.8488C77.3351 46.1143 76.8704 46.2462 76.2056 46.2462H72.3146C71.6158 46.2462 71.1332 46.1143 70.8687 45.8488C70.6024 45.5833 70.4701 45.1022 70.4701 44.4073V30.188C70.4701 27.7023 69.0563 26.4585 66.2324 26.4585C64.9348 26.4585 63.7713 26.6082 62.7418 26.9058C62.6417 26.9058 62.5916 26.9717 62.5916 27.1035V44.4055C62.5916 45.1005 62.4594 45.5833 62.1931 45.8471C61.9267 46.1126 61.4442 46.2444 60.7471 46.2444H56.908C56.2091 46.2444 55.7266 46.1126 55.462 45.8471C55.1957 45.5816 55.0635 45.1005 55.0635 44.4055V24.322C55.0635 23.4935 55.1957 22.8894 55.462 22.5081C55.7248 22.1268 56.2574 21.7704 57.0545 21.4372Z" fill="#197CC1"/>
<path d="M13.5156 49.8365C13.832 49.8365 14.0518 49.8918 14.1752 50.0005C14.2985 50.1092 14.361 50.3123 14.361 50.6063V62.7284C14.361 63.0242 14.3003 63.2255 14.1752 63.3342C14.0518 63.4429 13.8302 63.4982 13.5156 63.4982H11.9678C11.6515 63.4982 11.4334 63.4411 11.3172 63.3253C11.2011 63.2095 11.1421 63.0117 11.1421 62.7284V58.361C11.1421 57.1298 11.3691 55.6864 11.8231 54.0311H11.6372C11.2243 55.3016 10.681 56.4954 10.0071 57.6109L8.54155 60.0538C8.41823 60.2587 8.29312 60.4031 8.16979 60.4868C8.04647 60.5705 7.86059 60.6115 7.61394 60.6115H6.66488C6.40393 60.6115 6.2109 60.5723 6.08758 60.4957C5.96425 60.4191 5.83914 60.2712 5.71582 60.0538L4.23056 57.6109C3.63896 56.6878 3.12958 55.494 2.70241 54.0311H2.51653C2.9294 55.674 3.13494 57.1226 3.13494 58.3806V62.7284C3.13494 63.0117 3.07596 63.2095 2.95979 63.3253C2.84361 63.4411 2.62556 63.4982 2.3092 63.4982H0.84361C0.527256 63.4982 0.307417 63.4411 0.182306 63.3253C0.0625558 63.2095 0 63.0099 0 62.7284V50.6063C0 50.3248 0.0625558 50.1252 0.18588 50.0094C0.309205 49.8936 0.530831 49.8365 0.847185 49.8365H2.18767C2.51832 49.8365 2.75782 49.8758 2.90974 49.9524C3.06166 50.029 3.2118 50.1822 3.36372 50.4139L7.1403 56.9177L10.9383 50.4335C11.0903 50.1769 11.2332 50.013 11.3709 49.9417C11.5085 49.8722 11.7355 49.8365 12.0518 49.8365H13.5156Z" fill="#197CC1"/>
<path d="M28.8884 62.7284C29.0958 63.2416 28.9099 63.4982 28.3308 63.4982H26.783C26.2736 63.4982 25.9161 63.4501 25.7106 63.3538C25.5051 63.2576 25.3531 63.0687 25.2566 62.7872L24.6168 60.9786H19.5194L18.8598 62.7872C18.749 63.0687 18.5989 63.2576 18.4059 63.3538C18.2128 63.4501 17.8625 63.4982 17.3531 63.4982H15.9287C15.3496 63.4982 15.1655 63.2416 15.371 62.7284L20.3022 50.4905C20.3987 50.2339 20.5185 50.0611 20.6632 49.9702C20.808 49.8811 21.0314 49.8365 21.3335 49.8365H22.9224C23.2245 49.8365 23.4497 49.8775 23.5926 49.9613C23.7374 50.045 23.8572 50.209 23.9537 50.4513L28.8884 62.7284ZM22.6775 55.4548C22.5399 55.045 22.4255 54.6084 22.3362 54.1469C22.2468 53.6854 22.195 53.3255 22.1807 53.0689L22.1628 52.7036H21.9555C21.9698 53.6141 21.8107 54.5247 21.48 55.437L20.4077 58.4376H23.7499L22.6775 55.4548Z" fill="#197CC1"/>
<path d="M36.4826 49.8365C37.9821 49.8365 39.1671 50.2268 40.0411 51.0108C40.9133 51.793 41.3512 52.8764 41.3512 54.2627C41.3512 56.2121 40.5541 57.5271 38.958 58.2078C38.9991 58.2595 39.1439 58.484 39.3905 58.8813L41.5157 62.6732C41.6676 62.903 41.7087 63.099 41.639 63.2594C41.5693 63.4198 41.3834 63.4999 41.0813 63.4999H39.4299C38.9062 63.4999 38.5255 63.4483 38.286 63.3467C38.0447 63.2434 37.8481 63.0456 37.698 62.7498L36.1716 59.7865C35.9375 59.3375 35.6872 59.0364 35.4191 58.8813C35.151 58.7281 34.7203 58.6515 34.1287 58.6515H33.2815V62.7124C33.2815 63.0081 33.2208 63.2113 33.0956 63.3271C32.9723 63.4429 32.7507 63.4999 32.4343 63.4999H30.7632C30.4468 63.4999 30.227 63.4429 30.1019 63.3271C29.9786 63.2113 29.916 63.0064 29.916 62.7124V50.6277C29.916 50.3319 29.9786 50.127 30.1019 50.0112C30.2252 49.8954 30.4468 49.8383 30.7632 49.8383H36.4826V49.8365ZM37.4209 55.4263C37.7158 55.1519 37.8642 54.7616 37.8642 54.2627C37.8642 53.7638 37.7158 53.3754 37.4209 53.0992C37.126 52.823 36.7024 52.6858 36.1519 52.6858H33.2833V55.8415H36.1519C36.7024 55.8397 37.126 55.7025 37.4209 55.4263Z" fill="#197CC1"/>
<path d="M54.6827 62.6698C54.8346 62.8997 54.8721 63.0957 54.7953 63.2561C54.7202 63.4164 54.5307 63.4966 54.2287 63.4966H52.5772C52.041 63.4966 51.6621 63.4521 51.4423 63.3612C51.2224 63.2721 51.0366 63.0796 50.8846 62.7839L48.9454 59.1275C48.7113 58.6784 48.4646 58.3737 48.2019 58.2133C47.9409 58.053 47.5209 57.9728 46.9436 57.9728H46.4074V62.7054C46.4074 63.0012 46.3449 63.2044 46.2215 63.3202C46.0982 63.436 45.8784 63.493 45.562 63.493H43.8909C43.5745 63.493 43.3547 63.436 43.2296 63.3202C43.1063 63.2044 43.0437 62.9995 43.0437 62.7054V50.6208C43.0437 50.325 43.1063 50.1201 43.2296 50.0043C43.3529 49.8884 43.5745 49.8314 43.8909 49.8314H45.562C45.8784 49.8314 46.0982 49.8884 46.2215 50.0043C46.3449 50.1201 46.4074 50.325 46.4074 50.6208V55.1628H46.7381H46.924L50.5772 50.4872C50.7971 50.2056 51.0026 50.0256 51.1956 49.949C51.3887 49.8724 51.7318 49.8332 52.2269 49.8332H54.0214C54.3109 49.8332 54.4932 49.9098 54.5683 50.0631C54.6433 50.2163 54.5987 50.3963 54.4342 50.6012L50.1626 55.9504C50.8632 56.3228 51.4905 56.9963 52.041 57.971L54.6827 62.6698Z" fill="#197CC1"/>
<path d="M64.9993 49.8367C65.3156 49.8367 65.5355 49.8937 65.6606 50.0095C65.7839 50.1254 65.8465 50.3303 65.8465 50.6261V51.9144C65.8465 52.2101 65.7839 52.4115 65.6606 52.5202C65.5372 52.6289 65.3156 52.6841 64.9993 52.6841H59.2209V55.1663H63.9662C64.2826 55.1663 64.5024 55.2215 64.6275 55.3302C64.7508 55.4389 64.8134 55.642 64.8134 55.936V57.2243C64.8134 57.5201 64.7508 57.725 64.6275 57.8409C64.5042 57.9567 64.2826 58.0137 63.9662 58.0137H59.2209V60.6295H65.2048C65.5069 60.6295 65.7249 60.6901 65.8554 60.813C65.9859 60.936 66.052 61.1373 66.052 61.4189V62.7072C66.052 63.0029 65.9894 63.2061 65.8661 63.3219C65.7428 63.4377 65.5212 63.4947 65.2048 63.4947H56.7044C56.388 63.4947 56.1682 63.4377 56.0431 63.3219C55.9197 63.2061 55.8572 63.0012 55.8572 62.7072V50.6225C55.8572 50.3267 55.9179 50.1218 56.0431 50.006C56.1664 49.8902 56.3862 49.8331 56.7044 49.8331H64.9993V49.8367Z" fill="#197CC1"/>
<path d="M77.1529 49.8365C77.4693 49.8365 77.6891 49.8936 77.8142 50.0094C77.9376 50.1252 78.0001 50.3301 78.0001 50.6259V51.9142C78.0001 52.21 77.9376 52.4114 77.8142 52.5201C77.6909 52.6287 77.4693 52.684 77.1529 52.684H73.934V62.7088C73.934 63.0046 73.8714 63.2077 73.7481 63.3235C73.6248 63.4394 73.405 63.4964 73.0886 63.4964H71.4175C71.1011 63.4964 70.8848 63.4394 70.7669 63.3235C70.6489 63.2077 70.5917 63.0028 70.5917 62.7088V52.684H67.3513C67.035 52.684 66.8151 52.6287 66.69 52.5201C66.5667 52.4114 66.5042 52.2082 66.5042 51.9142V50.6259C66.5042 50.3301 66.5667 50.1252 66.69 50.0094C66.8134 49.8936 67.0332 49.8365 67.3513 49.8365H77.1529Z" fill="#197CC1"/>
<path d="M121 0C100.597 0 84 16.5974 84 37C84 57.4026 100.597 74 121 74C141.403 74 158 57.4026 158 37C158 16.5974 141.401 0 121 0ZM99.3708 30.4221C99.3708 29.1266 100.421 28.0765 101.716 28.0765C103.012 28.0765 104.062 29.1266 104.062 30.4221C104.062 31.7176 103.012 32.7677 101.716 32.7677C100.421 32.7677 99.3708 31.7176 99.3708 30.4221ZM126.921 49.9987C126.921 50.77 126.297 51.3948 125.525 51.3948C124.754 51.3948 124.129 50.77 124.129 49.9987V27.2593C124.129 23.3359 121.651 21.9434 119.53 21.9434C115.456 21.9434 115.017 25.6603 115.017 27.2593V47.2719C115.017 52.9709 111.884 56.9525 107.398 56.9525C103.164 56.9525 100.32 53.2674 100.32 49.824V43.2108C100.32 42.4395 100.945 41.8147 101.716 41.8147C102.488 41.8147 103.112 42.4395 103.112 43.2108V49.824C103.112 51.8748 104.872 54.1604 107.398 54.1604C110.732 54.1604 112.225 50.7012 112.225 47.2737V27.2593C112.225 22.3334 115.093 19.1513 119.53 19.1513C123.09 19.1513 126.921 21.6892 126.921 27.2593V49.9987ZM141.177 45.1487C141.177 45.92 140.552 46.5447 139.781 46.5447C139.009 46.5447 138.385 45.92 138.385 45.1487V23.5954C138.385 19.8096 136.692 19.2077 134.864 19.1195C133.42 19.0542 132.333 19.6807 132.096 19.9172C131.551 20.4626 130.667 20.4626 130.121 19.9172C129.576 19.3719 129.576 18.4876 130.121 17.9423C130.97 17.0934 132.853 16.2232 134.996 16.3309C137.814 16.465 141.175 17.8346 141.175 23.5954V45.1487H141.177Z" fill="#FCC000"/>
</svg>
