<svg width="22" height="22" viewBox="0 0 22 22" fill="none" xmlns="http://www.w3.org/2000/svg">
<g clip-path="url(#clip0_497_449)">
<path fill-rule="evenodd" clip-rule="evenodd" d="M7.66666 17.75C7.66666 16.9216 8.26362 16.25 9 16.25C9.73638 16.25 10.3333 16.9216 10.3333 17.75C10.3333 18.5784 9.73638 19.25 9 19.25C8.26362 19.25 7.66666 18.5784 7.66666 17.75Z" fill="#676767"/>
<path fill-rule="evenodd" clip-rule="evenodd" d="M15 17.75C15 16.9216 15.597 16.25 16.3333 16.25C17.0697 16.25 17.6667 16.9216 17.6667 17.75C17.6667 18.5784 17.0697 19.25 16.3333 19.25C15.597 19.25 15 18.5784 15 17.75Z" fill="#676767"/>
<path fill-rule="evenodd" clip-rule="evenodd" d="M3 2.75C3 2.33579 3.29848 2 3.66667 2H6.33333C6.65108 2 6.92467 2.25229 6.98704 2.60281L7.54695 5.75H18.3333C18.532 5.75 18.7203 5.8497 18.847 6.02192C18.9736 6.19414 19.0254 6.42093 18.9882 6.6405L17.9206 12.9386C17.8291 13.4566 17.5787 13.9218 17.213 14.2529C16.8492 14.5824 16.3944 14.7582 15.9276 14.75H9.4591C8.99225 14.7582 8.53747 14.5824 8.17365 14.2529C7.80817 13.922 7.55776 13.4569 7.46622 12.9392C7.46618 12.939 7.46626 12.9395 7.46622 12.9392L6.35253 6.6794C6.34801 6.6587 6.34425 6.63765 6.3413 6.61631L5.78688 3.5H3.66667C3.29848 3.5 3 3.16421 3 2.75ZM7.81382 7.25L8.77389 12.6464C8.80437 12.819 8.88786 12.9741 9.00974 13.0845C9.13162 13.1949 9.28413 13.2535 9.44056 13.2501L9.45333 13.25H15.9333L15.9461 13.2501C16.1025 13.2535 16.255 13.1949 16.3769 13.0845C16.4982 12.9746 16.5815 12.8205 16.6123 12.6488L17.5275 7.25H7.81382Z" fill="#676767"/>
</g>
<defs>
<clipPath id="clip0_497_449">
<rect width="16" height="18" fill="white" transform="translate(3 2)"/>
</clipPath>
</defs>
</svg>
