<svg width="43" height="33" viewBox="0 0 43 33" fill="none" xmlns="http://www.w3.org/2000/svg">
<rect x="0.409779" y="0.409779" width="41.9627" height="31.773" rx="6.14668" fill="#DDD9D6" stroke="#666666" stroke-width="0.819558"/>
<path fill-rule="evenodd" clip-rule="evenodd" d="M27.4043 7.15512C25.9422 4.2354 23.6453 1.94279 22.1344 1.04692C22.0345 0.989139 21.9616 0.89404 21.9318 0.782544C21.902 0.671048 21.9177 0.552287 21.9755 0.452387C22.0333 0.352487 22.1284 0.279632 22.2399 0.249849C22.3514 0.220066 22.4702 0.235794 22.5701 0.293574C24.5494 1.45413 26.8504 4.11731 28.1699 6.74791C28.2017 6.79828 28.222 6.85501 28.2295 6.9141C28.2369 6.97318 28.2313 7.03318 28.2131 7.08987C28.1948 7.14656 28.1644 7.19856 28.1238 7.2422C28.0833 7.28583 28.0337 7.32005 27.9785 7.34244C27.9197 7.37419 27.8539 7.39097 27.7871 7.3913C27.7076 7.39139 27.6297 7.36933 27.5621 7.32761C27.4945 7.28589 27.4398 7.22616 27.4043 7.15512ZM14.1685 21.1266C14.197 25.1743 18.0048 29.9998 20.6275 31.5594C20.6782 31.5858 20.7227 31.6226 20.7581 31.6673C20.7936 31.7121 20.8193 31.7638 20.8335 31.8191C20.8477 31.8744 20.8501 31.932 20.8406 31.9883C20.8311 32.0446 20.8098 32.0983 20.7782 32.1458C20.7398 32.2099 20.6855 32.2631 20.6206 32.3002C20.5557 32.3372 20.4824 32.357 20.4076 32.3576C20.3314 32.3578 20.2566 32.3366 20.1918 32.2965C17.3939 30.6473 13.5657 25.8259 13.3214 21.5094H0.427619C0.320884 21.499 0.221842 21.4492 0.149783 21.3698C0.0777241 21.2904 0.0378076 21.187 0.0378076 21.0798C0.0378076 20.9726 0.0777241 20.8692 0.149783 20.7897C0.221842 20.7103 0.320884 20.6606 0.427619 20.6502H13.4028C14.2154 17.8022 14.2154 14.7838 13.4028 11.9358H0.427619C0.314208 11.9358 0.205441 11.8908 0.125247 11.8106C0.0450526 11.7304 0 11.6216 0 11.5082C0 11.3948 0.0450526 11.2861 0.125247 11.2059C0.205441 11.1257 0.314208 11.0807 0.427619 11.0807H13.3214C13.5657 6.74791 17.4102 1.94279 20.1918 0.293574C20.2917 0.235794 20.4105 0.220066 20.522 0.249849C20.6335 0.279632 20.7286 0.352487 20.7864 0.452387C20.8442 0.552287 20.8599 0.671048 20.8301 0.782544C20.8003 0.89404 20.7275 0.989139 20.6275 1.04692C18.0048 2.58619 14.197 7.41574 14.1685 11.4675C15.1013 14.6197 15.1013 17.9745 14.1685 21.1266ZM42.3547 20.6503H29.355C28.5424 17.8023 28.5424 14.7839 29.355 11.9359H42.3547C42.4681 11.9359 42.5769 11.8908 42.657 11.8107C42.7372 11.7305 42.7823 11.6217 42.7823 11.5083C42.7823 11.3949 42.7372 11.2862 42.657 11.206C42.5769 11.1258 42.4681 11.0807 42.3547 11.0807H29.0252C28.9325 11.0818 28.8426 11.113 28.7692 11.1695C28.6957 11.2261 28.6426 11.305 28.6179 11.3943C27.6711 14.5694 27.6711 17.9516 28.6179 21.1267C28.5894 25.1744 24.7816 29.9999 22.1588 31.5595C22.1069 31.5844 22.0608 31.6201 22.0236 31.6642C21.9865 31.7082 21.9591 31.7597 21.9433 31.8151C21.9276 31.8705 21.9237 31.9287 21.9321 31.9857C21.9404 32.0427 21.9608 32.0973 21.9918 32.1459C22.0303 32.21 22.0845 32.2632 22.1494 32.3002C22.2143 32.3373 22.2877 32.3571 22.3624 32.3576C22.4387 32.3579 22.5135 32.3367 22.5783 32.2966C25.3599 30.6677 29.2044 25.8259 29.4487 21.5095H42.3547C42.4614 21.4991 42.5605 21.4493 42.6325 21.3699C42.7046 21.2905 42.7445 21.1871 42.7445 21.0799C42.7445 20.9726 42.7046 20.8692 42.6325 20.7898C42.5605 20.7104 42.4614 20.6607 42.3547 20.6503ZM20.9556 2.62561C21.0815 2.54149 21.2295 2.49659 21.3809 2.49659C21.584 2.49659 21.7787 2.57725 21.9223 2.72082C22.0659 2.86439 22.1466 3.05912 22.1466 3.26216C22.1466 3.41357 22.1017 3.56158 22.0175 3.68748C21.9334 3.81337 21.8138 3.9115 21.6739 3.96944C21.534 4.02739 21.3801 4.04255 21.2316 4.01301C21.083 3.98347 20.9466 3.91055 20.8395 3.80349C20.7325 3.69642 20.6595 3.56001 20.63 3.41151C20.6005 3.263 20.6156 3.10908 20.6736 2.96919C20.7315 2.8293 20.8297 2.70974 20.9556 2.62561Z" fill="#666666"/>
</svg>
