<svg width="72" height="72" viewBox="0 0 72 72" fill="none" xmlns="http://www.w3.org/2000/svg">
<circle cx="36" cy="32.6862" r="19" fill="#C6C6C6" fill-opacity="0.3"/>
<circle cx="51.5" cy="55.1862" r="6.5" fill="#D5D5D5" fill-opacity="0.43"/>
<path d="M19.7124 34.3656L37.3724 44.5856L54.9124 34.4256" stroke="#C6C6C6" stroke-width="2" stroke-linecap="round" stroke-linejoin="round"/>
<path d="M37.3716 62.7056V44.5656" stroke="#C6C6C6" stroke-width="2" stroke-linecap="round" stroke-linejoin="round"/>
<path d="M18.1528 49.1457V37.8256C18.1528 35.0656 20.1328 31.7057 22.5528 30.3657L33.2328 24.4456C35.5128 23.1656 39.2328 23.1656 41.5128 24.4456L52.1928 30.3657C54.6128 31.7057 56.5928 35.0656 56.5928 37.8256V49.1457C56.5928 49.2457 56.5928 49.3256 56.5728 49.4256C55.1728 48.2056 53.3728 47.4857 51.3728 47.4857C49.4928 47.4857 47.7528 48.1457 46.3728 49.2457C44.5328 50.7057 43.3728 52.9657 43.3728 55.4857C43.3728 56.9857 43.7928 58.4057 44.5328 59.6057C44.7128 59.9257 44.9328 60.2257 45.1728 60.5057L41.5128 62.5257C39.2328 63.8057 35.5128 63.8057 33.2328 62.5257L22.5528 56.6057" stroke="#C6C6C6" stroke-width="2" stroke-linecap="round" stroke-linejoin="round"/>
<path d="M59.3688 55.3056C59.4088 56.8056 59.0089 58.2256 58.2892 59.4456C57.8893 60.1656 57.3495 60.8256 56.7497 61.3656C55.3701 62.6456 53.5506 63.4256 51.5313 63.4856C48.6122 63.5456 46.033 62.0456 44.6135 59.7456C43.8537 58.5656 43.3939 57.1457 43.3739 55.6457C43.3139 53.1257 44.4335 50.8456 46.233 49.3456C47.5925 48.2256 49.312 47.5256 51.1914 47.4856C55.61 47.3856 59.2689 50.8856 59.3688 55.3056Z" stroke="#C6C6C6" stroke-width="2" stroke-miterlimit="10" stroke-linecap="round" stroke-linejoin="round"/>
<path d="M48.2534 55.5247L50.2083 57.4255L54.2534 53.4255" stroke="#C6C6C6" stroke-width="2" stroke-linecap="round" stroke-linejoin="round"/>
<path d="M21.269 8.63993C19.5949 7.91149 18.3728 6.42081 18.0288 4.62285C17.6847 6.42081 16.4627 7.91149 14.7886 8.63993C14.4629 8.7817 13.6514 9 13.6514 9C13.6514 9 14.4623 9.21829 14.7886 9.36006C16.4633 10.0891 17.6847 11.5792 18.0288 13.3771C18.3728 11.5792 19.5949 10.0885 21.269 9.36006C21.5947 9.21829 22.4062 9 22.4062 9C22.4062 9 21.5952 8.7817 21.269 8.63993Z" fill="#D5D5D5" fill-opacity="0.43"/>
<path d="M18.0291 14C17.7301 14 17.4733 13.7876 17.4175 13.494C17.1149 11.9155 16.0394 10.5832 14.5403 9.93072C14.3339 9.84055 13.7864 9.68098 13.4903 9.6009C13.218 9.52853 13.0288 9.28176 13.0288 9C13.0288 8.71823 13.218 8.47147 13.4897 8.39851C13.7864 8.31842 14.3339 8.15886 14.5398 8.06869C16.0394 7.41618 17.1149 6.08388 17.4169 4.5054C17.4733 4.21236 17.7301 4 18.0291 4C18.3281 4 18.585 4.21236 18.6407 4.50599C18.9433 6.08447 20.0188 7.41678 21.5179 8.06928C21.7237 8.15886 22.2713 8.31902 22.5679 8.3991C22.8396 8.47206 23.0288 8.71883 23.0288 9.00059C23.0288 9.28236 22.8396 9.52913 22.5679 9.60209C22.2713 9.68217 21.7237 9.84174 21.5179 9.9319C20.0188 10.5844 18.9427 11.9167 18.6407 13.4952C18.5844 13.7876 18.3281 14 18.0291 14ZM15.4753 9C16.5721 9.58192 17.4572 10.4687 18.0291 11.5353C18.601 10.4687 19.4861 9.58192 20.5829 9C19.4861 8.41808 18.601 7.53126 18.0291 6.4647C17.4572 7.53126 16.5721 8.41808 15.4753 9Z" fill="#C6C6C6"/>
<path d="M69.7352 35.7976C68.3959 35.2148 67.4183 34.0223 67.143 32.5839C66.8678 34.0223 65.8901 35.2148 64.5509 35.7976C64.2903 35.911 63.6411 36.0856 63.6411 36.0856C63.6411 36.0856 64.2899 36.2602 64.5509 36.3737C65.8906 36.9569 66.8678 38.149 67.143 39.5873C67.4183 38.149 68.3959 36.9564 69.7352 36.3737C69.9957 36.2602 70.645 36.0856 70.645 36.0856C70.645 36.0856 69.9962 35.911 69.7352 35.7976Z" fill="#D5D5D5" fill-opacity="0.43"/>
<path d="M67.1433 40.0856C66.9041 40.0856 66.6986 39.9157 66.654 39.6808C66.412 38.418 65.5516 37.3522 64.3523 36.8302C64.1871 36.758 63.7491 36.6304 63.5123 36.5663C63.2945 36.5084 63.1431 36.311 63.1431 36.0856C63.1431 35.8602 63.2945 35.6628 63.5118 35.6044C63.7491 35.5403 64.1871 35.4127 64.3518 35.3406C65.5516 34.8185 66.412 33.7527 66.6535 32.4899C66.6986 32.2555 66.9041 32.0856 67.1433 32.0856C67.3825 32.0856 67.588 32.2555 67.6326 32.4904C67.8746 33.7532 68.735 34.819 69.9343 35.341C70.099 35.4127 70.537 35.5408 70.7743 35.6049C70.9917 35.6633 71.1431 35.8607 71.1431 36.0861C71.1431 36.3115 70.9917 36.5089 70.7743 36.5673C70.537 36.6313 70.099 36.759 69.9343 36.8311C68.735 37.3531 67.8742 38.419 67.6326 39.6818C67.5875 39.9157 67.3825 40.0856 67.1433 40.0856ZM65.1002 36.0856C65.9777 36.5511 66.6858 37.2606 67.1433 38.1138C67.6008 37.2606 68.3089 36.5511 69.1864 36.0856C68.3089 35.6201 67.6008 34.9106 67.1433 34.0574C66.6858 34.9106 65.9777 35.6201 65.1002 36.0856Z" fill="#B1B1B1"/>
<path d="M7.59213 47.4547C6.25287 46.8719 5.27523 45.6794 4.99997 44.241C4.72472 45.6794 3.74708 46.8719 2.40782 47.4547C2.14727 47.5681 1.49805 47.7427 1.49805 47.7427C1.49805 47.7427 2.1468 47.9173 2.40782 48.0308C3.74756 48.614 4.72472 49.8061 4.99997 51.2444C5.27523 49.8061 6.25287 48.6135 7.59213 48.0308C7.85268 47.9173 8.5019 47.7427 8.5019 47.7427C8.5019 47.7427 7.85315 47.5681 7.59213 47.4547Z" fill="#D5D5D5" fill-opacity="0.43"/>
<path d="M5.00024 51.7427C4.76105 51.7427 4.55556 51.5728 4.51095 51.3379C4.26891 50.0751 3.40849 49.0093 2.20923 48.4873C2.04408 48.4151 1.60604 48.2875 1.36922 48.2234C1.15139 48.1655 1 47.9681 1 47.7427C1 47.5173 1.15139 47.3199 1.36875 47.2615C1.60604 47.1974 2.04408 47.0698 2.20876 46.9977C3.40849 46.4757 4.26891 45.4098 4.51047 44.147C4.55556 43.9126 4.76105 43.7427 5.00024 43.7427C5.23943 43.7427 5.44492 43.9126 5.48953 44.1475C5.73156 45.4103 6.59198 46.4761 7.79124 46.9981C7.95592 47.0698 8.39396 47.1979 8.63125 47.262C8.84861 47.3204 9 47.5178 9 47.7432C9 47.9686 8.84861 48.166 8.63125 48.2244C8.39396 48.2884 7.95592 48.4161 7.79124 48.4882C6.59198 49.0102 5.73109 50.0761 5.48953 51.3389C5.44444 51.5728 5.23943 51.7427 5.00024 51.7427ZM2.95717 47.7427C3.83467 48.2082 4.54274 48.9177 5.00024 49.7709C5.45773 48.9177 6.16581 48.2082 7.0433 47.7427C6.16581 47.2772 5.45773 46.5677 5.00024 45.7145C4.54274 46.5677 3.83467 47.2772 2.95717 47.7427Z" fill="#C6C6C6"/>
</svg>
