<svg width="72" height="72" viewBox="0 0 72 72" fill="none" xmlns="http://www.w3.org/2000/svg">
<circle cx="36" cy="32.6862" r="19" fill="#FDCD66" fill-opacity="0.35"/>
<circle cx="51.5" cy="55.1862" r="6.5" fill="#FDCD66"/>
<path d="M19.7129 34.3656L37.3729 44.5856L54.9129 34.4256" stroke="#292D32" stroke-width="2" stroke-linecap="round" stroke-linejoin="round"/>
<path d="M37.3721 62.7056V44.5656" stroke="#292D32" stroke-width="2" stroke-linecap="round" stroke-linejoin="round"/>
<path d="M18.1533 49.1457V37.8256C18.1533 35.0656 20.1333 31.7057 22.5533 30.3657L33.2333 24.4456C35.5133 23.1656 39.2333 23.1656 41.5133 24.4456L52.1933 30.3657C54.6133 31.7057 56.5933 35.0656 56.5933 37.8256V49.1457C56.5933 49.2457 56.5933 49.3256 56.5733 49.4256C55.1733 48.2056 53.3733 47.4857 51.3733 47.4857C49.4933 47.4857 47.7533 48.1457 46.3733 49.2457C44.5333 50.7057 43.3733 52.9657 43.3733 55.4857C43.3733 56.9857 43.7933 58.4057 44.5333 59.6057C44.7133 59.9257 44.9333 60.2257 45.1733 60.5057L41.5133 62.5257C39.2333 63.8057 35.5133 63.8057 33.2333 62.5257L22.5533 56.6057" stroke="#292D32" stroke-width="2" stroke-linecap="round" stroke-linejoin="round"/>
<path d="M59.3693 55.3056C59.4093 56.8056 59.0094 58.2256 58.2897 59.4456C57.8898 60.1656 57.35 60.8256 56.7502 61.3656C55.3706 62.6456 53.5511 63.4256 51.5318 63.4856C48.6127 63.5456 46.0335 62.0456 44.614 59.7456C43.8542 58.5656 43.3944 57.1457 43.3744 55.6457C43.3144 53.1257 44.434 50.8456 46.2335 49.3456C47.593 48.2256 49.3125 47.5256 51.1919 47.4856C55.6105 47.3856 59.2694 50.8856 59.3693 55.3056Z" stroke="#292D32" stroke-width="2" stroke-miterlimit="10" stroke-linecap="round" stroke-linejoin="round"/>
<path d="M48.2539 55.5247L50.2088 57.4255L54.2539 53.4255" stroke="#292D32" stroke-width="2" stroke-linecap="round" stroke-linejoin="round"/>
<path d="M21.2699 8.63993C19.5959 7.91149 18.3738 6.42081 18.0298 4.62285C17.6857 6.42081 16.4636 7.91149 14.7896 8.63993C14.4639 8.7817 13.6523 9 13.6523 9C13.6523 9 14.4633 9.21829 14.7896 9.36006C16.4642 10.0891 17.6857 11.5792 18.0298 13.3771C18.3738 11.5792 19.5959 10.0885 21.2699 9.36006C21.5956 9.21829 22.4072 9 22.4072 9C22.4072 9 21.5962 8.7817 21.2699 8.63993Z" fill="#FDCD66"/>
<path d="M18.0296 14C17.7306 14 17.4737 13.7876 17.418 13.494C17.1154 11.9155 16.0399 10.5832 14.5408 9.93072C14.3344 9.84055 13.7868 9.68098 13.4908 9.6009C13.2185 9.52853 13.0293 9.28176 13.0293 9C13.0293 8.71823 13.2185 8.47147 13.4902 8.39851C13.7868 8.31842 14.3344 8.15886 14.5402 8.06869C16.0399 7.41618 17.1154 6.08388 17.4174 4.5054C17.4737 4.21236 17.7306 4 18.0296 4C18.3286 4 18.5854 4.21236 18.6412 4.50599C18.9438 6.08447 20.0193 7.41678 21.5184 8.06928C21.7242 8.15886 22.2717 8.31902 22.5684 8.3991C22.8401 8.47206 23.0293 8.71883 23.0293 9.00059C23.0293 9.28236 22.8401 9.52913 22.5684 9.60209C22.2717 9.68217 21.7242 9.84174 21.5184 9.9319C20.0193 10.5844 18.9432 11.9167 18.6412 13.4952C18.5849 13.7876 18.3286 14 18.0296 14ZM15.4758 9C16.5726 9.58192 17.4577 10.4687 18.0296 11.5353C18.6015 10.4687 19.4866 9.58192 20.5834 9C19.4866 8.41808 18.6015 7.53126 18.0296 6.4647C17.4577 7.53126 16.5726 8.41808 15.4758 9Z" fill="#292D32"/>
<path d="M69.7347 35.7976C68.3954 35.2148 67.4178 34.0223 67.1426 32.5839C66.8673 34.0223 65.8897 35.2148 64.5504 35.7976C64.2899 35.911 63.6406 36.0856 63.6406 36.0856C63.6406 36.0856 64.2894 36.2602 64.5504 36.3737C65.8901 36.9569 66.8673 38.149 67.1426 39.5873C67.4178 38.149 68.3954 36.9564 69.7347 36.3737C69.9953 36.2602 70.6445 36.0856 70.6445 36.0856C70.6445 36.0856 69.9957 35.911 69.7347 35.7976Z" fill="#FDCD66"/>
<path d="M67.1428 40.0856C66.9036 40.0856 66.6981 39.9157 66.6535 39.6808C66.4115 38.418 65.5511 37.3522 64.3518 36.8302C64.1867 36.758 63.7486 36.6304 63.5118 36.5663C63.294 36.5084 63.1426 36.311 63.1426 36.0856C63.1426 35.8602 63.294 35.6628 63.5113 35.6044C63.7486 35.5403 64.1867 35.4127 64.3513 35.3406C65.5511 34.8185 66.4115 33.7527 66.653 32.4899C66.6981 32.2555 66.9036 32.0856 67.1428 32.0856C67.382 32.0856 67.5875 32.2555 67.6321 32.4904C67.8741 33.7532 68.7346 34.819 69.9338 35.341C70.0985 35.4127 70.5365 35.5408 70.7738 35.6049C70.9912 35.6633 71.1426 35.8607 71.1426 36.0861C71.1426 36.3115 70.9912 36.5089 70.7738 36.5673C70.5365 36.6313 70.0985 36.759 69.9338 36.8311C68.7346 37.3531 67.8737 38.419 67.6321 39.6818C67.587 39.9157 67.382 40.0856 67.1428 40.0856ZM65.0997 36.0856C65.9772 36.5511 66.6853 37.2606 67.1428 38.1138C67.6003 37.2606 68.3084 36.5511 69.1859 36.0856C68.3084 35.6201 67.6003 34.9106 67.1428 34.0574C66.6853 34.9106 65.9772 35.6201 65.0997 36.0856Z" fill="#292D32"/>
<path d="M7.59213 47.4547C6.25287 46.8719 5.27523 45.6794 4.99997 44.241C4.72472 45.6794 3.74708 46.8719 2.40782 47.4547C2.14727 47.5681 1.49805 47.7427 1.49805 47.7427C1.49805 47.7427 2.1468 47.9173 2.40782 48.0308C3.74756 48.614 4.72472 49.8061 4.99997 51.2444C5.27523 49.8061 6.25287 48.6135 7.59213 48.0308C7.85268 47.9173 8.5019 47.7427 8.5019 47.7427C8.5019 47.7427 7.85315 47.5681 7.59213 47.4547Z" fill="#FDCD66"/>
<path d="M5.00024 51.7427C4.76105 51.7427 4.55556 51.5728 4.51095 51.3379C4.26891 50.0751 3.40849 49.0093 2.20923 48.4873C2.04408 48.4151 1.60604 48.2875 1.36922 48.2234C1.15139 48.1655 1 47.9681 1 47.7427C1 47.5173 1.15139 47.3199 1.36875 47.2615C1.60604 47.1974 2.04408 47.0698 2.20876 46.9977C3.40849 46.4757 4.26891 45.4098 4.51047 44.147C4.55556 43.9126 4.76105 43.7427 5.00024 43.7427C5.23943 43.7427 5.44492 43.9126 5.48953 44.1475C5.73156 45.4103 6.59198 46.4761 7.79124 46.9981C7.95592 47.0698 8.39396 47.1979 8.63125 47.262C8.84861 47.3204 9 47.5178 9 47.7432C9 47.9686 8.84861 48.166 8.63125 48.2244C8.39396 48.2884 7.95592 48.4161 7.79124 48.4882C6.59198 49.0102 5.73109 50.0761 5.48953 51.3389C5.44444 51.5728 5.23943 51.7427 5.00024 51.7427ZM2.95717 47.7427C3.83467 48.2082 4.54274 48.9177 5.00024 49.7709C5.45773 48.9177 6.16581 48.2082 7.0433 47.7427C6.16581 47.2772 5.45773 46.5677 5.00024 45.7145C4.54274 46.5677 3.83467 47.2772 2.95717 47.7427Z" fill="#292D32"/>
</svg>
