<svg width="29" height="26" viewBox="0 0 29 26" fill="none" xmlns="http://www.w3.org/2000/svg">
<circle cx="14" cy="13" r="13" fill="#FDC040" fill-opacity="0.35"/>
<path d="M10.4961 5.55211C10.4353 5.55211 10.3861 5.60136 10.3861 5.66211V6.52539C10.3861 6.58614 10.4353 6.63539 10.4961 6.63539H23.4453C23.5061 6.63539 23.5553 6.58614 23.5553 6.52539V5.66211C23.5553 5.60136 23.5061 5.55211 23.4453 5.55211H10.4961Z" fill="#124F7A" stroke="#124F7A" stroke-width="0.22" stroke-linejoin="round"/>
<path d="M10.4961 7.27867C10.4353 7.27867 10.3861 7.32792 10.3861 7.38867V8.25195C10.3861 8.3127 10.4353 8.36195 10.4961 8.36195H25.1719C25.2326 8.36195 25.2819 8.3127 25.2819 8.25195V7.38867C25.2819 7.32792 25.2326 7.27867 25.1719 7.27867H10.4961Z" fill="#124F7A" stroke="#124F7A" stroke-width="0.22" stroke-linejoin="round"/>
<path d="M8.87953 4.79883C8.87953 4.73808 8.83028 4.68883 8.76953 4.68883H4.45312C4.39237 4.68883 4.34313 4.73808 4.34313 4.79883V9.11523C4.34313 9.17599 4.39237 9.22523 4.45312 9.22523H8.76953C8.83028 9.22523 8.87953 9.17599 8.87953 9.11523V4.79883ZM7.79625 8.14195H5.42641V5.77211H7.79625V8.14195Z" fill="#124F7A" stroke="#124F7A" stroke-width="0.22" stroke-linejoin="round"/>
<path d="M10.4961 11.5951C10.4353 11.5951 10.3861 11.6443 10.3861 11.7051V12.5684C10.3861 12.6291 10.4353 12.6784 10.4961 12.6784H23.4453C23.5061 12.6784 23.5553 12.6291 23.5553 12.5684V11.7051C23.5553 11.6443 23.5061 11.5951 23.4453 11.5951H10.4961Z" fill="#124F7A" stroke="#124F7A" stroke-width="0.22" stroke-linejoin="round"/>
<path d="M10.4961 13.3216C10.4353 13.3216 10.3861 13.3709 10.3861 13.4316V14.2949C10.3861 14.3557 10.4353 14.4049 10.4961 14.4049H25.1719C25.2326 14.4049 25.2819 14.3557 25.2819 14.2949V13.4316C25.2819 13.3709 25.2326 13.3216 25.1719 13.3216H10.4961Z" fill="#124F7A" stroke="#124F7A" stroke-width="0.22" stroke-linejoin="round"/>
<path d="M8.87953 10.8418C8.87953 10.781 8.83028 10.7318 8.76953 10.7318H4.45312C4.39237 10.7318 4.34313 10.781 4.34313 10.8418V15.1582C4.34313 15.219 4.39237 15.2682 4.45312 15.2682H8.76953C8.83028 15.2682 8.87953 15.219 8.87953 15.1582V10.8418ZM7.79625 14.1849H5.42641V11.8151H7.79625V14.1849Z" fill="#124F7A" stroke="#124F7A" stroke-width="0.22" stroke-linejoin="round"/>
<path d="M10.4961 17.638C10.4353 17.638 10.3861 17.6873 10.3861 17.748V18.6113C10.3861 18.6721 10.4353 18.7213 10.4961 18.7213H23.4453C23.5061 18.7213 23.5553 18.6721 23.5553 18.6113V17.748C23.5553 17.6873 23.5061 17.638 23.4453 17.638H10.4961Z" fill="#124F7A" stroke="#124F7A" stroke-width="0.22" stroke-linejoin="round"/>
<path d="M10.4961 19.3646C10.4353 19.3646 10.3861 19.4139 10.3861 19.4746V20.3379C10.3861 20.3986 10.4353 20.4479 10.4961 20.4479H25.1719C25.2326 20.4479 25.2819 20.3986 25.2819 20.3379V19.4746C25.2819 19.4139 25.2326 19.3646 25.1719 19.3646H10.4961Z" fill="#124F7A" stroke="#124F7A" stroke-width="0.22" stroke-linejoin="round"/>
<path d="M8.87953 16.8848C8.87953 16.824 8.83028 16.7748 8.76953 16.7748H4.45312C4.39237 16.7748 4.34313 16.824 4.34313 16.8848V21.2012C4.34313 21.2619 4.39237 21.3112 4.45312 21.3112H8.76953C8.83028 21.3112 8.87953 21.2619 8.87953 21.2012V16.8848ZM7.79625 20.2279H5.42641V17.858H7.79625V20.2279Z" fill="#124F7A" stroke="#124F7A" stroke-width="0.22" stroke-linejoin="round"/>
<path d="M3.95156 24.3327H25.6726C27.364 24.3327 28.735 22.9617 28.735 21.2711V4.7289C28.735 3.03828 27.3641 1.66734 25.6734 1.66734H3.95156C2.26093 1.66734 0.89 3.03828 0.89 4.7289V21.2702C0.89 22.9617 2.26091 24.3327 3.95156 24.3327ZM1.97328 4.7289C1.97328 3.63804 2.86069 2.75063 3.95156 2.75063H25.6726C26.7643 2.75063 27.6517 3.63807 27.6517 4.7289V21.2702C27.6517 22.362 26.7643 23.2494 25.6734 23.2494H3.95156C2.86069 23.2494 1.97328 22.362 1.97328 21.2711V4.7289Z" fill="#124F7A" stroke="#124F7A" stroke-width="0.22" stroke-linejoin="round"/>
</svg>
