<svg width="26" height="30" viewBox="0 0 26 30" fill="none" xmlns="http://www.w3.org/2000/svg">
<circle cx="13" cy="14.8571" r="13" fill="#FDC040" fill-opacity="0.35"/>
<path d="M21.7987 26.6014H21.4085V24.9312C21.4085 21.4384 19.6926 18.0918 16.8216 15.9858C16.0078 15.3915 16.0017 14.1815 16.8247 13.5781C19.6926 11.469 21.4086 8.1255 21.4086 4.63277V2.96251H21.7987C22.6064 2.96251 23.2647 2.29813 23.2647 1.48125C23.2647 0.664373 22.6064 0 21.7987 0H5.5539C4.74626 0 4.08789 0.664373 4.08789 1.48125C4.08789 2.29813 4.7462 2.96251 5.5539 2.96251H5.94403V4.63271C5.94403 8.1255 7.65691 11.469 10.5279 13.578C11.3478 14.1784 11.3448 15.3884 10.531 15.9858C7.65997 18.0918 5.94409 21.4383 5.94409 24.9311V26.6013H5.55396C4.74632 26.6013 4.08795 27.2657 4.08795 28.0826C4.08795 28.8994 4.74626 29.5638 5.55396 29.5638H21.7988C22.6064 29.5638 23.2648 28.8994 23.2648 28.0826C23.2648 27.2657 22.6064 26.6014 21.7987 26.6014ZM6.85833 24.9312C6.85833 21.7279 8.43406 18.6587 11.0735 16.7234C12.381 15.7633 12.3902 13.8067 11.0704 12.8405C8.43406 10.9051 6.85833 7.83596 6.85833 4.63277V2.96251H20.4942V4.63271C20.4942 7.83596 18.9185 10.9051 16.2821 12.8404C14.9655 13.8066 14.9685 15.7602 16.2791 16.7234C18.9185 18.6587 20.4942 21.7279 20.4942 24.9311V26.6013H6.85833V24.9312Z" fill="#124F7A"/>
<path d="M17.2495 21.2655C17.0598 21.1095 16.861 20.9673 16.6547 20.8394C15.1141 19.8844 14.1333 18.2437 14.1333 16.4312V13.1289C14.1333 12.5784 14.4726 12.0706 14.9961 11.9001C15.6379 11.6911 16.2284 11.3301 16.7134 10.8365C16.9028 10.6437 17.0791 10.4411 17.2489 10.2341H10.1034C10.2732 10.441 10.4494 10.6437 10.6388 10.8364C11.1239 11.33 11.7143 11.6911 12.3561 11.9001C12.8795 12.0705 13.2189 12.5783 13.2189 13.1288V16.4312C13.2189 18.2437 12.238 19.8844 10.6974 20.8393C10.491 20.9672 10.2923 21.1093 10.1026 21.2654C8.8073 22.3314 8.08057 23.6613 8.08057 25.0665V25.3492L19.2716 25.3493V25.0666C19.2716 23.6615 18.5449 22.3317 17.2495 21.2655Z" fill="#124F7A"/>
</svg>
