<svg width="31" height="32" viewBox="0 0 31 32" fill="none" xmlns="http://www.w3.org/2000/svg">
<path d="M15.4999 2.66669C8.36604 2.66669 2.58325 8.63602 2.58325 16C2.58325 23.364 8.36604 29.3334 15.4999 29.3334C22.6338 29.3334 28.4166 23.364 28.4166 16C28.4166 8.63602 22.6338 2.66669 15.4999 2.66669Z" fill="url(#paint0_linear_49_323)"/>
<path d="M17.2483 19.534H20.5911L21.1162 16.0287H17.2483V14.1127C17.2483 12.6567 17.7094 11.3654 19.0288 11.3654H21.1491V8.30669C20.7764 8.25469 19.9885 8.14136 18.4999 8.14136C15.3908 8.14136 13.5683 9.83602 13.5683 13.6974V16.0294H10.3721V19.5347H13.5677V29.1694C14.2006 29.2667 14.8419 29.3334 15.5 29.3334C16.0948 29.3334 16.6754 29.2774 17.2483 29.1974V19.534Z" fill="white"/>
<defs>
<linearGradient id="paint0_linear_49_323" x1="6.45373" y1="6.66202" x2="26.8581" y2="26.4288" gradientUnits="userSpaceOnUse">
<stop stop-color="#2AA4F4"/>
<stop offset="1" stop-color="#007AD9"/>
</linearGradient>
</defs>
</svg>
