<svg width="22" height="22" viewBox="0 0 22 22" fill="none" xmlns="http://www.w3.org/2000/svg">
<path d="M14.3525 5.0205C13.4382 4.25769 12.4965 3.46637 11.5434 2.53105L11.0001 2L10.4668 2.53179C8.75105 4.22544 7.94039 6.8259 7.5884 8.38603C7.31897 7.97492 7.11905 7.52353 6.99641 7.04942L6.67413 5.82456L5.73701 6.69164C4.09514 8.20901 3.0003 9.71439 3.0003 12.1251C2.98497 13.8639 3.56022 15.558 4.63472 16.9381C5.7092 18.3182 7.2213 19.3054 8.93086 19.7428C9.44595 19.8661 9.97168 19.9414 10.5011 19.9678C10.6666 19.9884 10.8333 19.9991 11.0001 20C11.0877 20 11.1731 19.9925 11.2584 19.9872C13.3339 19.9257 15.3034 19.0705 16.7488 17.6028C18.1942 16.1352 19.0017 14.1708 19 12.1266C19 8.90583 16.8462 7.10568 14.3525 5.0205ZM11.1526 18.4872C11.0763 18.4872 11.0001 18.4946 10.9194 18.4939C10.2336 18.4732 9.58287 18.1909 9.10461 17.7067C8.62635 17.2225 8.35804 16.574 8.35639 15.8986C8.35639 14.9476 8.87448 14.4735 10.047 13.4909C10.3426 13.2434 10.6642 12.9742 11.0024 12.6659C11.2988 12.9306 11.5868 13.1707 11.8527 13.3935C13.0306 14.3775 13.6454 14.9364 13.6454 15.8964C13.6441 16.5598 13.3853 17.1977 12.9219 17.6793C12.4583 18.161 11.8254 18.45 11.1526 18.4872ZM14.9772 17.1587L14.9619 17.1693C15.0987 16.7591 15.1687 16.3303 15.1692 15.8986C15.1692 14.1997 14.0371 13.2532 12.8394 12.2519C12.415 11.8978 11.9769 11.5318 11.5396 11.1012L11.0001 10.571L10.4615 11.1012C9.96778 11.5866 9.48475 11.9916 9.05885 12.3486C7.86421 13.3492 6.83184 14.2141 6.83184 15.8986C6.83347 16.3488 6.9107 16.7956 7.06041 17.221C6.26733 16.6215 5.62575 15.8496 5.18578 14.9656C4.7458 14.0816 4.51934 13.1095 4.52408 12.1251C4.51155 10.8089 5.02901 9.54137 5.96329 8.5998C6.12422 8.92122 6.315 9.2273 6.53319 9.51412C6.69255 9.72582 6.91134 9.88699 7.16261 9.97775C7.41388 10.0685 7.68663 10.0849 7.94725 10.0249C8.21238 9.96681 8.4549 9.83475 8.64581 9.64454C8.83672 9.45433 8.96795 9.21401 9.0238 8.95232C9.34282 7.22842 10.0328 5.59165 11.0474 4.15193C11.8512 4.90199 12.6474 5.56579 13.3658 6.16659C15.7521 8.16176 17.48 9.60338 17.48 12.1296C17.4819 13.1007 17.2571 14.0591 16.823 14.9311C16.3889 15.8031 15.7579 16.5652 14.9772 17.1587Z" fill="#676767"/>
</svg>
