<svg width="152" height="117" viewBox="0 0 152 117" fill="none" xmlns="http://www.w3.org/2000/svg">
<path d="M26.344 65.28V72.612H26.318C24.446 68.3133 22.288 66.0167 19.844 65.722V83.584H22.184V84H11.784V83.584H14.124V65.722C11.6973 66.0167 9.548 68.3133 7.676 72.612H7.65V65.28H26.344ZM42.2964 83.584H43.5964V84H36.0564V83.584H37.0964V75.758C37.0964 74.7873 36.9664 74.094 36.7064 73.678C36.4638 73.262 36.0738 73.054 35.5364 73.054C35.0684 73.054 34.5484 73.184 33.9764 73.444V83.584H35.0164V84H27.4764V83.584H28.7764V68.114L27.2944 66.84L33.9764 64.5V73.08C35.1551 72.0573 36.1258 71.39 36.8884 71.078C37.6511 70.766 38.3358 70.61 38.9424 70.61C40.0344 70.61 40.8664 70.9567 41.4384 71.65C42.0104 72.326 42.2964 73.3227 42.2964 74.64V83.584ZM56.6344 81.634L56.6604 81.66C56.1057 82.492 55.3864 83.1333 54.5024 83.584C53.6184 84.0347 52.5871 84.26 51.4084 84.26C50.5071 84.26 49.6491 84.104 48.8344 83.792C48.0197 83.48 47.3004 83.038 46.6764 82.466C46.0697 81.894 45.5931 81.2007 45.2464 80.386C44.8997 79.554 44.7264 78.6527 44.7264 77.682C44.7264 76.746 44.8824 75.8533 45.1944 75.004C45.5064 74.1547 45.9484 73.418 46.5204 72.794C47.1097 72.1527 47.8204 71.65 48.6524 71.286C49.5017 70.922 50.4291 70.74 51.4344 70.74C52.6477 70.74 53.6357 71.0607 54.3984 71.702C55.1784 72.326 55.5684 73.1147 55.5684 74.068C55.5684 75.16 55.1524 76.1653 54.3204 77.084C53.5057 77.9853 52.3271 78.722 50.7844 79.294C51.5297 80.022 52.3531 80.6113 53.2544 81.062C54.1731 81.4953 55.0484 81.712 55.8804 81.712C56.1577 81.712 56.4091 81.686 56.6344 81.634ZM49.0164 71.65C48.6871 71.65 48.4271 71.7887 48.2364 72.066C48.0457 72.3433 47.9504 72.716 47.9504 73.184C47.9504 74.2067 48.1931 75.2467 48.6784 76.304C49.1811 77.3613 49.8311 78.306 50.6284 79.138C51.3044 78.2713 51.6424 77.1707 51.6424 75.836C51.6424 75.056 51.4777 74.3367 51.1484 73.678C50.8364 73.002 50.4897 72.4993 50.1084 72.17C49.7271 71.8233 49.3631 71.65 49.0164 71.65ZM78.9341 65.28V71.286H78.9081C77.5387 69.2753 76.2734 67.8453 75.1121 66.996C73.9507 66.1293 72.6767 65.696 71.2901 65.696H71.1601V74.12C71.5067 74.0853 71.9487 73.9553 72.4861 73.73C73.0407 73.4873 73.6127 73.1147 74.2021 72.612C74.8087 72.1093 75.2681 71.598 75.5801 71.078H75.6061V77.552H75.5801C75.3894 77.2227 75.0687 76.8413 74.6181 76.408C74.1847 75.9573 73.6301 75.55 72.9541 75.186C72.2954 74.8047 71.6974 74.588 71.1601 74.536V83.584H74.1501V84H63.3601V83.584H65.4401V66.684L63.1261 65.28H78.9341ZM90.2177 83.584H91.5177V84H85.0177V82.518C83.6483 83.6793 82.305 84.26 80.9877 84.26C80.589 84.26 80.1643 84.182 79.7137 84.026C79.2803 83.8873 78.9077 83.61 78.5957 83.194C78.301 82.7607 78.1537 82.2493 78.1537 81.66C78.1537 80.4813 78.7517 79.5107 79.9477 78.748C81.161 77.968 82.851 77.4567 85.0177 77.214C85.0177 75.81 84.749 74.744 84.2117 74.016C83.6743 73.288 82.903 72.924 81.8977 72.924C81.3083 72.924 80.7883 73.0107 80.3377 73.184C79.887 73.3573 79.4537 73.6 79.0377 73.912L78.9077 73.782C79.809 72.7767 80.771 72.0227 81.7937 71.52C82.8163 71 83.9517 70.74 85.1997 70.74C86.8463 70.74 88.0943 71.2167 88.9437 72.17C89.793 73.106 90.2177 74.51 90.2177 76.382V83.584ZM84.4197 82.232L85.0177 82.154V77.552C83.579 77.968 82.8597 78.904 82.8597 80.36C82.8597 80.9667 82.9897 81.4347 83.2497 81.764C83.527 82.076 83.917 82.232 84.4197 82.232ZM97.3904 84.26C95.7264 84.26 94.1404 84.0347 92.6324 83.584L93.4384 79.346H93.4644L96.6884 83.662C97.0004 83.7487 97.2864 83.792 97.5464 83.792C98.1184 83.792 98.5778 83.6447 98.9244 83.35C99.2884 83.0553 99.4704 82.648 99.4704 82.128C99.4704 81.8507 99.3838 81.5733 99.2104 81.296C99.0371 81.0187 98.6038 80.698 97.9104 80.334L96.1944 79.424C95.1024 78.852 94.2964 78.228 93.7764 77.552C93.2564 76.8587 92.9964 76.0353 92.9964 75.082C92.9964 73.7647 93.4991 72.716 94.5044 71.936C95.5098 71.1387 96.8704 70.74 98.5864 70.74C100.094 70.74 101.533 70.9913 102.902 71.494L101.888 75.602H101.862L98.8464 71.312C98.7251 71.26 98.5778 71.234 98.4044 71.234C97.8671 71.234 97.4424 71.3727 97.1304 71.65C96.8358 71.91 96.6884 72.2307 96.6884 72.612C96.6884 73.08 96.8271 73.496 97.1044 73.86C97.3991 74.224 97.9104 74.5967 98.6384 74.978L100.588 76.018C101.472 76.486 102.148 77.0493 102.616 77.708C103.084 78.3667 103.318 79.0947 103.318 79.892C103.318 80.5333 103.162 81.1313 102.85 81.686C102.538 82.2233 102.105 82.6913 101.55 83.09C101.013 83.4713 100.38 83.766 99.6524 83.974C98.9244 84.1647 98.1704 84.26 97.3904 84.26ZM115.205 81.582L115.231 81.608C114.728 82.4053 114.035 83.0467 113.151 83.532C112.284 84.0173 111.288 84.26 110.161 84.26C108.653 84.26 107.552 83.8267 106.859 82.96C106.183 82.0933 105.845 80.7933 105.845 79.06V71.676H103.843V71.65L111.045 65.982V71.26H114.711V71.676H111.045V77.734C111.045 79.242 111.244 80.308 111.643 80.932C112.042 81.556 112.718 81.868 113.671 81.868C114.226 81.868 114.737 81.7727 115.205 81.582ZM127.55 81.634L127.576 81.66C127.022 82.492 126.302 83.1333 125.418 83.584C124.534 84.0347 123.503 84.26 122.324 84.26C121.423 84.26 120.565 84.104 119.75 83.792C118.936 83.48 118.216 83.038 117.592 82.466C116.986 81.894 116.509 81.2007 116.162 80.386C115.816 79.554 115.642 78.6527 115.642 77.682C115.642 76.746 115.798 75.8533 116.11 75.004C116.422 74.1547 116.864 73.418 117.436 72.794C118.026 72.1527 118.736 71.65 119.568 71.286C120.418 70.922 121.345 70.74 122.35 70.74C123.564 70.74 124.552 71.0607 125.314 71.702C126.094 72.326 126.484 73.1147 126.484 74.068C126.484 75.16 126.068 76.1653 125.236 77.084C124.422 77.9853 123.243 78.722 121.7 79.294C122.446 80.022 123.269 80.6113 124.17 81.062C125.089 81.4953 125.964 81.712 126.796 81.712C127.074 81.712 127.325 81.686 127.55 81.634ZM119.932 71.65C119.603 71.65 119.343 71.7887 119.152 72.066C118.962 72.3433 118.866 72.716 118.866 73.184C118.866 74.2067 119.109 75.2467 119.594 76.304C120.097 77.3613 120.747 78.306 121.544 79.138C122.22 78.2713 122.558 77.1707 122.558 75.836C122.558 75.056 122.394 74.3367 122.064 73.678C121.752 73.002 121.406 72.4993 121.024 72.17C120.643 71.8233 120.279 71.65 119.932 71.65ZM133.242 84.26C131.578 84.26 129.992 84.0347 128.484 83.584L129.29 79.346H129.316L132.54 83.662C132.852 83.7487 133.138 83.792 133.398 83.792C133.97 83.792 134.429 83.6447 134.776 83.35C135.14 83.0553 135.322 82.648 135.322 82.128C135.322 81.8507 135.235 81.5733 135.062 81.296C134.889 81.0187 134.455 80.698 133.762 80.334L132.046 79.424C130.954 78.852 130.148 78.228 129.628 77.552C129.108 76.8587 128.848 76.0353 128.848 75.082C128.848 73.7647 129.351 72.716 130.356 71.936C131.361 71.1387 132.722 70.74 134.438 70.74C135.946 70.74 137.385 70.9913 138.754 71.494L137.74 75.602H137.714L134.698 71.312C134.577 71.26 134.429 71.234 134.256 71.234C133.719 71.234 133.294 71.3727 132.982 71.65C132.687 71.91 132.54 72.2307 132.54 72.612C132.54 73.08 132.679 73.496 132.956 73.86C133.251 74.224 133.762 74.5967 134.49 74.978L136.44 76.018C137.324 76.486 138 77.0493 138.468 77.708C138.936 78.3667 139.17 79.0947 139.17 79.892C139.17 80.5333 139.014 81.1313 138.702 81.686C138.39 82.2233 137.957 82.6913 137.402 83.09C136.865 83.4713 136.232 83.766 135.504 83.974C134.776 84.1647 134.022 84.26 133.242 84.26ZM151.056 81.582L151.082 81.608C150.58 82.4053 149.886 83.0467 149.002 83.532C148.136 84.0173 147.139 84.26 146.012 84.26C144.504 84.26 143.404 83.8267 142.71 82.96C142.034 82.0933 141.696 80.7933 141.696 79.06V71.676H139.694V71.65L146.896 65.982V71.26H150.562V71.676H146.896V77.734C146.896 79.242 147.096 80.308 147.494 80.932C147.893 81.556 148.569 81.868 149.522 81.868C150.077 81.868 150.588 81.7727 151.056 81.582Z" fill="#197CC1"/>
<path d="M17.0761 56.358C15.4814 56.358 14.0168 56.1066 12.6821 55.604C11.3648 55.1013 10.2381 54.3993 9.30211 53.498C8.38344 52.5793 7.67278 51.496 7.17011 50.248C6.68478 49 6.44211 47.6653 6.44211 46.244C6.44211 44.9266 6.65878 43.6786 7.09211 42.5C7.54278 41.3213 8.18411 40.29 9.01611 39.406C9.84811 38.522 10.8708 37.8373 12.0841 37.352C13.3148 36.8493 14.6668 36.598 16.1401 36.598C18.6708 36.598 20.9501 37.1266 22.9781 38.184L20.9501 45.776H20.8981C17.8301 40.42 15.2041 37.742 13.0201 37.742C12.3614 37.742 11.8154 38.0366 11.3821 38.626C10.9488 39.198 10.7321 40.0213 10.7321 41.096C10.7321 42.2053 10.9401 43.4446 11.3561 44.814C11.7721 46.166 12.3441 47.5266 13.0721 48.896C13.8001 50.2653 14.6581 51.5566 15.6461 52.77C16.6341 53.966 17.6654 54.98 18.7401 55.812V49.234L16.4001 47.31H24.2001V53.966C23.2641 54.7113 22.1808 55.3006 20.9501 55.734C19.7194 56.15 18.4281 56.358 17.0761 56.358ZM36.8542 42.552C37.0275 42.552 37.1922 42.578 37.3482 42.63V49.52H37.3222C36.1955 48.272 35.2422 47.3533 34.4622 46.764C33.6995 46.1746 33.0409 45.9233 32.4862 46.01V55.422H34.4362V55.838H25.9862V55.422H27.2862V45.984L25.8042 44.71L32.4862 42.474V45.724C33.2142 44.7706 33.9769 44.008 34.7742 43.436C35.5715 42.8466 36.2649 42.552 36.8542 42.552ZM46.1212 56.098C45.2025 56.098 44.3012 55.942 43.4172 55.63C42.5505 55.3006 41.7792 54.8326 41.1032 54.226C40.4445 53.6193 39.9158 52.8913 39.5172 52.042C39.1358 51.1926 38.9452 50.2653 38.9452 49.26C38.9452 48.3586 39.1185 47.5006 39.4652 46.686C39.8118 45.854 40.3058 45.1346 40.9472 44.528C41.5885 43.9213 42.3512 43.4446 43.2352 43.098C44.1192 42.7513 45.0725 42.578 46.0952 42.578C47.1525 42.578 48.1318 42.734 49.0332 43.046C49.9518 43.358 50.7405 43.8086 51.3992 44.398C52.0578 44.9873 52.5692 45.698 52.9332 46.53C53.2972 47.362 53.4792 48.272 53.4792 49.26C53.4792 50.2133 53.3232 51.106 53.0112 51.938C52.6992 52.77 52.2312 53.498 51.6072 54.122C51.0005 54.746 50.2292 55.2313 49.2932 55.578C48.3572 55.9246 47.2998 56.098 46.1212 56.098ZM49.0332 55.162C49.7438 55.162 50.0992 54.72 50.0992 53.836C50.0992 53.2986 49.8565 52.4666 49.3712 51.34C48.9032 50.196 48.3052 49.0173 47.5772 47.804C46.8665 46.5906 46.1298 45.5766 45.3672 44.762C44.6218 43.93 43.9805 43.514 43.4432 43.514C43.1138 43.514 42.8538 43.6266 42.6632 43.852C42.4898 44.0773 42.4032 44.3893 42.4032 44.788C42.4032 45.3946 42.6458 46.2786 43.1312 47.44C43.6165 48.6013 44.2232 49.78 44.9512 50.976C45.6792 52.1546 46.4158 53.1513 47.1612 53.966C47.9065 54.7633 48.5305 55.162 49.0332 55.162ZM61.8227 56.098C60.9561 56.098 60.1241 55.9506 59.3267 55.656C58.5294 55.344 57.8274 54.902 57.2207 54.33C56.6141 53.758 56.1374 53.0646 55.7907 52.25C55.4614 51.4353 55.2967 50.5513 55.2967 49.598C55.2967 48.662 55.4614 47.7693 55.7907 46.92C56.1374 46.0533 56.6227 45.2993 57.2467 44.658C57.8881 43.9993 58.6507 43.488 59.5347 43.124C60.4361 42.76 61.4154 42.578 62.4727 42.578C63.9461 42.578 65.4367 42.8553 66.9447 43.41L65.9307 50.664H65.9047C64.7087 48.4106 63.5647 46.6686 62.4727 45.438C61.3807 44.2073 60.4447 43.592 59.6647 43.592C59.3354 43.592 59.0754 43.7133 58.8847 43.956C58.7114 44.1986 58.6247 44.5453 58.6247 44.996C58.6247 46.0013 58.8501 47.024 59.3007 48.064C59.7687 49.0866 60.3841 50.0226 61.1467 50.872C61.9094 51.704 62.7501 52.3713 63.6687 52.874C64.6047 53.3593 65.5147 53.602 66.3987 53.602C66.7107 53.602 66.9707 53.5673 67.1787 53.498L67.2047 53.524C66.6327 54.3733 65.8787 55.0146 64.9427 55.448C64.0241 55.8813 62.9841 56.098 61.8227 56.098ZM80.6871 53.472L80.7131 53.498C80.1585 54.33 79.4391 54.9713 78.5551 55.422C77.6711 55.8726 76.6398 56.098 75.4611 56.098C74.5598 56.098 73.7018 55.942 72.8871 55.63C72.0725 55.318 71.3531 54.876 70.7291 54.304C70.1225 53.732 69.6458 53.0386 69.2991 52.224C68.9525 51.392 68.7791 50.4906 68.7791 49.52C68.7791 48.584 68.9351 47.6913 69.2471 46.842C69.5591 45.9926 70.0011 45.256 70.5731 44.632C71.1625 43.9906 71.8731 43.488 72.7051 43.124C73.5545 42.76 74.4818 42.578 75.4871 42.578C76.7005 42.578 77.6885 42.8986 78.4511 43.54C79.2311 44.164 79.6211 44.9526 79.6211 45.906C79.6211 46.998 79.2051 48.0033 78.3731 48.922C77.5585 49.8233 76.3798 50.56 74.8371 51.132C75.5825 51.86 76.4058 52.4493 77.3071 52.9C78.2258 53.3333 79.1011 53.55 79.9331 53.55C80.2105 53.55 80.4618 53.524 80.6871 53.472ZM73.0691 43.488C72.7398 43.488 72.4798 43.6266 72.2891 43.904C72.0985 44.1813 72.0031 44.554 72.0031 45.022C72.0031 46.0446 72.2458 47.0846 72.7311 48.142C73.2338 49.1993 73.8838 50.144 74.6811 50.976C75.3571 50.1093 75.6951 49.0086 75.6951 47.674C75.6951 46.894 75.5305 46.1746 75.2011 45.516C74.8891 44.84 74.5425 44.3373 74.1611 44.008C73.7798 43.6613 73.4158 43.488 73.0691 43.488ZM92.3327 42.552C92.506 42.552 92.6707 42.578 92.8267 42.63V49.52H92.8007C91.674 48.272 90.7207 47.3533 89.9407 46.764C89.178 46.1746 88.5194 45.9233 87.9647 46.01V55.422H89.9147V55.838H81.4647V55.422H82.7647V45.984L81.2827 44.71L87.9647 42.474V45.724C88.6927 44.7706 89.4554 44.008 90.2527 43.436C91.05 42.8466 91.7434 42.552 92.3327 42.552ZM97.9077 41.876C97.0063 41.876 96.2957 41.616 95.7757 41.096C95.273 40.5586 95.0217 39.848 95.0217 38.964C95.0217 38.0973 95.273 37.404 95.7757 36.884C96.2957 36.3466 97.0063 36.078 97.9077 36.078C98.5663 36.078 99.1297 36.234 99.5977 36.546C100.066 36.8406 100.378 37.222 100.534 37.69C100.707 38.1406 100.794 38.5653 100.794 38.964C100.794 39.848 100.534 40.5586 100.014 41.096C99.511 41.616 98.809 41.876 97.9077 41.876ZM94.0077 55.838V55.422H95.3077V45.932L93.8257 44.658L100.508 42.318V55.422H101.808V55.838H94.0077ZM115.091 53.472L115.117 53.498C114.563 54.33 113.843 54.9713 112.959 55.422C112.075 55.8726 111.044 56.098 109.865 56.098C108.964 56.098 108.106 55.942 107.291 55.63C106.477 55.318 105.757 54.876 105.133 54.304C104.527 53.732 104.05 53.0386 103.703 52.224C103.357 51.392 103.183 50.4906 103.183 49.52C103.183 48.584 103.339 47.6913 103.651 46.842C103.963 45.9926 104.405 45.256 104.977 44.632C105.567 43.9906 106.277 43.488 107.109 43.124C107.959 42.76 108.886 42.578 109.891 42.578C111.105 42.578 112.093 42.8986 112.855 43.54C113.635 44.164 114.025 44.9526 114.025 45.906C114.025 46.998 113.609 48.0033 112.777 48.922C111.963 49.8233 110.784 50.56 109.241 51.132C109.987 51.86 110.81 52.4493 111.711 52.9C112.63 53.3333 113.505 53.55 114.337 53.55C114.615 53.55 114.866 53.524 115.091 53.472ZM107.473 43.488C107.144 43.488 106.884 43.6266 106.693 43.904C106.503 44.1813 106.407 44.554 106.407 45.022C106.407 46.0446 106.65 47.0846 107.135 48.142C107.638 49.1993 108.288 50.144 109.085 50.976C109.761 50.1093 110.099 49.0086 110.099 47.674C110.099 46.894 109.935 46.1746 109.605 45.516C109.293 44.84 108.947 44.3373 108.565 44.008C108.184 43.6613 107.82 43.488 107.473 43.488ZM120.783 56.098C119.119 56.098 117.533 55.8726 116.025 55.422L116.831 51.184H116.857L120.081 55.5C120.393 55.5866 120.679 55.63 120.939 55.63C121.511 55.63 121.97 55.4826 122.317 55.188C122.681 54.8933 122.863 54.486 122.863 53.966C122.863 53.6886 122.776 53.4113 122.603 53.134C122.43 52.8566 121.996 52.536 121.303 52.172L119.587 51.262C118.495 50.69 117.689 50.066 117.169 49.39C116.649 48.6966 116.389 47.8733 116.389 46.92C116.389 45.6026 116.892 44.554 117.897 43.774C118.902 42.9766 120.263 42.578 121.979 42.578C123.487 42.578 124.926 42.8293 126.295 43.332L125.281 47.44H125.255L122.239 43.15C122.118 43.098 121.97 43.072 121.797 43.072C121.26 43.072 120.835 43.2106 120.523 43.488C120.228 43.748 120.081 44.0686 120.081 44.45C120.081 44.918 120.22 45.334 120.497 45.698C120.792 46.062 121.303 46.4346 122.031 46.816L123.981 47.856C124.865 48.324 125.541 48.8873 126.009 49.546C126.477 50.2046 126.711 50.9326 126.711 51.73C126.711 52.3713 126.555 52.9693 126.243 53.524C125.931 54.0613 125.498 54.5293 124.943 54.928C124.406 55.3093 123.773 55.604 123.045 55.812C122.317 56.0026 121.563 56.098 120.783 56.098Z" fill="#FBBD1E"/>
<path d="M17.7253 91.2649C19.4066 91.2649 20.9233 91.4642 22.2753 91.8629C23.6273 92.2615 24.7626 92.8509 25.6813 93.6309C26.6173 94.3935 27.3279 95.3469 27.8133 96.4909C28.2986 97.6349 28.5413 98.9349 28.5413 100.391C28.5413 101.899 28.2813 103.26 27.7613 104.473C27.2413 105.669 26.4959 106.674 25.5253 107.489C24.5546 108.304 23.3759 108.928 21.9893 109.361C20.6026 109.777 19.0686 109.985 17.3873 109.985H8.78126V109.569H10.8613V92.6689L8.54726 91.2649H17.7253ZM16.9973 109.569C18.6786 109.569 20.0219 108.754 21.0273 107.125C22.0499 105.496 22.5613 103.26 22.5613 100.417C22.5613 97.5915 22.0933 95.4335 21.1573 93.9429C20.2386 92.4349 18.9299 91.6809 17.2313 91.6809H16.5813V109.569H16.9973ZM42.148 107.619L42.174 107.645C41.6193 108.477 40.9 109.118 40.016 109.569C39.132 110.02 38.1007 110.245 36.922 110.245C36.0207 110.245 35.1627 110.089 34.348 109.777C33.5333 109.465 32.814 109.023 32.19 108.451C31.5833 107.879 31.1067 107.186 30.76 106.371C30.4133 105.539 30.24 104.638 30.24 103.667C30.24 102.731 30.396 101.838 30.708 100.989C31.02 100.14 31.462 99.4029 32.034 98.7789C32.6233 98.1375 33.334 97.6349 34.166 97.2709C35.0153 96.9069 35.9427 96.7249 36.948 96.7249C38.1613 96.7249 39.1493 97.0455 39.912 97.6869C40.692 98.3109 41.082 99.0995 41.082 100.053C41.082 101.145 40.666 102.15 39.834 103.069C39.0193 103.97 37.8407 104.707 36.298 105.279C37.0433 106.007 37.8667 106.596 38.768 107.047C39.6867 107.48 40.562 107.697 41.394 107.697C41.6713 107.697 41.9227 107.671 42.148 107.619ZM34.53 97.6349C34.2007 97.6349 33.9407 97.7735 33.75 98.0509C33.5593 98.3282 33.464 98.7009 33.464 99.1689C33.464 100.192 33.7067 101.232 34.192 102.289C34.6947 103.346 35.3447 104.291 36.142 105.123C36.818 104.256 37.156 103.156 37.156 101.821C37.156 101.041 36.9913 100.322 36.662 99.6629C36.35 98.9869 36.0033 98.4842 35.622 98.1549C35.2407 97.8082 34.8767 97.6349 34.53 97.6349ZM42.9256 109.985V109.569H44.2256V94.0989L42.7436 92.8249L49.4256 90.4849V109.569H50.7256V109.985H42.9256ZM55.5853 96.0229C54.684 96.0229 53.9733 95.7629 53.4533 95.2429C52.9507 94.7055 52.6993 93.9949 52.6993 93.1109C52.6993 92.2442 52.9507 91.5509 53.4533 91.0309C53.9733 90.4935 54.684 90.2249 55.5853 90.2249C56.244 90.2249 56.8073 90.3809 57.2753 90.6929C57.7433 90.9875 58.0553 91.3689 58.2113 91.8369C58.3847 92.2875 58.4713 92.7122 58.4713 93.1109C58.4713 93.9949 58.2113 94.7055 57.6913 95.2429C57.1887 95.7629 56.4867 96.0229 55.5853 96.0229ZM51.6853 109.985V109.569H52.9853V100.079L51.5033 98.8049L58.1853 96.4649V109.569H59.4853V109.985H51.6853ZM70.1522 97.2449H75.0402L73.2982 98.5189L67.5002 110.375H66.8242L61.3122 98.5189L59.5702 97.2449H68.6442L66.9022 98.5189L69.4502 105.513L71.9722 98.5189L70.1522 97.2449ZM86.15 107.619L86.176 107.645C85.6213 108.477 84.902 109.118 84.018 109.569C83.134 110.02 82.1026 110.245 80.924 110.245C80.0226 110.245 79.1646 110.089 78.35 109.777C77.5353 109.465 76.816 109.023 76.192 108.451C75.5853 107.879 75.1086 107.186 74.762 106.371C74.4153 105.539 74.242 104.638 74.242 103.667C74.242 102.731 74.398 101.838 74.71 100.989C75.022 100.14 75.464 99.4029 76.036 98.7789C76.6253 98.1375 77.336 97.6349 78.168 97.2709C79.0173 96.9069 79.9446 96.7249 80.95 96.7249C82.1633 96.7249 83.1513 97.0455 83.914 97.6869C84.694 98.3109 85.084 99.0995 85.084 100.053C85.084 101.145 84.668 102.15 83.836 103.069C83.0213 103.97 81.8426 104.707 80.3 105.279C81.0453 106.007 81.8686 106.596 82.77 107.047C83.6886 107.48 84.564 107.697 85.396 107.697C85.6733 107.697 85.9246 107.671 86.15 107.619ZM78.532 97.6349C78.2026 97.6349 77.9426 97.7735 77.752 98.0509C77.5613 98.3282 77.466 98.7009 77.466 99.1689C77.466 100.192 77.7086 101.232 78.194 102.289C78.6966 103.346 79.3466 104.291 80.144 105.123C80.82 104.256 81.158 103.156 81.158 101.821C81.158 101.041 80.9933 100.322 80.664 99.6629C80.352 98.9869 80.0053 98.4842 79.624 98.1549C79.2426 97.8082 78.8786 97.6349 78.532 97.6349ZM97.7955 96.6989C97.9688 96.6989 98.1335 96.7249 98.2895 96.7769V103.667H98.2635C97.1368 102.419 96.1835 101.5 95.4035 100.911C94.6408 100.322 93.9822 100.07 93.4275 100.157V109.569H95.3775V109.985H86.9275V109.569H88.2275V100.131L86.7455 98.8569L93.4275 96.6209V99.8709C94.1555 98.9175 94.9182 98.1549 95.7155 97.5829C96.5128 96.9935 97.2062 96.6989 97.7955 96.6989ZM109.688 97.2449H114.732L112.99 98.5189L107.348 109.985L104.254 116.771L99.3145 113.313L106.88 109.855L100.744 98.5189L98.9765 97.2449H108.102L106.36 98.5189L109.246 105.357L111.69 98.5189L109.688 97.2449Z" fill="#197CC1"/>
<path d="M22.9478 12.28V18.286H22.9218C21.5525 16.2753 20.2872 14.8453 19.1258 13.996C17.9645 13.1293 16.6905 12.696 15.3038 12.696H15.1738V21.12C15.5205 21.0853 15.9625 20.9553 16.4998 20.73C17.0545 20.4873 17.6265 20.1147 18.2158 19.612C18.8225 19.1093 19.2818 18.598 19.5938 18.078H19.6198V24.552H19.5938C19.4032 24.2227 19.0825 23.8413 18.6318 23.408C18.1985 22.9573 17.6438 22.55 16.9678 22.186C16.3092 21.8047 15.7112 21.588 15.1738 21.536V30.584H18.1638V31H7.37383V30.584H9.45383V13.684L7.13983 12.28H22.9478ZM34.1804 17.714C34.3538 17.714 34.5184 17.74 34.6744 17.792V24.682H34.6484C33.5218 23.434 32.5684 22.5153 31.7884 21.926C31.0258 21.3367 30.3671 21.0853 29.8124 21.172V30.584H31.7624V31H23.3124V30.584H24.6124V21.146L23.1304 19.872L29.8124 17.636V20.886C30.5404 19.9327 31.3031 19.17 32.1004 18.598C32.8978 18.0087 33.5911 17.714 34.1804 17.714ZM48.1794 28.634L48.2054 28.66C47.6507 29.492 46.9314 30.1333 46.0474 30.584C45.1634 31.0347 44.1321 31.26 42.9534 31.26C42.0521 31.26 41.1941 31.104 40.3794 30.792C39.5647 30.48 38.8454 30.038 38.2214 29.466C37.6147 28.894 37.1381 28.2007 36.7914 27.386C36.4447 26.554 36.2714 25.6527 36.2714 24.682C36.2714 23.746 36.4274 22.8533 36.7394 22.004C37.0514 21.1547 37.4934 20.418 38.0654 19.794C38.6547 19.1527 39.3654 18.65 40.1974 18.286C41.0467 17.922 41.9741 17.74 42.9794 17.74C44.1927 17.74 45.1807 18.0607 45.9434 18.702C46.7234 19.326 47.1134 20.1147 47.1134 21.068C47.1134 22.16 46.6974 23.1653 45.8654 24.084C45.0507 24.9853 43.8721 25.722 42.3294 26.294C43.0747 27.022 43.8981 27.6113 44.7994 28.062C45.7181 28.4953 46.5934 28.712 47.4254 28.712C47.7027 28.712 47.9541 28.686 48.1794 28.634ZM40.5614 18.65C40.2321 18.65 39.9721 18.7887 39.7814 19.066C39.5907 19.3433 39.4954 19.716 39.4954 20.184C39.4954 21.2067 39.7381 22.2467 40.2234 23.304C40.7261 24.3613 41.3761 25.306 42.1734 26.138C42.8494 25.2713 43.1874 24.1707 43.1874 22.836C43.1874 22.056 43.0227 21.3367 42.6934 20.678C42.3814 20.002 42.0347 19.4993 41.6534 19.17C41.2721 18.8233 40.9081 18.65 40.5614 18.65ZM53.871 31.26C52.207 31.26 50.621 31.0347 49.113 30.584L49.919 26.346H49.945L53.169 30.662C53.481 30.7487 53.767 30.792 54.027 30.792C54.599 30.792 55.0583 30.6447 55.405 30.35C55.769 30.0553 55.951 29.648 55.951 29.128C55.951 28.8507 55.8643 28.5733 55.691 28.296C55.5176 28.0187 55.0843 27.698 54.391 27.334L52.675 26.424C51.583 25.852 50.777 25.228 50.257 24.552C49.737 23.8587 49.477 23.0353 49.477 22.082C49.477 20.7647 49.9796 19.716 50.985 18.936C51.9903 18.1387 53.351 17.74 55.067 17.74C56.575 17.74 58.0136 17.9913 59.383 18.494L58.369 22.602H58.343L55.327 18.312C55.2056 18.26 55.0583 18.234 54.885 18.234C54.3476 18.234 53.923 18.3727 53.611 18.65C53.3163 18.91 53.169 19.2307 53.169 19.612C53.169 20.08 53.3076 20.496 53.585 20.86C53.8796 21.224 54.391 21.5967 55.119 21.978L57.069 23.018C57.953 23.486 58.629 24.0493 59.097 24.708C59.565 25.3667 59.799 26.0947 59.799 26.892C59.799 27.5333 59.643 28.1313 59.331 28.686C59.019 29.2233 58.5856 29.6913 58.031 30.09C57.4936 30.4713 56.861 30.766 56.133 30.974C55.405 31.1647 54.651 31.26 53.871 31.26ZM75.5074 30.584H76.8074V31H69.2674V30.584H70.3074V22.758C70.3074 21.7873 70.1774 21.094 69.9174 20.678C69.6748 20.262 69.2848 20.054 68.7474 20.054C68.2794 20.054 67.7594 20.184 67.1874 20.444V30.584H68.2274V31H60.6874V30.584H61.9874V15.114L60.5054 13.84L67.1874 11.5V20.08C68.3661 19.0573 69.3368 18.39 70.0994 18.078C70.8621 17.766 71.5468 17.61 72.1534 17.61C73.2454 17.61 74.0774 17.9567 74.6494 18.65C75.2214 19.326 75.5074 20.3227 75.5074 21.64V30.584Z" fill="#197CC1"/>
</svg>
