<svg width="46" height="58" viewBox="0 0 46 58" fill="none" xmlns="http://www.w3.org/2000/svg">
<circle cx="21.5" cy="32.5" r="12.5" fill="#FDC040" fill-opacity="0.35"/>
<path d="M28.3673 6.13831C26.5972 5.17464 25.3051 3.20256 24.9413 0.82399C24.5775 3.20256 23.2854 5.17464 21.5154 6.13831C21.171 6.32586 20.313 6.61465 20.313 6.61465C20.313 6.61465 21.1704 6.90344 21.5154 7.09099C23.286 8.05545 24.5775 10.0267 24.9413 12.4053C25.3051 10.0267 26.5972 8.05466 28.3673 7.09099C28.7116 6.90344 29.5697 6.61465 29.5697 6.61465C29.5697 6.61465 28.7123 6.32586 28.3673 6.13831Z" fill="#FDC040"/>
<path d="M25.0906 12.5566C24.7906 12.5566 24.5328 12.29 24.4768 11.9213C24.1731 9.93922 23.0937 8.2663 21.5892 7.44697C21.382 7.33375 20.8325 7.13339 20.5354 7.03284C20.2621 6.94196 20.0722 6.63211 20.0722 6.27831C20.0722 5.9245 20.2621 5.61465 20.5348 5.52303C20.8325 5.42248 21.382 5.22211 21.5886 5.1089C23.0937 4.28957 24.1731 2.61664 24.4762 0.634609C24.5328 0.266655 24.7906 0 25.0906 0C25.3907 0 25.6485 0.266655 25.7045 0.635354C26.0081 2.61739 27.0875 4.29031 28.592 5.10964C28.7986 5.22211 29.3482 5.42322 29.6459 5.52378C29.9185 5.61539 30.1085 5.92525 30.1085 6.27905C30.1085 6.63285 29.9185 6.94271 29.6459 7.03433C29.3482 7.13488 28.7986 7.33524 28.592 7.44846C27.0875 8.26779 26.0075 9.94071 25.7045 11.9227C25.6479 12.29 25.3907 12.5566 25.0906 12.5566ZM22.5275 6.27831C23.6284 7.009 24.5167 8.12255 25.0906 9.46178C25.6646 8.12255 26.5529 7.009 27.6537 6.27831C26.5529 5.54761 25.6646 4.43407 25.0906 3.09483C24.5167 4.43407 23.6284 5.54761 22.5275 6.27831Z" fill="#020203"/>
<path d="M44.7596 45.731C43.5795 45.0885 42.7181 43.7737 42.4755 42.1879C42.233 43.7737 41.3715 45.0885 40.1914 45.731C39.9618 45.856 39.3898 46.0485 39.3898 46.0485C39.3898 46.0485 39.9614 46.2411 40.1914 46.3661C41.372 47.0091 42.233 48.3234 42.4755 49.9092C42.7181 48.3234 43.5795 47.0086 44.7596 46.3661C44.9892 46.2411 45.5613 46.0485 45.5613 46.0485C45.5613 46.0485 44.9896 45.856 44.7596 45.731Z" fill="#FDC040"/>
<path d="M42.4756 50.4586C42.2648 50.4586 42.0837 50.2713 42.0444 50.0123C41.8311 48.6201 41.073 47.445 40.0162 46.8695C39.8707 46.7899 39.4847 46.6492 39.276 46.5786C39.0841 46.5147 38.9507 46.2971 38.9507 46.0486C38.9507 45.8001 39.0841 45.5824 39.2756 45.5181C39.4847 45.4474 39.8707 45.3067 40.0158 45.2272C41.073 44.6516 41.8311 43.4765 42.044 42.0843C42.0837 41.8259 42.2648 41.6385 42.4756 41.6385C42.6863 41.6385 42.8674 41.8259 42.9067 42.0848C43.12 43.4771 43.8781 44.6522 44.9349 45.2277C45.08 45.3067 45.466 45.4479 45.6751 45.5186C45.8666 45.5829 46 45.8006 46 46.0491C46 46.2976 45.8666 46.5153 45.6751 46.5796C45.466 46.6503 45.08 46.791 44.9349 46.8705C43.8781 47.446 43.1196 48.6211 42.9067 50.0134C42.867 50.2713 42.6863 50.4586 42.4756 50.4586ZM40.6753 46.0486C41.4485 46.5618 42.0724 47.344 42.4756 48.2847C42.8787 47.344 43.5026 46.5618 44.2758 46.0486C43.5026 45.5353 42.8787 44.7531 42.4756 43.8124C42.0724 44.7531 41.4485 45.5353 40.6753 46.0486Z" fill="#020203"/>
<path d="M5.80896 53.2724C4.62885 52.6299 3.7674 51.3151 3.52485 49.7293C3.28231 51.3151 2.42085 52.6299 1.24074 53.2724C1.01116 53.3974 0.439087 53.59 0.439087 53.59C0.439087 53.59 1.01074 53.7825 1.24074 53.9075C2.42127 54.5506 3.28231 55.8648 3.52485 57.4506C3.7674 55.8648 4.62885 54.55 5.80896 53.9075C6.03855 53.7825 6.61062 53.59 6.61062 53.59C6.61062 53.59 6.03896 53.3974 5.80896 53.2724Z" fill="#FDC040"/>
<path d="M3.52486 58C3.31409 58 3.13302 57.8127 3.09371 57.5537C2.88044 56.1615 2.12227 54.9864 1.06553 54.4109C0.920001 54.3314 0.534019 54.1906 0.325346 54.12C0.1334 54.0562 0 53.8385 0 53.59C0 53.3415 0.1334 53.1238 0.324928 53.0595C0.534019 52.9888 0.920001 52.8481 1.06511 52.7686C2.12227 52.1931 2.88044 51.018 3.09329 49.6257C3.13302 49.3673 3.31409 49.18 3.52486 49.18C3.73562 49.18 3.91669 49.3673 3.956 49.6262C4.16928 51.0185 4.92744 52.1936 5.98419 52.7691C6.1293 52.8481 6.51528 52.9894 6.72437 53.06C6.9159 53.1243 7.0493 53.342 7.0493 53.5905C7.0493 53.839 6.9159 54.0567 6.72437 54.121C6.51528 54.1917 6.1293 54.3324 5.98419 54.4119C4.92744 54.9874 4.16886 56.1625 3.956 57.5548C3.91628 57.8127 3.73562 58 3.52486 58ZM1.72458 53.59C2.4978 54.1032 3.12173 54.8854 3.52486 55.8261C3.92799 54.8854 4.55191 54.1032 5.32513 53.59C4.55191 53.0767 3.92799 52.2946 3.52486 51.3538C3.12173 52.2946 2.4978 53.0767 1.72458 53.59Z" fill="#020203"/>
<path d="M23.6364 33.2226C23.6364 31.3478 25.1515 29.8218 27.0372 29.8218C28.9229 29.8218 30.4379 31.3369 30.4379 33.2226C30.4379 35.1082 28.912 36.6233 27.0372 36.6233C26.6666 36.6233 26.3069 36.5688 25.9799 36.4598" fill="#FDC040"/>
<path d="M17.9821 22.6868C24.5553 16.5046 37.2957 18.6255 39.6422 29.0193C41.372 36.6606 36.6188 43.1285 32.4523 47.1296C29.4289 50.0477 24.6456 50.0477 21.6072 47.1296C17.4556 43.1135 12.6874 36.6455 14.4322 29.0043" stroke="#292D32" stroke-width="2" stroke-linecap="round" stroke-linejoin="round"/>
<path d="M31.7302 31.7268C31.7302 34.314 29.6394 36.4199 27.0372 36.4199C24.435 36.4199 22.3442 34.3291 22.3442 31.7268C22.3442 29.1246 24.45 27.0338 27.0372 27.0338C27.5486 27.0338 28.045 27.109 28.4963 27.2594" stroke="#292D32" stroke-width="2" stroke-linecap="round" stroke-linejoin="round"/>
</svg>
