<svg width="22" height="22" viewBox="0 0 22 22" fill="none" xmlns="http://www.w3.org/2000/svg">
<path fill-rule="evenodd" clip-rule="evenodd" d="M10.5089 2.17235C10.7978 1.94255 11.2022 1.94255 11.4911 2.17235L18.6911 7.89962C18.886 8.05463 19 8.29297 19 8.54545V17.5455C19 18.1965 18.7471 18.8208 18.297 19.2811C17.847 19.7414 17.2366 20 16.6 20H5.4C4.76348 20 4.15303 19.7414 3.70294 19.2811C3.25286 18.8208 3 18.1965 3 17.5455V8.54545C3 8.29297 3.11398 8.05463 3.30885 7.89962L10.5089 2.17235ZM4.6 8.94561V17.5455C4.6 17.7624 4.68429 17.9706 4.83431 18.124C4.98434 18.2774 5.18782 18.3636 5.4 18.3636H16.6C16.8122 18.3636 17.0157 18.2774 17.1657 18.124C17.3157 17.9706 17.4 17.7624 17.4 17.5455V8.94561L11 3.8547L4.6 8.94561Z" fill="#197CC1"/>
<path fill-rule="evenodd" clip-rule="evenodd" d="M8 10.8333C8 10.3731 8.33579 10 8.75 10H13.25C13.6642 10 14 10.3731 14 10.8333V19.1667C14 19.6269 13.6642 20 13.25 20C12.8358 20 12.5 19.6269 12.5 19.1667V11.6667H9.5V19.1667C9.5 19.6269 9.16421 20 8.75 20C8.33579 20 8 19.6269 8 19.1667V10.8333Z" fill="#197CC1"/>
</svg>
