<svg width="26" height="26" viewBox="0 0 26 26" fill="none" xmlns="http://www.w3.org/2000/svg">
<g clip-path="url(#clip0_177_1981)">
<path d="M7.30839 20.554C5.64068 20.554 4.15735 19.4863 3.6188 17.8967L3.58235 17.7769C3.45526 17.3561 3.40214 17.0019 3.40214 16.6477V9.54565L0.875054 17.9811C0.550054 19.2217 1.29068 20.5082 2.53339 20.8509L18.6407 25.1644C18.8417 25.2165 19.0428 25.2415 19.2407 25.2415C20.2782 25.2415 21.2261 24.5529 21.4917 23.5384L22.4303 20.554H7.30839Z" fill="#929292"/>
<path d="M10.1727 9.6165C11.3216 9.6165 12.256 8.68212 12.256 7.53316C12.256 6.3842 11.3216 5.44983 10.1727 5.44983C9.02373 5.44983 8.08936 6.3842 8.08936 7.53316C8.08936 8.68212 9.02373 9.6165 10.1727 9.6165Z" fill="#929292"/>
<path d="M23.1938 2.32471H7.56877C6.13335 2.32471 4.9646 3.49346 4.9646 4.92887V16.3872C4.9646 17.8226 6.13335 18.9914 7.56877 18.9914H23.1938C24.6292 18.9914 25.7979 17.8226 25.7979 16.3872V4.92887C25.7979 3.49346 24.6292 2.32471 23.1938 2.32471ZM7.56877 4.40804H23.1938C23.4813 4.40804 23.7146 4.64137 23.7146 4.92887V12.3237L20.424 8.48408C20.075 8.07471 19.5698 7.85596 19.0271 7.84346C18.4875 7.84658 17.9813 8.08616 17.6354 8.50075L13.7667 13.1445L12.5063 11.8872C11.7938 11.1747 10.6344 11.1747 9.92293 11.8872L7.04793 14.7612V4.92887C7.04793 4.64137 7.28127 4.40804 7.56877 4.40804Z" fill="#929292"/>
</g>
<defs>
<clipPath id="clip0_177_1981">
<rect width="25" height="25" fill="white" transform="translate(0.798096 0.241333)"/>
</clipPath>
</defs>
</svg>
