<svg width="49" height="30" viewBox="0 0 49 30" fill="none" xmlns="http://www.w3.org/2000/svg">
<path d="M31.7925 3.20728H17.2138V26.7901H31.7925V3.20728Z" fill="#FF5F00"/>
<path d="M18.7154 15.0011C18.7136 12.7303 19.2333 10.4888 20.2353 8.44628C21.2373 6.40378 22.6953 4.61377 24.4989 3.21173C22.265 1.473 19.5823 0.391781 16.7574 0.0916576C13.9324 -0.208466 11.0792 0.28461 8.5238 1.51453C5.9684 2.74445 3.81394 4.6616 2.30663 7.04686C0.79933 9.43212 0 12.1893 0 15.0032C0 17.8171 0.79933 20.5742 2.30663 22.9595C3.81394 25.3447 5.9684 27.2619 8.5238 28.4918C11.0792 29.7217 13.9324 30.2148 16.7574 29.9147C19.5823 29.6145 22.265 28.5333 24.4989 26.7946C22.6947 25.3921 21.2364 23.6014 20.2344 21.5582C19.2324 19.5149 18.7129 17.2726 18.7154 15.0011Z" fill="#EB001B"/>
<path d="M47.553 24.2949V23.8116H47.7634V23.7117H47.2628V23.8116H47.4605V24.2949H47.553ZM48.5247 24.2949V23.7117H48.3733L48.1966 24.1283L48.0199 23.7117H47.8685V24.2949H47.9779V23.8533L48.1419 24.2324H48.2555L48.4195 23.8533V24.2949H48.5247Z" fill="#F79E1B"/>
<path d="M49 15.0009C49 17.815 48.2004 20.5723 46.6929 22.9576C45.1853 25.343 43.0305 27.2601 40.4748 28.4898C37.9191 29.7196 35.0656 30.2123 32.2405 29.9118C29.4153 29.6112 26.7326 28.5295 24.4989 26.7902C26.3018 25.3869 27.7594 23.5964 28.7616 21.5538C29.7639 19.5112 30.2847 17.2698 30.2847 14.9988C30.2847 12.7277 29.7639 10.4864 28.7616 8.44376C27.7594 6.40115 26.3018 4.61065 24.4989 3.20736C26.7326 1.46808 29.4153 0.386343 32.2405 0.0857879C35.0656 -0.214767 37.9191 0.277992 40.4748 1.50774C43.0305 2.73749 45.1853 4.6546 46.6929 7.03994C48.2004 9.42528 49 12.1826 49 14.9967V15.0009Z" fill="#F79E1B"/>
</svg>
