<svg width="24" height="24" viewBox="0 0 24 24" fill="none" xmlns="http://www.w3.org/2000/svg">
<path d="M23.9652 5.40755C23.8034 3.81019 22.9943 2.3178 21.7441 1.31258C20.4667 0.284515 18.8768 -0.152644 17.1467 0.0467942C13.8835 0.423442 11.5191 3.41748 11.8767 6.72087C11.9008 6.94254 11.9397 7.16421 11.9774 7.37908C11.9848 7.42045 11.9916 7.46182 11.999 7.50381H4.00069C3.98154 7.39452 3.9624 7.28523 3.94325 7.17656C3.88272 6.8314 3.82033 6.47513 3.75548 6.12565C3.67456 5.68725 3.50532 5.54647 3.05935 5.54586C2.78387 5.54524 2.50777 5.54586 2.23167 5.54586C1.73073 5.54647 1.2125 5.54709 0.702916 5.54215C0.502171 5.53968 0.214334 5.57241 0.022854 5.87434L0 5.91262V6.28001L0.0240894 6.31829C0.169243 6.54552 0.39346 6.65419 0.704769 6.64987C1.01546 6.64554 1.33171 6.64616 1.63746 6.64678C1.95248 6.6474 2.27861 6.64801 2.5998 6.64307C2.73446 6.64122 2.73878 6.64431 2.75978 6.7641C3.1483 8.99682 3.55411 11.2653 3.94696 13.4586L4.02602 13.8994C4.10076 14.3162 4.17673 14.733 4.25209 15.1491C4.37377 15.8185 4.49978 16.51 4.61837 17.1911C4.63011 17.2596 4.61034 17.3603 4.57328 17.4208C4.40218 17.6992 4.2175 17.9771 4.03837 18.2463C3.96487 18.3568 3.89198 18.4667 3.8191 18.5779C3.49482 19.0725 3.46455 19.5954 3.73139 20.0906C3.99081 20.5723 4.43801 20.8322 5.02295 20.8433C5.25396 20.8476 5.48374 20.8464 5.7271 20.8458C5.75057 20.8458 5.77466 20.8458 5.79875 20.8458C5.59801 21.2169 5.50906 21.5867 5.52697 21.9702C5.57206 22.9038 6.18356 23.6768 7.08537 23.9392C7.11193 23.9473 7.14096 23.9584 7.17123 23.9707C7.18729 23.9775 7.20397 23.9837 7.22002 23.9899L7.24658 23.9998H8.03659L8.05821 23.9936C8.59806 23.8349 8.98102 23.6058 9.2633 23.2712C9.84083 22.5876 9.93842 21.6442 9.51408 20.8655H12.8872C12.8841 20.8723 12.881 20.8791 12.8779 20.8859C12.8026 21.0582 12.7241 21.2366 12.6815 21.4262C12.558 21.9794 12.6562 22.5438 12.957 23.0143C13.2652 23.4959 13.7507 23.8293 14.3245 23.9534C14.3443 23.9578 14.3678 23.9664 14.3931 23.9757C14.4085 23.9812 14.4234 23.9868 14.4388 23.9917L14.4623 23.9998H15.067L15.0911 23.9917C15.1078 23.9862 15.1251 23.98 15.1417 23.9738C15.172 23.9627 15.201 23.9522 15.227 23.946C16.2511 23.7015 16.9379 22.7852 16.8595 21.7677C16.8391 21.5015 16.7557 21.2428 16.6754 20.9927C16.66 20.9452 16.6445 20.8964 16.6291 20.8476C16.7075 20.8476 16.786 20.8483 16.8644 20.8489C17.0726 20.8501 17.2875 20.852 17.5006 20.8439C17.8305 20.8322 18.0714 20.5883 18.0609 20.2771C18.051 19.9783 17.8255 19.7671 17.5 19.7517C17.4457 19.7492 17.3925 19.7492 17.3407 19.7498L15.9095 19.7504C15.0503 19.7504 14.1911 19.7504 13.3319 19.7504L10.889 19.7492C8.96805 19.748 7.04769 19.7473 5.12672 19.748C4.87718 19.748 4.76291 19.6998 4.69064 19.5652C4.61837 19.43 4.64246 19.3089 4.78267 19.1033C5.0526 18.7082 5.26693 18.3815 5.45841 18.0759C5.50288 18.0049 5.53809 17.9857 5.63012 17.9814C6.40284 17.9462 7.18791 17.9042 7.94703 17.8641L8.4004 17.84C9.28554 17.7931 10.17 17.7462 11.0552 17.6986C12.97 17.5967 14.8848 17.4949 16.7996 17.3948C17.568 17.3547 18.0701 16.9663 18.2931 16.2402L18.4024 15.8827C18.7854 14.6336 19.182 13.3425 19.5643 12.0699C19.6014 11.947 19.6403 11.9063 19.7527 11.8705C21.0294 11.4685 22.153 10.6516 22.9158 9.5692C23.7577 8.37751 24.1197 6.93822 23.9652 5.40755ZM12.9329 6.09601C12.9397 3.35142 15.1776 1.12178 17.9237 1.12178C17.9262 1.12178 17.9293 1.12178 17.9318 1.12178C19.2468 1.12364 20.4908 1.64662 21.434 2.5938C22.3716 3.53542 22.8862 4.77095 22.8825 6.07316C22.8787 7.42354 22.3574 8.68377 21.4155 9.62106C20.4772 10.5547 19.2215 11.0684 17.8774 11.0684C17.8725 11.0684 17.8669 11.0684 17.862 11.0684C15.138 11.0604 12.9267 8.82948 12.9329 6.09601ZM18.3987 12.1397C18.3975 12.144 18.3963 12.1477 18.395 12.152C18.0782 13.19 17.7613 14.2285 17.4438 15.2665L17.256 15.8802C17.1529 16.218 17.0726 16.2809 16.7211 16.2995C15.3029 16.3742 13.8854 16.4495 12.4672 16.5248C11.385 16.5823 10.3029 16.6403 9.22006 16.6971C8.76607 16.7212 8.31208 16.744 7.85809 16.7675C7.14714 16.8039 6.41149 16.8416 5.68819 16.8817C5.68139 16.8823 5.67521 16.8823 5.67089 16.8823C5.66842 16.8737 5.66595 16.8613 5.66286 16.8434C5.4337 15.5431 5.19775 14.2217 4.96983 12.9436L4.74499 11.6852C4.56834 10.693 4.39168 9.70072 4.21564 8.70846C4.21009 8.67759 4.20514 8.64672 4.20082 8.61399H5.81728C7.92418 8.61399 10.1033 8.61461 12.2467 8.60905C12.3671 8.60967 12.398 8.62819 12.4499 8.73748C12.9842 9.86558 13.8403 10.7837 14.9249 11.3913C15.9799 11.9822 17.1788 12.2403 18.3987 12.1397ZM8.68207 21.8806C8.68083 22.4345 8.21201 22.9013 7.65672 22.9013C7.6561 22.9013 7.65549 22.9013 7.65549 22.9013C7.37815 22.9007 7.11934 22.7939 6.92663 22.5994C6.73268 22.4042 6.62644 22.1437 6.62767 21.8652C6.63014 21.2965 7.07796 20.8507 7.64746 20.8495C7.92418 20.8489 8.18545 20.9563 8.38126 21.1521C8.57583 21.3465 8.68268 21.6053 8.68207 21.8806ZM13.7229 21.8683C13.7248 21.3089 14.1837 20.852 14.7458 20.8501C14.747 20.8501 14.7483 20.8501 14.7495 20.8501C15.0281 20.8501 15.2863 20.9545 15.4771 21.144C15.6692 21.3354 15.7755 21.596 15.7761 21.8782C15.7767 22.1511 15.6698 22.408 15.4759 22.6025C15.2832 22.7951 15.0287 22.9019 14.7594 22.9019C14.4833 22.9019 14.2226 22.7932 14.025 22.595C13.8292 22.3981 13.7217 22.1406 13.7229 21.8683Z" fill="#676767"/>
<path d="M7.04523 13.4334C7.02855 13.4334 7.01187 13.4334 6.9952 13.4328C6.92355 13.4316 6.84201 13.431 6.76048 13.4476C6.55109 13.4908 6.38617 13.6452 6.33058 13.8508C6.27931 14.0385 6.33366 14.2262 6.4745 14.354C6.61224 14.4782 6.82163 14.5232 6.97234 14.5245C7.81238 14.5294 8.66292 14.5306 9.50111 14.5306C9.82292 14.5306 10.1423 14.5306 10.4591 14.5306L11.3863 14.53H12.5975C13.6877 14.53 14.7785 14.53 15.8687 14.5294C16.2251 14.5288 16.4728 14.317 16.4839 14.0027C16.4889 13.8576 16.4413 13.7273 16.3456 13.6248C16.235 13.5069 16.0676 13.439 15.8749 13.434C15.8465 13.4334 15.8175 13.4334 15.7891 13.4334H14.5679C12.0601 13.4328 9.553 13.4328 7.04523 13.4334Z" fill="#676767"/>
<path d="M9.03166 11.3797C9.85503 11.3797 10.679 11.3797 11.5024 11.3791C11.7111 11.3791 11.8822 11.3167 11.9977 11.1988C12.0953 11.1 12.1454 10.9691 12.1429 10.8203C12.138 10.4949 11.8903 10.2843 11.5129 10.2837C10.9187 10.2825 10.3238 10.2831 9.72964 10.2831H9.04216H8.32134C7.72281 10.2825 7.12366 10.2825 6.52513 10.2843C6.33489 10.2849 6.16935 10.3485 6.0594 10.4646C5.96243 10.5665 5.91301 10.7054 5.91981 10.8548C5.93525 11.1784 6.18108 11.3791 6.56096 11.3797C7.38494 11.3791 8.2083 11.3797 9.03166 11.3797Z" fill="#676767"/>
<path d="M20.6656 4.13753C20.7051 4.07825 20.7496 4.01156 20.7799 3.93438C20.8793 3.6837 20.8089 3.44721 20.5878 3.28605C20.3648 3.12366 20.0745 3.15392 19.8818 3.35891C19.8243 3.42004 19.7805 3.48673 19.7385 3.55094L19.7169 3.58367C19.2227 4.32338 18.7292 5.06371 18.2351 5.80342L17.0775 7.53785C17.0633 7.55947 17.0485 7.58046 17.0331 7.60207L16.899 7.46808C16.5846 7.15441 16.2702 6.84136 15.9571 6.52646C15.7576 6.32579 15.508 6.28257 15.3048 6.41223C15.1516 6.51041 15.0268 6.70738 15.0139 6.871C15.0003 7.04018 15.117 7.22604 15.2301 7.34336C15.5926 7.71939 15.9694 8.09356 16.3332 8.45478C16.4333 8.55419 16.5334 8.6536 16.6328 8.75301C16.8088 8.92836 16.9725 9.01419 17.1319 9.01419C17.1467 9.01419 17.1609 9.01357 17.1757 9.01172C17.3481 8.99443 17.5043 8.87773 17.6532 8.65421C18.6569 7.15071 19.6594 5.64659 20.6613 4.14185L20.6656 4.13753Z" fill="#676767"/>
</svg>
