<svg width="23" height="22" viewBox="0 0 23 22" fill="none" xmlns="http://www.w3.org/2000/svg">
<path fill-rule="evenodd" clip-rule="evenodd" d="M20.6504 4.77026C20.8784 4.94361 21.0124 5.21359 21.0124 5.50005V16.5C21.0124 16.7781 20.8862 17.0411 20.6693 17.2151C20.4524 17.3891 20.1683 17.4552 19.8968 17.3949L3.39684 13.7282C2.97743 13.635 2.67902 13.263 2.67902 12.8334V10.0834C2.67902 9.67161 2.9536 9.31037 3.35035 9.20016L19.8503 4.61682C20.1264 4.54016 20.4223 4.59692 20.6504 4.77026ZM4.51236 10.7801V12.0981L19.179 15.3573V6.70605L4.51236 10.7801Z" fill="#676767"/>
<path fill-rule="evenodd" clip-rule="evenodd" d="M6.40612 13.0497C6.89415 13.1843 7.18064 13.6891 7.04601 14.1771C6.98172 14.4102 6.96397 14.6536 6.99375 14.8935C7.02354 15.1335 7.1003 15.3652 7.21963 15.5754C7.33896 15.7857 7.49854 15.9704 7.68925 16.1189C7.87996 16.2675 8.09807 16.3771 8.33112 16.4414C8.56418 16.5057 8.80761 16.5234 9.04753 16.4936C9.28744 16.4639 9.51914 16.3871 9.7294 16.2678C9.93965 16.1484 10.1243 15.9889 10.2729 15.7981C10.4215 15.6074 10.5311 15.3893 10.5954 15.1563C10.73 14.6682 11.2348 14.3818 11.7228 14.5164C12.2108 14.651 12.4973 15.1558 12.3627 15.6438C12.2344 16.109 12.0157 16.5443 11.7191 16.9249C11.4226 17.3055 11.054 17.624 10.6343 17.8622C10.2147 18.1004 9.75226 18.2536 9.27343 18.313C8.79459 18.3725 8.30873 18.337 7.84359 18.2087C7.37845 18.0804 6.94313 17.8617 6.5625 17.5652C6.18187 17.2686 5.86338 16.9 5.62521 16.4804C5.38703 16.0607 5.23385 15.5983 5.17439 15.1194C5.11494 14.6406 5.15038 14.1548 5.27869 13.6896C5.41332 13.2016 5.91809 12.9151 6.40612 13.0497Z" fill="#676767"/>
</svg>
