<svg width="31" height="35" viewBox="0 0 31 35" fill="none" xmlns="http://www.w3.org/2000/svg">
<path d="M23.6852 8.98984L23.6852 8.98983L24.4668 8.10406L25.2485 8.98983L25.2485 8.98984C25.4543 9.22294 25.7935 9.22296 25.9992 8.98982C26.1985 8.76402 26.1985 8.40245 25.9992 8.17669L25.201 7.27206L25.9992 6.36743C26.1985 6.14162 26.1985 5.78005 25.9992 5.55429C25.7935 5.32119 25.4542 5.32117 25.2485 5.5543C25.2485 5.5543 25.2485 5.55431 25.2485 5.55431L24.4668 6.44007L23.6852 5.5543L23.6852 5.55429C23.4794 5.32119 23.1402 5.32117 22.9345 5.55431C22.7352 5.78011 22.7352 6.14167 22.9345 6.36743C22.9345 6.36743 22.9345 6.36744 22.9345 6.36744L23.7327 7.27206L22.9345 8.17669C22.9345 8.17669 22.9345 8.1767 22.9345 8.1767C22.7352 8.40246 22.7352 8.76402 22.9345 8.98982C23.1402 9.22296 23.4794 9.22294 23.6852 8.98984Z" fill="#124F7A" stroke="#124F7A" stroke-width="0.2"/>
<path d="M21.4779 12.059C21.6593 11.8173 21.6352 11.4567 21.4191 11.2483L21.4191 11.2483L21.3979 11.9989M21.4779 12.059L21.3979 11.9989M21.4779 12.059C21.4779 12.059 21.4779 12.059 21.4779 12.059L21.3979 11.9989M21.4779 12.059C21.3758 12.1949 21.2273 12.2684 21.0741 12.2684C20.9504 12.2684 20.8278 12.2202 20.7297 12.1256M21.3979 11.9989C21.3138 12.1109 21.1944 12.1684 21.0741 12.1684C20.9769 12.1684 20.879 12.1307 20.7991 12.0536M20.7297 12.1256L20.7991 12.0536M20.7297 12.1256C20.7297 12.1256 20.7297 12.1256 20.7297 12.1256L20.7991 12.0536M20.7297 12.1256C20.6287 12.0282 20.5303 11.9253 20.4372 11.8198L20.7991 12.0536M20.2265 10.6777L20.2265 10.6777C20.4502 10.4622 20.788 10.4958 20.9746 10.7446C20.9746 10.7446 20.9746 10.7446 20.9746 10.7446L20.2265 10.6777ZM20.2265 10.6777C20.0103 10.8861 19.9861 11.2467 20.1674 11.4884L20.1674 11.4884M20.2265 10.6777L20.1674 11.4884M20.1674 11.4884C20.2531 11.6025 20.3439 11.7141 20.4372 11.8197L20.1674 11.4884Z" fill="#124F7A" stroke="#124F7A" stroke-width="0.2"/>
<mask id="path-3-outside-1_177_1756" maskUnits="userSpaceOnUse" x="0" y="0" width="31" height="35" fill="black">
<rect fill="white" width="31" height="35"/>
<path d="M29.8239 14.8672C29.7875 14.6046 29.5711 14.4248 29.3383 14.4662C29.1066 14.5074 28.9481 14.7537 28.9846 15.0164C29.0944 15.8103 29.1502 16.6238 29.1502 17.4342C29.1502 18.9924 28.9489 20.5176 28.5506 21.9846C27.9373 20.4906 26.8698 19.2828 25.5503 18.5902C25.5842 18.2071 25.6014 17.8196 25.6014 17.4342C25.6014 16.0034 25.3734 14.6161 24.9229 13.3008C26.0919 13.0899 27.2163 12.459 28.1096 11.4993C28.2797 11.963 28.4301 12.4371 28.5587 12.9152C28.6145 13.1227 28.7829 13.2563 28.9649 13.2563C29.006 13.2563 29.0477 13.2495 29.089 13.2353C29.3134 13.1577 29.4398 12.8887 29.3714 12.6344C29.1963 11.9835 28.9832 11.3399 28.7369 10.717C29.4956 9.61671 29.9364 8.30327 29.9937 6.94175C30.0633 5.28187 29.5563 3.74954 28.5658 2.62699C26.7009 0.513425 23.6356 0.483064 21.4276 2.4332C19.5601 1.48314 17.5673 1.00165 15.4999 1.00165C14.0375 1.00165 12.5955 1.24743 11.2115 1.73238C9.75648 1.09967 8.03626 0.735585 6.66958 1.23087C6.1844 1.40675 5.77291 1.68341 5.4466 2.0532C5.1203 2.423 4.87618 2.88921 4.72099 3.43905C4.4789 4.29688 4.45614 5.36397 4.64616 6.53767C2.29321 9.5454 1 13.405 1 17.4342C1 26.5159 7.48515 33.8667 15.4999 33.8667C17.9374 33.8667 20.343 33.1694 22.4668 31.8489C22.6352 31.8647 22.8054 31.8728 22.9774 31.8728C26.3646 31.8728 29.1202 28.7498 29.1202 24.9112C29.1202 24.4189 29.0748 23.9384 28.9886 23.4748C29.6597 21.5524 29.9998 19.5209 29.9998 17.4342C29.9998 16.5739 29.9407 15.7102 29.8239 14.8672ZM25.0195 1.96629C26.114 1.96629 27.172 2.40907 27.9649 3.30772C28.7841 4.23603 29.2031 5.51032 29.145 6.89585C29.086 8.29865 28.5467 9.64573 27.6262 10.6889C26.6441 11.8019 25.3521 12.4006 24.1083 12.4157C23.2286 12.4264 22.377 12.7241 21.6457 13.2766L21.2084 13.607C21.0106 13.7565 20.7449 13.7266 20.5768 13.5361L18.9396 11.6807C18.7715 11.4901 18.7451 11.1892 18.8771 10.9649L19.1686 10.4694C19.6561 9.64059 19.9188 8.6755 19.9283 7.67851C19.9415 6.27616 20.4664 4.8086 21.452 3.6917C22.461 2.54804 23.7643 1.96629 25.0195 1.96629ZM18.0243 16.7384C18.1948 17.2132 18.0705 17.7489 17.715 18.0716C17.3553 18.3981 16.8313 18.4021 16.4687 18.0813C16.2726 17.9078 16.1432 17.6731 16.0945 17.4023C16.0362 17.0783 15.8139 16.8263 15.5279 16.7602C15.2891 16.7051 15.0819 16.5585 14.9288 16.3363C14.6457 15.9253 14.6494 15.3312 14.9374 14.9238C15.2222 14.521 15.6949 14.3801 16.1138 14.5734C16.613 14.8036 17.1889 14.6652 17.5811 14.2206L18.7801 12.8618L19.5344 13.7166L18.3354 15.0755C17.9432 15.52 17.821 16.1727 18.0243 16.7384ZM5.53021 3.7324C5.64371 3.33012 5.81771 2.99422 6.04733 2.734C6.27695 2.47377 6.57335 2.27665 6.92837 2.14795C8.42328 1.60619 10.5492 2.33101 11.9999 3.18833C12.208 3.31138 12.4645 3.21978 12.573 2.98408C12.6752 2.76205 12.6096 2.4913 12.4279 2.35785C13.4306 2.09659 14.4596 1.96456 15.4999 1.96456C17.3204 1.96456 19.0792 2.36086 20.7371 3.14365C19.89 4.15605 19.3332 5.43034 19.1471 6.75521C18.0125 6.2562 16.8172 5.9981 15.5847 5.9868C15.3292 5.23148 14.9339 4.53868 14.4141 3.94949C14.3327 3.85725 14.2451 3.76405 14.1535 3.67251C13.9777 3.4965 13.7092 3.51538 13.5539 3.71468C13.3986 3.91393 13.4153 4.21819 13.5911 4.39419C13.6695 4.47263 13.7442 4.55204 13.8133 4.63028C14.6189 5.54325 15.0751 6.76587 15.0751 8.08258C15.0751 9.38666 14.627 10.6127 13.8133 11.5349C12.9996 12.457 11.9177 12.9649 10.767 12.9649C9.61624 12.9649 8.53441 12.457 7.72071 11.5349C6.23102 9.84677 4.89481 5.98391 5.53021 3.7324ZM15.4999 32.9038C7.9731 32.9038 1.8496 25.9642 1.8496 17.4342C1.8496 13.8688 2.92526 10.4445 4.89397 7.69475C4.93412 7.84662 4.97745 7.99959 5.02401 8.15351C5.43409 9.50958 6.056 10.8027 6.73681 11.7362C6.14764 12.8962 5.7485 14.1475 5.54748 15.4649C4.76551 15.6022 4.08729 15.8016 3.61978 16.0049C3.08465 16.2375 2.9316 16.4331 2.85803 16.5775C2.7716 16.7471 2.69247 17.0515 2.84931 17.9063C3.21577 19.9038 4.60782 23.6033 6.78326 25.0267C7.4182 25.4421 8.01881 25.665 8.56811 25.7611C10.4503 27.775 12.9061 28.882 15.5 28.882C16.2653 28.882 17.0259 28.7848 17.7656 28.5927C18.5293 29.9761 19.7097 31.0353 21.106 31.5426C19.3533 32.4361 17.4375 32.9038 15.4999 32.9038ZM12.5804 22.383L10.391 20.9505L9.48098 18.5361C9.38888 18.2916 9.13921 18.1781 8.92347 18.2825C8.70773 18.3869 8.60753 18.6698 8.69968 18.9143L9.1647 20.148L5.4372 17.7091C5.23403 17.576 4.97422 17.655 4.85692 17.8853C4.73962 18.1155 4.80923 18.41 5.0124 18.5429L7.48464 20.1605L6.37341 20.3122C6.1405 20.3441 5.97444 20.5838 6.00247 20.8478C6.02847 21.0922 6.21176 21.2717 6.42371 21.2717C6.44064 21.2717 6.4578 21.2705 6.47502 21.2681L8.71096 20.9628L10.2981 22.0013L9.18685 22.153C8.95394 22.1849 8.78787 22.4246 8.81591 22.6886C8.84383 22.9513 9.05442 23.1409 9.28846 23.109L11.5244 22.8037L12.1557 23.2167C11.5794 24.0612 10.5476 24.8641 9.2619 24.8639C8.52908 24.8638 7.8349 24.6029 7.208 24.1927C5.20079 22.8794 3.96506 19.2581 3.68107 17.7102C3.6152 17.3511 3.60732 17.1578 3.60936 17.069C3.65858 17.0348 3.75391 16.9776 3.924 16.9036C5.40588 16.2595 8.90608 15.7655 10.8524 17.039C13.0681 18.4889 13.113 20.9101 12.5804 22.383ZM22.9773 30.91C20.0633 30.91 17.6841 28.2242 17.6841 24.9113C17.6841 24.5707 17.7094 24.2295 17.7594 23.8971C17.7987 23.635 17.6432 23.3863 17.4119 23.3416C17.1806 23.2968 16.9612 23.4734 16.9218 23.7354C16.8639 24.1211 16.8345 24.5167 16.8345 24.9112C16.8345 25.9058 17.0195 26.8522 17.3525 27.7088C16.7456 27.8485 16.1245 27.9191 15.4999 27.9191C13.4473 27.9191 11.4889 27.1621 9.88245 25.7665C10.1877 25.7152 10.462 25.6315 10.6997 25.5369C11.5727 25.1891 12.368 24.5193 12.8967 23.7016L13.097 23.8326C13.9058 24.3619 14.4082 25.3481 14.4082 26.4066C14.4082 26.6724 14.5984 26.888 14.833 26.888C15.0676 26.888 15.2578 26.6724 15.2578 26.4066C15.2578 25.0052 14.5926 23.6995 13.5218 22.9988L13.3215 22.8678C13.6819 21.9401 13.7961 20.8246 13.6254 19.7939C13.4515 18.7439 12.903 17.269 11.2772 16.2053C9.93376 15.3262 8.06129 15.1791 6.43186 15.3429C6.61136 14.334 6.91942 13.3694 7.3517 12.4629C8.29499 13.4101 9.49588 13.9277 10.767 13.9277C12.1447 13.9277 13.4399 13.3197 14.4141 12.2157C15.3882 11.1117 15.9247 9.64387 15.9247 8.08252C15.9247 7.69995 15.8925 7.32297 15.8295 6.95555C16.9553 6.99964 18.045 7.26995 19.0768 7.76125C19.0543 8.53807 18.8423 9.28781 18.4616 9.93516L18.1701 10.4307C17.8568 10.9633 17.8744 11.6568 18.1929 12.1657L16.9804 13.5397C16.8328 13.7071 16.6133 13.7641 16.4341 13.6814C15.664 13.3263 14.7962 13.5836 14.2744 14.3217C13.7429 15.0735 13.7365 16.1698 14.2591 16.9286C14.5177 17.304 14.8778 17.5697 15.2798 17.6835C15.3802 18.1391 15.6146 18.5472 15.9459 18.8402C16.6121 19.4296 17.5796 19.4282 18.2462 18.823C18.8975 18.2316 19.1246 17.248 18.8111 16.3754C18.7383 16.1724 18.7885 15.9236 18.9362 15.7562L20.1486 14.3821C20.5942 14.7403 21.206 14.7658 21.6795 14.408L22.1168 14.0776C22.688 13.6461 23.3495 13.406 24.035 13.3805C24.5107 14.6637 24.7517 16.0257 24.7517 17.434C24.7517 17.7013 24.7427 17.9696 24.7249 18.2365C24.1708 18.0498 23.5841 17.9495 22.9772 17.9495C20.7992 17.9495 18.7642 19.2758 17.6664 21.4106C17.5483 21.6403 17.6168 21.935 17.8195 22.0689C18.0221 22.2027 18.2823 22.1251 18.4004 21.8953C19.3466 20.0553 21.1003 18.9123 22.9772 18.9123C25.8959 18.9123 28.2704 21.6033 28.2704 24.911C28.2704 28.2187 25.896 30.91 22.9773 30.91Z"/>
</mask>
<path d="M29.8239 14.8672C29.7875 14.6046 29.5711 14.4248 29.3383 14.4662C29.1066 14.5074 28.9481 14.7537 28.9846 15.0164C29.0944 15.8103 29.1502 16.6238 29.1502 17.4342C29.1502 18.9924 28.9489 20.5176 28.5506 21.9846C27.9373 20.4906 26.8698 19.2828 25.5503 18.5902C25.5842 18.2071 25.6014 17.8196 25.6014 17.4342C25.6014 16.0034 25.3734 14.6161 24.9229 13.3008C26.0919 13.0899 27.2163 12.459 28.1096 11.4993C28.2797 11.963 28.4301 12.4371 28.5587 12.9152C28.6145 13.1227 28.7829 13.2563 28.9649 13.2563C29.006 13.2563 29.0477 13.2495 29.089 13.2353C29.3134 13.1577 29.4398 12.8887 29.3714 12.6344C29.1963 11.9835 28.9832 11.3399 28.7369 10.717C29.4956 9.61671 29.9364 8.30327 29.9937 6.94175C30.0633 5.28187 29.5563 3.74954 28.5658 2.62699C26.7009 0.513425 23.6356 0.483064 21.4276 2.4332C19.5601 1.48314 17.5673 1.00165 15.4999 1.00165C14.0375 1.00165 12.5955 1.24743 11.2115 1.73238C9.75648 1.09967 8.03626 0.735585 6.66958 1.23087C6.1844 1.40675 5.77291 1.68341 5.4466 2.0532C5.1203 2.423 4.87618 2.88921 4.72099 3.43905C4.4789 4.29688 4.45614 5.36397 4.64616 6.53767C2.29321 9.5454 1 13.405 1 17.4342C1 26.5159 7.48515 33.8667 15.4999 33.8667C17.9374 33.8667 20.343 33.1694 22.4668 31.8489C22.6352 31.8647 22.8054 31.8728 22.9774 31.8728C26.3646 31.8728 29.1202 28.7498 29.1202 24.9112C29.1202 24.4189 29.0748 23.9384 28.9886 23.4748C29.6597 21.5524 29.9998 19.5209 29.9998 17.4342C29.9998 16.5739 29.9407 15.7102 29.8239 14.8672ZM25.0195 1.96629C26.114 1.96629 27.172 2.40907 27.9649 3.30772C28.7841 4.23603 29.2031 5.51032 29.145 6.89585C29.086 8.29865 28.5467 9.64573 27.6262 10.6889C26.6441 11.8019 25.3521 12.4006 24.1083 12.4157C23.2286 12.4264 22.377 12.7241 21.6457 13.2766L21.2084 13.607C21.0106 13.7565 20.7449 13.7266 20.5768 13.5361L18.9396 11.6807C18.7715 11.4901 18.7451 11.1892 18.8771 10.9649L19.1686 10.4694C19.6561 9.64059 19.9188 8.6755 19.9283 7.67851C19.9415 6.27616 20.4664 4.8086 21.452 3.6917C22.461 2.54804 23.7643 1.96629 25.0195 1.96629ZM18.0243 16.7384C18.1948 17.2132 18.0705 17.7489 17.715 18.0716C17.3553 18.3981 16.8313 18.4021 16.4687 18.0813C16.2726 17.9078 16.1432 17.6731 16.0945 17.4023C16.0362 17.0783 15.8139 16.8263 15.5279 16.7602C15.2891 16.7051 15.0819 16.5585 14.9288 16.3363C14.6457 15.9253 14.6494 15.3312 14.9374 14.9238C15.2222 14.521 15.6949 14.3801 16.1138 14.5734C16.613 14.8036 17.1889 14.6652 17.5811 14.2206L18.7801 12.8618L19.5344 13.7166L18.3354 15.0755C17.9432 15.52 17.821 16.1727 18.0243 16.7384ZM5.53021 3.7324C5.64371 3.33012 5.81771 2.99422 6.04733 2.734C6.27695 2.47377 6.57335 2.27665 6.92837 2.14795C8.42328 1.60619 10.5492 2.33101 11.9999 3.18833C12.208 3.31138 12.4645 3.21978 12.573 2.98408C12.6752 2.76205 12.6096 2.4913 12.4279 2.35785C13.4306 2.09659 14.4596 1.96456 15.4999 1.96456C17.3204 1.96456 19.0792 2.36086 20.7371 3.14365C19.89 4.15605 19.3332 5.43034 19.1471 6.75521C18.0125 6.2562 16.8172 5.9981 15.5847 5.9868C15.3292 5.23148 14.9339 4.53868 14.4141 3.94949C14.3327 3.85725 14.2451 3.76405 14.1535 3.67251C13.9777 3.4965 13.7092 3.51538 13.5539 3.71468C13.3986 3.91393 13.4153 4.21819 13.5911 4.39419C13.6695 4.47263 13.7442 4.55204 13.8133 4.63028C14.6189 5.54325 15.0751 6.76587 15.0751 8.08258C15.0751 9.38666 14.627 10.6127 13.8133 11.5349C12.9996 12.457 11.9177 12.9649 10.767 12.9649C9.61624 12.9649 8.53441 12.457 7.72071 11.5349C6.23102 9.84677 4.89481 5.98391 5.53021 3.7324ZM15.4999 32.9038C7.9731 32.9038 1.8496 25.9642 1.8496 17.4342C1.8496 13.8688 2.92526 10.4445 4.89397 7.69475C4.93412 7.84662 4.97745 7.99959 5.02401 8.15351C5.43409 9.50958 6.056 10.8027 6.73681 11.7362C6.14764 12.8962 5.7485 14.1475 5.54748 15.4649C4.76551 15.6022 4.08729 15.8016 3.61978 16.0049C3.08465 16.2375 2.9316 16.4331 2.85803 16.5775C2.7716 16.7471 2.69247 17.0515 2.84931 17.9063C3.21577 19.9038 4.60782 23.6033 6.78326 25.0267C7.4182 25.4421 8.01881 25.665 8.56811 25.7611C10.4503 27.775 12.9061 28.882 15.5 28.882C16.2653 28.882 17.0259 28.7848 17.7656 28.5927C18.5293 29.9761 19.7097 31.0353 21.106 31.5426C19.3533 32.4361 17.4375 32.9038 15.4999 32.9038ZM12.5804 22.383L10.391 20.9505L9.48098 18.5361C9.38888 18.2916 9.13921 18.1781 8.92347 18.2825C8.70773 18.3869 8.60753 18.6698 8.69968 18.9143L9.1647 20.148L5.4372 17.7091C5.23403 17.576 4.97422 17.655 4.85692 17.8853C4.73962 18.1155 4.80923 18.41 5.0124 18.5429L7.48464 20.1605L6.37341 20.3122C6.1405 20.3441 5.97444 20.5838 6.00247 20.8478C6.02847 21.0922 6.21176 21.2717 6.42371 21.2717C6.44064 21.2717 6.4578 21.2705 6.47502 21.2681L8.71096 20.9628L10.2981 22.0013L9.18685 22.153C8.95394 22.1849 8.78787 22.4246 8.81591 22.6886C8.84383 22.9513 9.05442 23.1409 9.28846 23.109L11.5244 22.8037L12.1557 23.2167C11.5794 24.0612 10.5476 24.8641 9.2619 24.8639C8.52908 24.8638 7.8349 24.6029 7.208 24.1927C5.20079 22.8794 3.96506 19.2581 3.68107 17.7102C3.6152 17.3511 3.60732 17.1578 3.60936 17.069C3.65858 17.0348 3.75391 16.9776 3.924 16.9036C5.40588 16.2595 8.90608 15.7655 10.8524 17.039C13.0681 18.4889 13.113 20.9101 12.5804 22.383ZM22.9773 30.91C20.0633 30.91 17.6841 28.2242 17.6841 24.9113C17.6841 24.5707 17.7094 24.2295 17.7594 23.8971C17.7987 23.635 17.6432 23.3863 17.4119 23.3416C17.1806 23.2968 16.9612 23.4734 16.9218 23.7354C16.8639 24.1211 16.8345 24.5167 16.8345 24.9112C16.8345 25.9058 17.0195 26.8522 17.3525 27.7088C16.7456 27.8485 16.1245 27.9191 15.4999 27.9191C13.4473 27.9191 11.4889 27.1621 9.88245 25.7665C10.1877 25.7152 10.462 25.6315 10.6997 25.5369C11.5727 25.1891 12.368 24.5193 12.8967 23.7016L13.097 23.8326C13.9058 24.3619 14.4082 25.3481 14.4082 26.4066C14.4082 26.6724 14.5984 26.888 14.833 26.888C15.0676 26.888 15.2578 26.6724 15.2578 26.4066C15.2578 25.0052 14.5926 23.6995 13.5218 22.9988L13.3215 22.8678C13.6819 21.9401 13.7961 20.8246 13.6254 19.7939C13.4515 18.7439 12.903 17.269 11.2772 16.2053C9.93376 15.3262 8.06129 15.1791 6.43186 15.3429C6.61136 14.334 6.91942 13.3694 7.3517 12.4629C8.29499 13.4101 9.49588 13.9277 10.767 13.9277C12.1447 13.9277 13.4399 13.3197 14.4141 12.2157C15.3882 11.1117 15.9247 9.64387 15.9247 8.08252C15.9247 7.69995 15.8925 7.32297 15.8295 6.95555C16.9553 6.99964 18.045 7.26995 19.0768 7.76125C19.0543 8.53807 18.8423 9.28781 18.4616 9.93516L18.1701 10.4307C17.8568 10.9633 17.8744 11.6568 18.1929 12.1657L16.9804 13.5397C16.8328 13.7071 16.6133 13.7641 16.4341 13.6814C15.664 13.3263 14.7962 13.5836 14.2744 14.3217C13.7429 15.0735 13.7365 16.1698 14.2591 16.9286C14.5177 17.304 14.8778 17.5697 15.2798 17.6835C15.3802 18.1391 15.6146 18.5472 15.9459 18.8402C16.6121 19.4296 17.5796 19.4282 18.2462 18.823C18.8975 18.2316 19.1246 17.248 18.8111 16.3754C18.7383 16.1724 18.7885 15.9236 18.9362 15.7562L20.1486 14.3821C20.5942 14.7403 21.206 14.7658 21.6795 14.408L22.1168 14.0776C22.688 13.6461 23.3495 13.406 24.035 13.3805C24.5107 14.6637 24.7517 16.0257 24.7517 17.434C24.7517 17.7013 24.7427 17.9696 24.7249 18.2365C24.1708 18.0498 23.5841 17.9495 22.9772 17.9495C20.7992 17.9495 18.7642 19.2758 17.6664 21.4106C17.5483 21.6403 17.6168 21.935 17.8195 22.0689C18.0221 22.2027 18.2823 22.1251 18.4004 21.8953C19.3466 20.0553 21.1003 18.9123 22.9772 18.9123C25.8959 18.9123 28.2704 21.6033 28.2704 24.911C28.2704 28.2187 25.896 30.91 22.9773 30.91Z" fill="#124F7A"/>
<path d="M29.8239 14.8672C29.7875 14.6046 29.5711 14.4248 29.3383 14.4662C29.1066 14.5074 28.9481 14.7537 28.9846 15.0164C29.0944 15.8103 29.1502 16.6238 29.1502 17.4342C29.1502 18.9924 28.9489 20.5176 28.5506 21.9846C27.9373 20.4906 26.8698 19.2828 25.5503 18.5902C25.5842 18.2071 25.6014 17.8196 25.6014 17.4342C25.6014 16.0034 25.3734 14.6161 24.9229 13.3008C26.0919 13.0899 27.2163 12.459 28.1096 11.4993C28.2797 11.963 28.4301 12.4371 28.5587 12.9152C28.6145 13.1227 28.7829 13.2563 28.9649 13.2563C29.006 13.2563 29.0477 13.2495 29.089 13.2353C29.3134 13.1577 29.4398 12.8887 29.3714 12.6344C29.1963 11.9835 28.9832 11.3399 28.7369 10.717C29.4956 9.61671 29.9364 8.30327 29.9937 6.94175C30.0633 5.28187 29.5563 3.74954 28.5658 2.62699C26.7009 0.513425 23.6356 0.483064 21.4276 2.4332C19.5601 1.48314 17.5673 1.00165 15.4999 1.00165C14.0375 1.00165 12.5955 1.24743 11.2115 1.73238C9.75648 1.09967 8.03626 0.735585 6.66958 1.23087C6.1844 1.40675 5.77291 1.68341 5.4466 2.0532C5.1203 2.423 4.87618 2.88921 4.72099 3.43905C4.4789 4.29688 4.45614 5.36397 4.64616 6.53767C2.29321 9.5454 1 13.405 1 17.4342C1 26.5159 7.48515 33.8667 15.4999 33.8667C17.9374 33.8667 20.343 33.1694 22.4668 31.8489C22.6352 31.8647 22.8054 31.8728 22.9774 31.8728C26.3646 31.8728 29.1202 28.7498 29.1202 24.9112C29.1202 24.4189 29.0748 23.9384 28.9886 23.4748C29.6597 21.5524 29.9998 19.5209 29.9998 17.4342C29.9998 16.5739 29.9407 15.7102 29.8239 14.8672ZM25.0195 1.96629C26.114 1.96629 27.172 2.40907 27.9649 3.30772C28.7841 4.23603 29.2031 5.51032 29.145 6.89585C29.086 8.29865 28.5467 9.64573 27.6262 10.6889C26.6441 11.8019 25.3521 12.4006 24.1083 12.4157C23.2286 12.4264 22.377 12.7241 21.6457 13.2766L21.2084 13.607C21.0106 13.7565 20.7449 13.7266 20.5768 13.5361L18.9396 11.6807C18.7715 11.4901 18.7451 11.1892 18.8771 10.9649L19.1686 10.4694C19.6561 9.64059 19.9188 8.6755 19.9283 7.67851C19.9415 6.27616 20.4664 4.8086 21.452 3.6917C22.461 2.54804 23.7643 1.96629 25.0195 1.96629ZM18.0243 16.7384C18.1948 17.2132 18.0705 17.7489 17.715 18.0716C17.3553 18.3981 16.8313 18.4021 16.4687 18.0813C16.2726 17.9078 16.1432 17.6731 16.0945 17.4023C16.0362 17.0783 15.8139 16.8263 15.5279 16.7602C15.2891 16.7051 15.0819 16.5585 14.9288 16.3363C14.6457 15.9253 14.6494 15.3312 14.9374 14.9238C15.2222 14.521 15.6949 14.3801 16.1138 14.5734C16.613 14.8036 17.1889 14.6652 17.5811 14.2206L18.7801 12.8618L19.5344 13.7166L18.3354 15.0755C17.9432 15.52 17.821 16.1727 18.0243 16.7384ZM5.53021 3.7324C5.64371 3.33012 5.81771 2.99422 6.04733 2.734C6.27695 2.47377 6.57335 2.27665 6.92837 2.14795C8.42328 1.60619 10.5492 2.33101 11.9999 3.18833C12.208 3.31138 12.4645 3.21978 12.573 2.98408C12.6752 2.76205 12.6096 2.4913 12.4279 2.35785C13.4306 2.09659 14.4596 1.96456 15.4999 1.96456C17.3204 1.96456 19.0792 2.36086 20.7371 3.14365C19.89 4.15605 19.3332 5.43034 19.1471 6.75521C18.0125 6.2562 16.8172 5.9981 15.5847 5.9868C15.3292 5.23148 14.9339 4.53868 14.4141 3.94949C14.3327 3.85725 14.2451 3.76405 14.1535 3.67251C13.9777 3.4965 13.7092 3.51538 13.5539 3.71468C13.3986 3.91393 13.4153 4.21819 13.5911 4.39419C13.6695 4.47263 13.7442 4.55204 13.8133 4.63028C14.6189 5.54325 15.0751 6.76587 15.0751 8.08258C15.0751 9.38666 14.627 10.6127 13.8133 11.5349C12.9996 12.457 11.9177 12.9649 10.767 12.9649C9.61624 12.9649 8.53441 12.457 7.72071 11.5349C6.23102 9.84677 4.89481 5.98391 5.53021 3.7324ZM15.4999 32.9038C7.9731 32.9038 1.8496 25.9642 1.8496 17.4342C1.8496 13.8688 2.92526 10.4445 4.89397 7.69475C4.93412 7.84662 4.97745 7.99959 5.02401 8.15351C5.43409 9.50958 6.056 10.8027 6.73681 11.7362C6.14764 12.8962 5.7485 14.1475 5.54748 15.4649C4.76551 15.6022 4.08729 15.8016 3.61978 16.0049C3.08465 16.2375 2.9316 16.4331 2.85803 16.5775C2.7716 16.7471 2.69247 17.0515 2.84931 17.9063C3.21577 19.9038 4.60782 23.6033 6.78326 25.0267C7.4182 25.4421 8.01881 25.665 8.56811 25.7611C10.4503 27.775 12.9061 28.882 15.5 28.882C16.2653 28.882 17.0259 28.7848 17.7656 28.5927C18.5293 29.9761 19.7097 31.0353 21.106 31.5426C19.3533 32.4361 17.4375 32.9038 15.4999 32.9038ZM12.5804 22.383L10.391 20.9505L9.48098 18.5361C9.38888 18.2916 9.13921 18.1781 8.92347 18.2825C8.70773 18.3869 8.60753 18.6698 8.69968 18.9143L9.1647 20.148L5.4372 17.7091C5.23403 17.576 4.97422 17.655 4.85692 17.8853C4.73962 18.1155 4.80923 18.41 5.0124 18.5429L7.48464 20.1605L6.37341 20.3122C6.1405 20.3441 5.97444 20.5838 6.00247 20.8478C6.02847 21.0922 6.21176 21.2717 6.42371 21.2717C6.44064 21.2717 6.4578 21.2705 6.47502 21.2681L8.71096 20.9628L10.2981 22.0013L9.18685 22.153C8.95394 22.1849 8.78787 22.4246 8.81591 22.6886C8.84383 22.9513 9.05442 23.1409 9.28846 23.109L11.5244 22.8037L12.1557 23.2167C11.5794 24.0612 10.5476 24.8641 9.2619 24.8639C8.52908 24.8638 7.8349 24.6029 7.208 24.1927C5.20079 22.8794 3.96506 19.2581 3.68107 17.7102C3.6152 17.3511 3.60732 17.1578 3.60936 17.069C3.65858 17.0348 3.75391 16.9776 3.924 16.9036C5.40588 16.2595 8.90608 15.7655 10.8524 17.039C13.0681 18.4889 13.113 20.9101 12.5804 22.383ZM22.9773 30.91C20.0633 30.91 17.6841 28.2242 17.6841 24.9113C17.6841 24.5707 17.7094 24.2295 17.7594 23.8971C17.7987 23.635 17.6432 23.3863 17.4119 23.3416C17.1806 23.2968 16.9612 23.4734 16.9218 23.7354C16.8639 24.1211 16.8345 24.5167 16.8345 24.9112C16.8345 25.9058 17.0195 26.8522 17.3525 27.7088C16.7456 27.8485 16.1245 27.9191 15.4999 27.9191C13.4473 27.9191 11.4889 27.1621 9.88245 25.7665C10.1877 25.7152 10.462 25.6315 10.6997 25.5369C11.5727 25.1891 12.368 24.5193 12.8967 23.7016L13.097 23.8326C13.9058 24.3619 14.4082 25.3481 14.4082 26.4066C14.4082 26.6724 14.5984 26.888 14.833 26.888C15.0676 26.888 15.2578 26.6724 15.2578 26.4066C15.2578 25.0052 14.5926 23.6995 13.5218 22.9988L13.3215 22.8678C13.6819 21.9401 13.7961 20.8246 13.6254 19.7939C13.4515 18.7439 12.903 17.269 11.2772 16.2053C9.93376 15.3262 8.06129 15.1791 6.43186 15.3429C6.61136 14.334 6.91942 13.3694 7.3517 12.4629C8.29499 13.4101 9.49588 13.9277 10.767 13.9277C12.1447 13.9277 13.4399 13.3197 14.4141 12.2157C15.3882 11.1117 15.9247 9.64387 15.9247 8.08252C15.9247 7.69995 15.8925 7.32297 15.8295 6.95555C16.9553 6.99964 18.045 7.26995 19.0768 7.76125C19.0543 8.53807 18.8423 9.28781 18.4616 9.93516L18.1701 10.4307C17.8568 10.9633 17.8744 11.6568 18.1929 12.1657L16.9804 13.5397C16.8328 13.7071 16.6133 13.7641 16.4341 13.6814C15.664 13.3263 14.7962 13.5836 14.2744 14.3217C13.7429 15.0735 13.7365 16.1698 14.2591 16.9286C14.5177 17.304 14.8778 17.5697 15.2798 17.6835C15.3802 18.1391 15.6146 18.5472 15.9459 18.8402C16.6121 19.4296 17.5796 19.4282 18.2462 18.823C18.8975 18.2316 19.1246 17.248 18.8111 16.3754C18.7383 16.1724 18.7885 15.9236 18.9362 15.7562L20.1486 14.3821C20.5942 14.7403 21.206 14.7658 21.6795 14.408L22.1168 14.0776C22.688 13.6461 23.3495 13.406 24.035 13.3805C24.5107 14.6637 24.7517 16.0257 24.7517 17.434C24.7517 17.7013 24.7427 17.9696 24.7249 18.2365C24.1708 18.0498 23.5841 17.9495 22.9772 17.9495C20.7992 17.9495 18.7642 19.2758 17.6664 21.4106C17.5483 21.6403 17.6168 21.935 17.8195 22.0689C18.0221 22.2027 18.2823 22.1251 18.4004 21.8953C19.3466 20.0553 21.1003 18.9123 22.9772 18.9123C25.8959 18.9123 28.2704 21.6033 28.2704 24.911C28.2704 28.2187 25.896 30.91 22.9773 30.91Z" stroke="#124F7A" stroke-width="0.4" mask="url(#path-3-outside-1_177_1756)"/>
<path d="M10.2835 9.4624C10.0779 9.69553 9.73854 9.69551 9.53284 9.4624C9.33359 9.23659 9.33357 8.87502 9.53285 8.64926L10.0328 8.08272L9.53285 7.51618C9.53285 7.51618 9.53284 7.51617 9.53284 7.51617C9.33358 7.29041 9.33359 6.92887 9.53283 6.70306L10.2835 9.4624ZM10.2835 9.4624C10.2835 9.46239 10.2835 9.46239 10.2835 9.46238L10.7669 8.91466M10.2835 9.4624L10.7669 8.91466M10.7669 8.91466L11.2502 9.4624C11.4559 9.69551 11.7952 9.69553 12.0009 9.46238M10.7669 8.91466L12.0009 9.46238M12.0009 9.46238C12.2001 9.23657 12.2001 8.87502 12.0009 8.64926M12.0009 9.46238L12.0009 6.70305M12.0009 8.64926L11.5009 8.08272M12.0009 8.64926L12.0009 8.64927L11.9259 8.71544M12.0009 8.64926L11.9259 8.71544M11.5009 8.08272L12.0009 7.51617C12.2001 7.29037 12.2001 6.92881 12.0009 6.70305M11.5009 8.08272L11.4426 8.14889L11.3676 8.08272M11.5009 8.08272L11.4426 8.01656L11.3676 8.08272M12.0009 6.70305L11.9259 6.76921C12.0918 6.95716 12.0918 7.262 11.9259 7.45001L11.3676 8.08272M12.0009 6.70305L11.9259 8.71544M11.3676 8.08272L11.9259 8.71544M10.7669 7.25079L10.2835 6.70305C10.0778 6.46993 9.7385 6.46991 9.53284 6.70305L10.7669 7.25079ZM10.7669 7.25079L11.2502 6.70306C11.2502 6.70306 11.2502 6.70305 11.2502 6.70305C11.4558 6.46992 11.7952 6.46993 12.0009 6.70304L10.7669 7.25079Z" fill="#124F7A" stroke="#124F7A" stroke-width="0.2"/>
<path d="M10.767 12.0341C12.7075 12.0341 14.2654 10.2495 14.2654 8.08278C14.2654 5.91603 12.7075 4.13148 10.767 4.13148C8.82651 4.13148 7.26865 5.91603 7.26865 8.08278C7.26865 10.2495 8.82651 12.0341 10.767 12.0341ZM10.767 5.29432C12.1058 5.29432 13.2158 6.53315 13.2158 8.08278C13.2158 9.63241 12.1058 10.8712 10.767 10.8712C9.42822 10.8712 8.31826 9.63241 8.31826 8.08278C8.31826 6.53315 9.42822 5.29432 10.767 5.29432Z" fill="#124F7A" stroke="#124F7A" stroke-width="0.2"/>
<path d="M25.8843 21.6655L25.8843 21.6656C26.318 21.7335 26.6846 22.0198 26.8934 22.4423C27.0639 22.7872 27.1982 23.1543 27.2928 23.5335C27.4087 23.998 27.3279 24.4869 27.069 24.8748L27.069 24.8748C27.0607 24.8872 27.0523 24.8994 27.0437 24.9114C27.0523 24.9235 27.0607 24.9356 27.0689 24.948L27.069 24.9481C27.3279 25.3359 27.4087 25.8248 27.2929 26.2893L27.2929 26.2893C27.1982 26.6685 27.0639 27.0356 26.8934 27.3805L26.8038 27.3362L26.8934 27.3805C26.6846 27.8029 26.318 28.0893 25.8844 28.1572L25.8843 28.1573C25.8754 28.1586 25.8666 28.1599 25.8577 28.1611C25.8564 28.1743 25.8549 28.1875 25.8533 28.2006L25.8533 28.2007C25.795 28.6783 25.5483 29.0926 25.1703 29.3325C24.8648 29.5264 24.5391 29.6796 24.2021 29.7876L24.2021 29.7876C24.0769 29.8276 23.9494 29.8475 23.8227 29.8475C23.5248 29.8475 23.2354 29.7378 22.9934 29.5303L22.9933 29.5303C22.9879 29.5256 22.9825 29.5209 22.9771 29.5161C22.9717 29.5209 22.9663 29.5256 22.9609 29.5303C22.6149 29.8269 22.1733 29.9225 21.7521 29.7876C21.4151 29.6796 21.0894 29.5264 20.7839 29.3325L20.7839 29.3325C20.406 29.0925 20.1592 28.6783 20.1009 28.2007L20.1009 28.2006C20.0993 28.1875 20.0978 28.1743 20.0965 28.1611C20.0876 28.1599 20.0788 28.1586 20.0699 28.1573L20.0699 28.1572C19.6362 28.0893 19.2696 27.803 19.0608 27.3806L19.0608 27.3806C18.8902 27.0356 18.7559 26.6685 18.6614 26.2893C18.6614 26.2893 18.6614 26.2893 18.6614 26.2893L25.8843 21.6655ZM25.8843 21.6655C25.8754 21.6642 25.8666 21.6629 25.8577 21.6617C25.8564 21.6485 25.8549 21.6353 25.8533 21.6222L25.8533 21.6221M25.8843 21.6655L25.8533 21.6221M25.8533 21.6221C25.795 21.1445 25.5483 20.7303 25.1704 20.4903L25.1703 20.4903M25.8533 21.6221L25.1703 20.4903M25.1703 20.4903C24.8648 20.2964 24.5391 20.1432 24.2021 20.0352C23.781 19.9004 23.3393 19.996 22.9934 20.2925L22.9934 20.2925M25.1703 20.4903L22.9934 20.2925M22.9934 20.2925C22.9879 20.2972 22.9825 20.3019 22.9771 20.3066C22.9717 20.3019 22.9663 20.2972 22.9609 20.2925L22.9608 20.2925M22.9934 20.2925L22.9608 20.2925M22.9608 20.2925C22.615 19.9961 22.1735 19.9003 21.7521 20.0352L21.7521 20.0352M22.9608 20.2925L21.7521 20.0352M20.0965 21.6617C20.0978 21.6485 20.0993 21.6353 20.1009 21.6222L20.1009 21.6221L20.0965 21.6617ZM20.0965 21.6617C20.0877 21.6629 20.0788 21.6642 20.0699 21.6655L20.0698 21.6656C19.6362 21.7335 19.2696 22.0199 19.0608 22.4423C18.8902 22.7872 18.7559 23.1544 18.6614 23.5335M20.0965 21.6617L18.6614 23.5335M18.6614 23.5335C18.6614 23.5335 18.6614 23.5335 18.6615 23.5335L18.7585 23.5577L18.6614 23.5335ZM18.6614 23.5335C18.5456 23.998 18.6263 24.4868 18.8852 24.8747M18.6614 23.5335L18.8852 24.8747M21.7521 20.0352C21.4151 20.1432 21.0894 20.2964 20.7839 20.4903L21.7521 20.0352ZM18.8852 24.8747C18.8935 24.8871 18.9019 24.8994 18.9105 24.9114M18.8852 24.8747L18.9105 24.9114M18.9105 24.9114C18.9019 24.9235 18.8935 24.9357 18.8852 24.9481L18.9105 24.9114ZM25.7369 22.8169L25.737 22.8169C25.8337 22.832 25.9208 22.8961 25.973 23.0015C26.1044 23.2674 26.2082 23.5508 26.2812 23.8436L26.2812 23.8437C26.3108 23.9625 26.2896 24.086 26.2251 24.1827C26.1603 24.2796 26.0663 24.3299 25.9685 24.3299H24.2243L25.4675 22.9211L25.4675 22.9211C25.5418 22.8368 25.64 22.8016 25.7369 22.8169ZM23.6362 21.2122L23.6362 21.2122C23.7179 21.1421 23.8167 21.1222 23.91 21.1522L23.9101 21.1522C24.1663 21.2343 24.4146 21.3509 24.6479 21.4991C24.7357 21.5548 24.7982 21.6547 24.8132 21.7781C24.8285 21.9031 24.7918 22.0228 24.7167 22.1079L24.7167 22.1079L23.502 23.4845V21.5212V21.5212C23.502 21.3954 23.5527 21.2838 23.6362 21.2122ZM21.1411 21.7782L21.1411 21.7782C21.1562 21.6548 21.2186 21.5548 21.3064 21.4991L21.3065 21.4991C21.5398 21.351 21.7881 21.2343 22.0443 21.1523L22.0444 21.1523C22.1378 21.1223 22.2365 21.1422 22.3181 21.2122L22.3181 21.2122C22.4016 21.2838 22.4524 21.3954 22.4524 21.5213V23.4846L21.2377 22.1081C21.2377 22.108 21.2377 22.108 21.2377 22.108C21.1626 22.0229 21.1259 21.9031 21.1411 21.7782ZM19.6732 23.8436L19.6732 23.8436C19.7462 23.5508 19.8499 23.2675 19.9814 23.0015C20.0335 22.8962 20.1206 22.8321 20.2173 22.8169C20.3146 22.8017 20.4126 22.8369 20.4869 22.9211L21.73 24.3299H19.9858C19.888 24.3299 19.794 24.2796 19.7293 24.1827L19.6461 24.2382L19.7293 24.1827C19.6648 24.0861 19.6436 23.9626 19.6732 23.8436ZM19.9858 25.4927H21.73L20.4869 26.9015L20.4868 26.9015C20.4126 26.9857 20.3143 27.0209 20.2173 27.0057C20.1206 26.9906 20.0335 26.9265 19.9814 26.8211C19.8499 26.5551 19.7462 26.2718 19.6732 25.9789L19.6732 25.9789C19.6435 25.8601 19.6648 25.7365 19.7292 25.6399C19.794 25.543 19.888 25.4927 19.9858 25.4927ZM22.3182 28.6104L22.3181 28.6104C22.2364 28.6805 22.1377 28.7004 22.0444 28.6704L22.0443 28.6704C21.7881 28.5883 21.5398 28.4717 21.3064 28.3235C21.2186 28.2678 21.1562 28.1679 21.1411 28.0445C21.1259 27.9195 21.1626 27.7998 21.2377 27.7147L21.2377 27.7147L22.4524 26.3381V28.3014C22.4524 28.4273 22.4016 28.5389 22.3182 28.6104ZM22.3832 28.6864C22.2766 28.7778 22.1421 28.8068 22.0138 28.7656L22.3832 28.6864ZM24.6479 28.3235L24.6479 28.3235C24.4146 28.4717 24.1662 28.5883 23.91 28.6704L23.9099 28.6704C23.8166 28.7004 23.7178 28.6805 23.6362 28.6105L23.6362 28.6104C23.5527 28.5389 23.502 28.4272 23.502 28.3013V26.338L24.7167 27.7146C24.7918 27.7998 24.8285 27.9195 24.8132 28.0444L24.8132 28.0445C24.7982 28.1679 24.7357 28.2678 24.6479 28.3235ZM24.9124 28.0566C24.8942 28.2063 24.8173 28.3345 24.7015 28.408L24.7916 27.6485C24.8869 27.7564 24.931 27.9052 24.9124 28.0566ZM25.4675 26.9016L25.4675 26.9016L24.2243 25.4928H25.9685C26.0663 25.4928 26.1603 25.543 26.2251 25.64L26.2251 25.64C26.2896 25.7366 26.3108 25.8601 26.2812 25.979C26.2082 26.2718 26.1044 26.5552 25.973 26.8211C25.9209 26.9265 25.8337 26.9906 25.737 27.0058C25.6396 27.021 25.5417 26.9858 25.4675 26.9016ZM21.7826 20.1305L21.7826 20.1305L21.7826 20.1305Z" fill="#124F7A" stroke="#124F7A" stroke-width="0.2"/>
</svg>
