<svg width="72" height="72" viewBox="0 0 72 72" fill="none" xmlns="http://www.w3.org/2000/svg">
<circle cx="21" cy="32" r="19" fill="#FDC040" fill-opacity="0.35"/>
<path d="M53.3998 9.00086C51.7258 8.27242 50.5037 6.78173 50.1596 4.98377C49.8156 6.78173 48.5935 8.27242 46.9194 9.00086C46.5938 9.14263 45.7822 9.36092 45.7822 9.36092C45.7822 9.36092 46.5932 9.57922 46.9194 9.72099C48.5941 10.45 49.8156 11.9401 50.1596 13.7381C50.5037 11.9401 51.7258 10.4494 53.3998 9.72099C53.7255 9.57922 54.537 9.36092 54.537 9.36092C54.537 9.36092 53.7261 9.14263 53.3998 9.00086Z" fill="#FDC040"/>
<path d="M50.16 14.3609C49.861 14.3609 49.6041 14.1485 49.5483 13.8549C49.2458 12.2764 48.1703 10.9441 46.6712 10.2916C46.4648 10.2015 45.9172 10.0419 45.6212 9.9618C45.3489 9.88943 45.1597 9.64267 45.1597 9.3609C45.1597 9.07914 45.3489 8.83237 45.6206 8.75941C45.9172 8.67933 46.4648 8.51976 46.6706 8.42959C48.1703 7.77708 49.2458 6.44478 49.5478 4.8663C49.6041 4.57326 49.861 4.3609 50.16 4.3609C50.459 4.3609 50.7158 4.57326 50.7716 4.86689C51.0741 6.44537 52.1496 7.77768 53.6487 8.43019C53.8546 8.51976 54.4021 8.67992 54.6987 8.76C54.9704 8.83296 55.1597 9.07973 55.1597 9.36149C55.1597 9.64326 54.9704 9.89003 54.6987 9.96299C54.4021 10.0431 53.8546 10.2026 53.6487 10.2928C52.1496 10.9453 51.0735 12.2776 50.7716 13.8561C50.7152 14.1485 50.459 14.3609 50.16 14.3609ZM47.6061 9.3609C48.703 9.94282 49.5881 10.8296 50.16 11.8962C50.7318 10.8296 51.6169 9.94282 52.7138 9.3609C51.6169 8.77898 50.7318 7.89216 50.16 6.82561C49.5881 7.89216 48.703 8.77898 47.6061 9.3609Z" fill="#020203"/>
<path d="M70.4105 41.9791C69.0712 41.3963 68.0936 40.2038 67.8183 38.7654C67.5431 40.2038 66.5654 41.3963 65.2262 41.9791C64.9656 42.0925 64.3164 42.2671 64.3164 42.2671C64.3164 42.2671 64.9652 42.4418 65.2262 42.5552C66.5659 43.1384 67.5431 44.3305 67.8183 45.7689C68.0936 44.3305 69.0712 43.1379 70.4105 42.5552C70.671 42.4418 71.3203 42.2671 71.3203 42.2671C71.3203 42.2671 70.6715 42.0925 70.4105 41.9791Z" fill="#FDC040"/>
<path d="M67.8186 46.2671C67.5794 46.2671 67.3739 46.0972 67.3293 45.8623C67.0873 44.5996 66.2269 43.5337 65.0276 43.0117C64.8624 42.9396 64.4244 42.8119 64.1876 42.7479C63.9698 42.69 63.8184 42.4925 63.8184 42.2671C63.8184 42.0417 63.9698 41.8443 64.1871 41.7859C64.4244 41.7219 64.8624 41.5942 65.0271 41.5221C66.2269 41.0001 67.0873 39.9342 67.3288 38.6715C67.3739 38.437 67.5794 38.2671 67.8186 38.2671C68.0578 38.2671 68.2633 38.437 68.3079 38.6719C68.5499 39.9347 69.4103 41.0006 70.6096 41.5226C70.7743 41.5942 71.2123 41.7223 71.4496 41.7864C71.667 41.8448 71.8184 42.0422 71.8184 42.2676C71.8184 42.493 71.667 42.6904 71.4496 42.7488C71.2123 42.8129 70.7743 42.9405 70.6096 43.0127C69.4103 43.5347 68.5494 44.6005 68.3079 45.8633C68.2628 46.0972 68.0578 46.2671 67.8186 46.2671ZM65.7755 42.2671C66.653 42.7327 67.3611 43.4421 67.8186 44.2954C68.2761 43.4421 68.9842 42.7327 69.8617 42.2671C68.9842 41.8016 68.2761 41.0921 67.8186 40.2389C67.3611 41.0921 66.653 41.8016 65.7755 42.2671Z" fill="#020203"/>
<path d="M6.59213 53.6585C5.25287 53.0757 4.27523 51.8832 3.99997 50.4448C3.72472 51.8832 2.74708 53.0757 1.40782 53.6585C1.14727 53.7719 0.498047 53.9465 0.498047 53.9465C0.498047 53.9465 1.1468 54.1212 1.40782 54.2346C2.74756 54.8178 3.72472 56.0099 3.99997 57.4483C4.27523 56.0099 5.25287 54.8173 6.59213 54.2346C6.85268 54.1212 7.5019 53.9465 7.5019 53.9465C7.5019 53.9465 6.85315 53.7719 6.59213 53.6585Z" fill="#FDC040"/>
<path d="M4.00024 57.9465C3.76105 57.9465 3.55556 57.7766 3.51095 57.5417C3.26891 56.279 2.40849 55.2131 1.20923 54.6911C1.04408 54.619 0.606039 54.4913 0.369223 54.4273C0.151391 54.3694 0 54.1719 0 53.9465C0 53.7211 0.151391 53.5237 0.368749 53.4653C0.606039 53.4013 1.04408 53.2736 1.20876 53.2015C2.40849 52.6795 3.26891 51.6136 3.51047 50.3509C3.55556 50.1164 3.76105 49.9465 4.00024 49.9465C4.23943 49.9465 4.44492 50.1164 4.48953 50.3513C4.73156 51.6141 5.59198 52.68 6.79124 53.202C6.95592 53.2736 7.39396 53.4017 7.63125 53.4658C7.84861 53.5242 8 53.7216 8 53.947C8 54.1724 7.84861 54.3698 7.63125 54.4282C7.39396 54.4923 6.95592 54.6199 6.79124 54.6921C5.59198 55.2141 4.73109 56.2799 4.48953 57.5427C4.44444 57.7766 4.23943 57.9465 4.00024 57.9465ZM1.95717 53.9465C2.83467 54.4121 3.54274 55.1215 4.00024 55.9748C4.45773 55.1215 5.16581 54.4121 6.0433 53.9465C5.16581 53.481 4.45773 52.7715 4.00024 51.9183C3.54274 52.7715 2.83467 53.481 1.95717 53.9465Z" fill="#020203"/>
<path d="M38.0225 55.6859C35.5348 55.6859 34.2983 56.9223 34.2983 59.41V63.1342H41.7466V59.41C41.7466 56.9223 40.5102 55.6859 38.0225 55.6859Z" fill="#FDC040"/>
<path d="M18.8018 50.6921C18.8018 59.6721 22.4018 63.2721 31.3818 63.2721H42.1618C51.1418 63.2721 54.7418 59.6721 54.7418 50.6921V41.7121" stroke="#292D32" stroke-width="2" stroke-linecap="round" stroke-linejoin="round"/>
<path d="M36.7822 43.2721C40.4422 43.2721 43.1422 40.2921 42.7822 36.6321L41.4622 23.2721H32.1222L30.7822 36.6321C30.4222 40.2921 33.1222 43.2721 36.7822 43.2721Z" stroke="#292D32" stroke-width="2" stroke-linecap="round" stroke-linejoin="round"/>
<path d="M49.4018 43.2721C53.4418 43.2721 56.4018 39.9921 56.0018 35.9721L55.4418 30.4721C54.7218 25.2721 52.7218 23.2721 47.4818 23.2721H41.3818L42.7818 37.2921C43.1218 40.5921 46.1018 43.2721 49.4018 43.2721Z" stroke="#292D32" stroke-width="2" stroke-linecap="round" stroke-linejoin="round"/>
<path d="M24.062 43.2721C27.362 43.2721 30.342 40.5921 30.662 37.2921L31.102 32.8721L32.062 23.2721H25.962C20.722 23.2721 18.722 25.2721 18.002 30.4721L17.462 35.9721C17.062 39.9921 20.022 43.2721 24.062 43.2721Z" stroke="#292D32" stroke-width="2" stroke-linecap="round" stroke-linejoin="round"/>
<path d="M36.7822 53.2721C33.4422 53.2721 31.7822 54.9321 31.7822 58.2721V63.2721H41.7822V58.2721C41.7822 54.9321 40.1222 53.2721 36.7822 53.2721Z" stroke="#292D32" stroke-width="2" stroke-linecap="round" stroke-linejoin="round"/>
</svg>
