<svg width="72" height="72" viewBox="0 0 72 72" fill="none" xmlns="http://www.w3.org/2000/svg">
<circle cx="28.5" cy="50.2512" r="18.5" fill="#C6C6C6" fill-opacity="0.3"/>
<path d="M21.2054 8.70619C19.5075 7.96735 18.2681 6.45537 17.9192 4.63174C17.5702 6.45537 16.3308 7.96735 14.6329 8.70619C14.3026 8.84999 13.4795 9.0714 13.4795 9.0714C13.4795 9.0714 14.302 9.29281 14.6329 9.43661C16.3314 10.1761 17.5702 11.6874 17.9192 13.5111C18.2681 11.6874 19.5075 10.1754 21.2054 9.43661C21.5357 9.29281 22.3588 9.0714 22.3588 9.0714C22.3588 9.0714 21.5363 8.84999 21.2054 8.70619Z" fill="#D5D5D5" fill-opacity="0.43"/>
<path d="M17.848 14C17.549 14 17.2921 13.7876 17.2363 13.494C16.9338 11.9155 15.8583 10.5832 14.3592 9.93072C14.1528 9.84055 13.6052 9.68098 13.3092 9.6009C13.0369 9.52853 12.8477 9.28176 12.8477 9C12.8477 8.71823 13.0369 8.47147 13.3086 8.39851C13.6052 8.31842 14.1528 8.15886 14.3586 8.06869C15.8583 7.41618 16.9338 6.08388 17.2357 4.5054C17.2921 4.21236 17.549 4 17.848 4C18.1469 4 18.4038 4.21236 18.4596 4.50599C18.7621 6.08447 19.8376 7.41678 21.3367 8.06928C21.5426 8.15886 22.0901 8.31902 22.3867 8.3991C22.6584 8.47206 22.8477 8.71883 22.8477 9.00059C22.8477 9.28236 22.6584 9.52913 22.3867 9.60209C22.0901 9.68217 21.5426 9.84174 21.3367 9.9319C19.8376 10.5844 18.7615 11.9167 18.4596 13.4952C18.4032 13.7876 18.1469 14 17.848 14ZM15.2941 9C16.391 9.58192 17.2761 10.4687 17.848 11.5353C18.4198 10.4687 19.3049 9.58192 20.4018 9C19.3049 8.41808 18.4198 7.53126 17.848 6.4647C17.2761 7.53126 16.391 8.41808 15.2941 9Z" fill="#C6C6C6"/>
<path d="M69.8304 37.4214C68.4911 36.8386 67.5135 35.6461 67.2383 34.2077C66.963 35.6461 65.9854 36.8386 64.6461 37.4214C64.3856 37.5348 63.7363 37.7094 63.7363 37.7094C63.7363 37.7094 64.3851 37.884 64.6461 37.9975C65.9858 38.5807 66.963 39.7728 67.2383 41.2111C67.5135 39.7728 68.4911 38.5802 69.8304 37.9975C70.091 37.884 70.7402 37.7094 70.7402 37.7094C70.7402 37.7094 70.0914 37.5348 69.8304 37.4214Z" fill="#D5D5D5" fill-opacity="0.43"/>
<path d="M67.2385 41.7094C66.9993 41.7094 66.7938 41.5395 66.7492 41.3046C66.5072 40.0418 65.6468 38.976 64.4475 38.454C64.2824 38.3819 63.8443 38.2542 63.6075 38.1901C63.3897 38.1322 63.2383 37.9348 63.2383 37.7094C63.2383 37.484 63.3897 37.2866 63.607 37.2282C63.8443 37.1642 64.2824 37.0365 64.447 36.9644C65.6468 36.4424 66.5072 35.3765 66.7488 34.1137C66.7938 33.8793 66.9993 33.7094 67.2385 33.7094C67.4777 33.7094 67.6832 33.8793 67.7278 34.1142C67.9698 35.377 68.8303 36.4428 70.0295 36.9648C70.1942 37.0365 70.6322 37.1646 70.8695 37.2287C71.0869 37.2871 71.2383 37.4845 71.2383 37.7099C71.2383 37.9353 71.0869 38.1327 70.8695 38.1911C70.6322 38.2551 70.1942 38.3828 70.0295 38.4549C68.8303 38.9769 67.9694 40.0428 67.7278 41.3056C67.6827 41.5395 67.4777 41.7094 67.2385 41.7094ZM65.1955 37.7094C66.0729 38.1749 66.781 38.8844 67.2385 39.7376C67.696 38.8844 68.4041 38.1749 69.2816 37.7094C68.4041 37.2439 67.696 36.5344 67.2385 35.6812C66.781 36.5344 66.0729 37.2439 65.1955 37.7094Z" fill="#B1B1B1"/>
<path d="M7.59213 48.9166C6.25287 48.3338 5.27523 47.1413 4.99997 45.7029C4.72472 47.1413 3.74708 48.3338 2.40782 48.9166C2.14727 49.03 1.49805 49.2046 1.49805 49.2046C1.49805 49.2046 2.1468 49.3793 2.40782 49.4927C3.74756 50.0759 4.72472 51.268 4.99997 52.7063C5.27523 51.268 6.25287 50.0754 7.59213 49.4927C7.85268 49.3793 8.5019 49.2046 8.5019 49.2046C8.5019 49.2046 7.85315 49.03 7.59213 48.9166Z" fill="#D5D5D5" fill-opacity="0.43"/>
<path d="M5.00024 53.2046C4.76105 53.2046 4.55556 53.0347 4.51095 52.7998C4.26891 51.537 3.40849 50.4712 2.20923 49.9492C2.04408 49.8771 1.60604 49.7494 1.36922 49.6853C1.15139 49.6274 1 49.43 1 49.2046C1 48.9792 1.15139 48.7818 1.36875 48.7234C1.60604 48.6594 2.04408 48.5317 2.20876 48.4596C3.40849 47.9376 4.26891 46.8717 4.51047 45.6089C4.55556 45.3745 4.76105 45.2046 5.00024 45.2046C5.23943 45.2046 5.44492 45.3745 5.48953 45.6094C5.73156 46.8722 6.59198 47.938 7.79124 48.46C7.95592 48.5317 8.39396 48.6598 8.63125 48.7239C8.84861 48.7823 9 48.9797 9 49.2051C9 49.4305 8.84861 49.6279 8.63125 49.6863C8.39396 49.7504 7.95592 49.878 7.79124 49.9501C6.59198 50.4721 5.73109 51.538 5.48953 52.8008C5.44444 53.0347 5.23943 53.2046 5.00024 53.2046ZM2.95717 49.2046C3.83467 49.6702 4.54274 50.3796 5.00024 51.2329C5.45773 50.3796 6.16581 49.6702 7.0433 49.2046C6.16581 48.7391 5.45773 48.0296 5.00024 47.1764C4.54274 48.0296 3.83467 48.7391 2.95717 49.2046Z" fill="#C6C6C6"/>
<path d="M39.8525 44.226H41.8525C44.0525 44.226 45.8525 42.426 45.8525 40.226V20.226H27.8525C24.8525 20.226 22.2326 21.886 20.8726 24.326" stroke="#C6C6C6" stroke-width="2" stroke-linecap="round" stroke-linejoin="round"/>
<path d="M19.853 50.2259C19.853 53.5459 22.533 56.2259 25.853 56.2259H27.853C27.853 54.0259 29.653 52.2259 31.853 52.2259C34.053 52.2259 35.853 54.0259 35.853 56.2259H43.853C43.853 54.0259 45.653 52.2259 47.853 52.2259C50.053 52.2259 51.853 54.0259 51.853 56.2259H53.853C57.173 56.2259 59.853 53.5459 59.853 50.2259V44.2259H53.853C52.753 44.2259 51.853 43.3259 51.853 42.2259V36.2259C51.853 35.1259 52.753 34.2259 53.853 34.2259H56.433L53.0131 28.2459C52.2931 27.0059 50.9731 26.2259 49.5331 26.2259H45.853V40.2259C45.853 42.4259 44.053 44.2259 41.853 44.2259H39.853" stroke="#C6C6C6" stroke-width="2" stroke-linecap="round" stroke-linejoin="round"/>
<path d="M31.853 60.226C34.0622 60.226 35.853 58.4351 35.853 56.226C35.853 54.0168 34.0622 52.226 31.853 52.226C29.6439 52.226 27.853 54.0168 27.853 56.226C27.853 58.4351 29.6439 60.226 31.853 60.226Z" stroke="#C6C6C6" stroke-width="2" stroke-linecap="round" stroke-linejoin="round"/>
<path d="M47.853 60.226C50.0622 60.226 51.853 58.4351 51.853 56.226C51.853 54.0168 50.0622 52.226 47.853 52.226C45.6439 52.226 43.853 54.0168 43.853 56.226C43.853 58.4351 45.6439 60.226 47.853 60.226Z" stroke="#C6C6C6" stroke-width="2" stroke-linecap="round" stroke-linejoin="round"/>
<path d="M59.853 40.226V44.226H53.853C52.753 44.226 51.853 43.326 51.853 42.226V36.226C51.853 35.126 52.753 34.226 53.853 34.226H56.433L59.853 40.226Z" stroke="#C6C6C6" stroke-width="2" stroke-linecap="round" stroke-linejoin="round"/>
<path d="M19.853 32.226H31.853" stroke="#C6C6C6" stroke-width="2" stroke-linecap="round" stroke-linejoin="round"/>
<path d="M19.853 38.226H27.853" stroke="#C6C6C6" stroke-width="2" stroke-linecap="round" stroke-linejoin="round"/>
<path d="M19.853 44.226H23.853" stroke="#C6C6C6" stroke-width="2" stroke-linecap="round" stroke-linejoin="round"/>
</svg>
