<svg width="37" height="26" viewBox="0 0 37 26" fill="none" xmlns="http://www.w3.org/2000/svg">
<ellipse cx="17.7495" cy="13" rx="15.7773" ry="13" fill="#FDC040" fill-opacity="0.35"/>
<path d="M26.4731 4.0625H10.5659C4.75659 4.0625 0 7.94964 0 12.7684C0 17.5872 4.75659 21.4743 10.5659 21.4743H26.4341C32.2824 21.4743 37 17.5551 37 12.7684C37 7.98177 32.2824 4.0625 26.4731 4.0625ZM26.4731 19.7396H10.5659C5.88725 19.7396 2.10537 16.6234 2.10537 12.7684C2.10537 8.91339 5.88725 5.79726 10.5659 5.79726H26.4341C31.1128 5.79726 34.8946 8.91339 34.8946 12.7684C34.8946 16.6234 31.1517 19.7396 26.4731 19.7396Z" fill="#124F7A"/>
<path d="M29.2803 11.6759L27.7208 11.4832L27.019 10.2946C26.941 10.1982 26.824 10.1018 26.6681 10.1018C26.5121 10.1018 26.3952 10.1661 26.3172 10.2946L25.6154 11.4832L23.9779 11.6438C23.8219 11.6759 23.705 11.7402 23.666 11.8687C23.627 11.9972 23.666 12.1257 23.783 12.1899L24.9136 13.1216L24.6407 14.4387C24.6017 14.5672 24.6797 14.6636 24.7967 14.76C24.9136 14.8242 25.0696 14.8563 25.1865 14.7921L26.5901 14.1817L28.0327 14.7921C28.0717 14.8242 28.1497 14.8242 28.2276 14.8242C28.3056 14.8242 28.3836 14.7921 28.4616 14.76C28.5785 14.6957 28.6565 14.5672 28.6175 14.4387L28.3446 13.1537L29.5142 12.2221C29.6312 12.1257 29.6702 11.9972 29.6312 11.9008C29.5532 11.7723 29.4363 11.6759 29.2803 11.6759Z" fill="#124F7A"/>
<path d="M21.1705 11.6759L19.611 11.4832L18.9092 10.2946C18.8312 10.1982 18.7143 10.1018 18.5583 10.1018C18.4024 10.1018 18.2854 10.1661 18.2074 10.2946L17.5056 11.4832L15.9071 11.6759C15.7511 11.7081 15.6342 11.7723 15.5952 11.9008C15.5562 12.0293 15.5952 12.1578 15.7122 12.2221L16.8428 13.1537L16.5699 14.4708C16.5309 14.5993 16.6089 14.6957 16.7259 14.7921C16.8428 14.8563 16.9988 14.8885 17.1157 14.8242L18.5193 14.2138L19.9619 14.8242C20.0009 14.8563 20.0789 14.8563 20.1568 14.8563C20.2348 14.8563 20.3128 14.8242 20.3908 14.7921C20.5077 14.7278 20.5857 14.5993 20.5467 14.4708L20.2738 13.1858L21.4434 12.2542C21.5604 12.1578 21.5994 12.0293 21.5604 11.9329C21.4434 11.7723 21.3265 11.6759 21.1705 11.6759Z" fill="#124F7A"/>
<path d="M13.0611 11.6759L11.4626 11.4832L10.7608 10.2946C10.6828 10.1982 10.5658 10.1018 10.4099 10.1018C10.2539 10.1018 10.1369 10.1661 10.059 10.2946L9.35718 11.4832L7.75866 11.6759C7.6027 11.7081 7.48574 11.7723 7.44675 11.9008C7.40776 12.0293 7.44675 12.1578 7.56371 12.2221L8.69438 13.1537L8.38247 14.4387C8.34348 14.5672 8.42146 14.6636 8.53842 14.76C8.65539 14.8242 8.81134 14.8563 8.92831 14.7921L10.3319 14.1817L11.7745 14.7921C11.8135 14.8242 11.8914 14.8242 11.9694 14.8242C12.0474 14.8242 12.1254 14.7921 12.2033 14.76C12.3203 14.6957 12.3983 14.5672 12.3593 14.4387L12.0864 13.1537L13.256 12.2221C13.373 12.1257 13.412 11.9972 13.373 11.9008C13.334 11.7723 13.217 11.6759 13.0611 11.6759Z" fill="#124F7A"/>
</svg>
