<svg width="22" height="22" viewBox="0 0 22 22" fill="none" xmlns="http://www.w3.org/2000/svg">
<path fill-rule="evenodd" clip-rule="evenodd" d="M18.0648 3.93511C18.4228 4.29309 18.4228 4.87349 18.0648 5.23147L5.23151 18.0648C4.87353 18.4228 4.29313 18.4228 3.93515 18.0648C3.57717 17.7068 3.57717 17.1264 3.93515 16.7684L16.7685 3.93511C17.1265 3.57713 17.7069 3.57713 18.0648 3.93511Z" fill="#676767"/>
<path fill-rule="evenodd" clip-rule="evenodd" d="M5.95833 4.58333C5.19894 4.58333 4.58333 5.19894 4.58333 5.95833C4.58333 6.71772 5.19894 7.33333 5.95833 7.33333C6.71772 7.33333 7.33333 6.71772 7.33333 5.95833C7.33333 5.19894 6.71772 4.58333 5.95833 4.58333ZM2.75 5.95833C2.75 4.18642 4.18642 2.75 5.95833 2.75C7.73025 2.75 9.16667 4.18642 9.16667 5.95833C9.16667 7.73025 7.73025 9.16667 5.95833 9.16667C4.18642 9.16667 2.75 7.73025 2.75 5.95833Z" fill="#676767"/>
<path fill-rule="evenodd" clip-rule="evenodd" d="M16.0417 14.6667C15.2823 14.6667 14.6667 15.2823 14.6667 16.0417C14.6667 16.8011 15.2823 17.4167 16.0417 17.4167C16.8011 17.4167 17.4167 16.8011 17.4167 16.0417C17.4167 15.2823 16.8011 14.6667 16.0417 14.6667ZM12.8333 16.0417C12.8333 14.2698 14.2698 12.8334 16.0417 12.8334C17.8136 12.8334 19.25 14.2698 19.25 16.0417C19.25 17.8136 17.8136 19.25 16.0417 19.25C14.2698 19.25 12.8333 17.8136 12.8333 16.0417Z" fill="#676767"/>
</svg>
