<svg width="24" height="24" viewBox="0 0 24 24" fill="none" xmlns="http://www.w3.org/2000/svg">
<path d="M17.8405 24C19.9756 24 21.3866 23.4233 22.638 22.0246C22.7363 21.9264 22.8222 21.816 22.9202 21.7178C23.6565 20.8957 24 20.0859 24 19.313C24 18.4295 23.4849 17.6074 22.3927 16.8467L18.8221 14.3682C17.7178 13.6075 16.4295 13.5216 15.3988 14.54L14.454 15.4848C14.1718 15.7669 13.9264 15.7793 13.6442 15.6074C12.9939 15.1903 11.6565 14.0246 10.7485 13.1167C9.79143 12.1719 8.85894 11.1167 8.38039 10.3437C8.20862 10.0615 8.23312 9.82839 8.51535 9.54617L9.44784 8.60139C10.4785 7.57075 10.3927 6.27014 9.63191 5.17815L7.14111 1.60764C6.39264 0.5156 5.57056 0.0125585 4.68712 0.000308293C3.91409 -0.0119942 3.10431 0.343836 2.28223 1.08C2.17177 1.17821 2.07361 1.26406 1.9632 1.34997C0.576709 2.60148 0 4.0125 0 6.13518C0 9.64433 2.15952 13.9142 6.12271 17.8774C10.0614 21.816 14.3436 24 17.8405 24ZM17.8528 22.1104C14.724 22.1718 10.7117 19.7669 7.53375 16.6013C4.33128 13.4111 1.81593 9.264 1.87729 6.13518C1.90184 4.78551 2.36809 3.61986 3.33743 2.78554C3.41104 2.71189 3.4847 2.65053 3.57056 2.58923C3.92639 2.2702 4.33128 2.09844 4.67487 2.09844C5.04296 2.09844 5.36199 2.2334 5.59511 2.60148L7.9755 6.17198C8.23312 6.55237 8.25768 6.9818 7.87729 7.36213L6.79753 8.44187C5.93864 9.28855 6.01225 10.3192 6.62582 11.1413C7.32518 12.086 8.53991 13.4603 9.4724 14.3928C10.4172 15.3375 11.9019 16.6627 12.8466 17.3743C13.6688 17.9878 14.7117 18.0491 15.5583 17.2025L16.6381 16.1228C17.0185 15.7424 17.4356 15.7669 17.816 16.0124L21.3866 18.3927C21.7547 18.6381 21.9019 18.9449 21.9019 19.313C21.9019 19.6688 21.7301 20.0614 21.3988 20.4295C21.3375 20.5154 21.2884 20.5767 21.2148 20.6626C20.3682 21.6196 19.2025 22.0859 17.8528 22.1104Z" fill="#676767"/>
</svg>
