<svg width="72" height="72" viewBox="0 0 72 72" fill="none" xmlns="http://www.w3.org/2000/svg">
<path d="M20.1879 9.63992C18.5138 8.91149 17.2918 7.4208 16.9477 5.62284C16.6037 7.4208 15.3816 8.91149 13.7075 9.63992C13.3818 9.7817 12.5703 9.99999 12.5703 9.99999C12.5703 9.99999 13.3813 10.2183 13.7075 10.3601C15.3822 11.0891 16.6037 12.5792 16.9477 14.3771C17.2918 12.5792 18.5138 11.0885 20.1879 10.3601C20.5136 10.2183 21.3251 9.99999 21.3251 9.99999C21.3251 9.99999 20.5142 9.7817 20.1879 9.63992Z" fill="#FDC040"/>
<path d="M16.9481 15C16.6491 15 16.3922 14.7876 16.3364 14.494C16.0339 12.9155 14.9584 11.5832 13.4593 10.9307C13.2528 10.8406 12.7053 10.681 12.4093 10.6009C12.137 10.5285 11.9478 10.2818 11.9478 10C11.9478 9.71823 12.137 9.47147 12.4087 9.39851C12.7053 9.31842 13.2528 9.15886 13.4587 9.06869C14.9584 8.41618 16.0339 7.08388 16.3358 5.5054C16.3922 5.21236 16.6491 5 16.9481 5C17.247 5 17.5039 5.21236 17.5597 5.50599C17.8622 7.08447 18.9377 8.41678 20.4368 9.06928C20.6427 9.15886 21.1902 9.31902 21.4868 9.3991C21.7585 9.47206 21.9478 9.71883 21.9478 10.0006C21.9478 10.2824 21.7585 10.5291 21.4868 10.6021C21.1902 10.6822 20.6427 10.8417 20.4368 10.9319C18.9377 11.5844 17.8616 12.9167 17.5597 14.4952C17.5033 14.7876 17.247 15 16.9481 15ZM14.3942 10C15.4911 10.5819 16.3762 11.4687 16.9481 12.5353C17.5199 11.4687 18.405 10.5819 19.5019 10C18.405 9.41808 17.5199 8.53126 16.9481 7.4647C16.3762 8.53126 15.4911 9.41808 14.3942 10Z" fill="#292D32"/>
<g opacity="0.8">
<path d="M69.3542 35.0797C68.2133 34.5833 67.3806 33.5674 67.1461 32.342C66.9116 33.5674 66.0789 34.5833 64.938 35.0797C64.7161 35.1763 64.1631 35.3251 64.1631 35.3251C64.1631 35.3251 64.7157 35.4738 64.938 35.5704C66.0793 36.0673 66.9116 37.0828 67.1461 38.3081C67.3806 37.0828 68.2133 36.0669 69.3542 35.5704C69.5761 35.4738 70.1291 35.3251 70.1291 35.3251C70.1291 35.3251 69.5765 35.1763 69.3542 35.0797Z" fill="#FDC040"/>
<path d="M67.1463 38.7325C66.9425 38.7325 66.7675 38.5878 66.7295 38.3877C66.5233 37.312 65.7904 36.404 64.7688 35.9593C64.6281 35.8979 64.255 35.7891 64.0533 35.7346C63.8677 35.6853 63.7388 35.5171 63.7388 35.3251C63.7388 35.133 63.8677 34.9649 64.0529 34.9151C64.255 34.8606 64.6281 34.7518 64.7684 34.6904C65.7904 34.2457 66.5233 33.3377 66.7291 32.262C66.7675 32.0623 66.9425 31.9176 67.1463 31.9176C67.35 31.9176 67.525 32.0623 67.563 32.2624C67.7692 33.3381 68.5021 34.2461 69.5237 34.6908C69.664 34.7518 70.0371 34.861 70.2392 34.9155C70.4244 34.9653 70.5533 35.1334 70.5533 35.3255C70.5533 35.5175 70.4244 35.6857 70.2392 35.7354C70.0371 35.79 69.664 35.8987 69.5237 35.9601C68.5021 36.4048 67.7688 37.3128 67.563 38.3885C67.5246 38.5878 67.35 38.7325 67.1463 38.7325ZM65.4059 35.3251C66.1534 35.7216 66.7566 36.326 67.1463 37.0529C67.536 36.326 68.1391 35.7216 68.8866 35.3251C68.1391 34.9285 67.536 34.3241 67.1463 33.5973C66.7566 34.3241 66.1534 34.9285 65.4059 35.3251Z" fill="#292D32"/>
</g>
<path d="M6.59213 46.6644C5.25287 46.168 4.27523 45.1521 3.99997 43.9268C3.72472 45.1521 2.74708 46.168 1.40782 46.6644C1.14727 46.7611 0.498047 46.9098 0.498047 46.9098C0.498047 46.9098 1.1468 47.0586 1.40782 47.1552C2.74756 47.652 3.72472 48.6675 3.99997 49.8928C4.27523 48.6675 5.25287 47.6516 6.59213 47.1552C6.85268 47.0586 7.5019 46.9098 7.5019 46.9098C7.5019 46.9098 6.85315 46.7611 6.59213 46.6644Z" fill="#FDC040"/>
<path d="M4.00024 50.3173C3.76105 50.3173 3.55556 50.1726 3.51095 49.9725C3.26891 48.8967 2.40849 47.9888 1.20923 47.5441C1.04408 47.4827 0.606039 47.3739 0.369223 47.3193C0.151391 47.27 0 47.1018 0 46.9098C0 46.7178 0.151391 46.5496 0.368749 46.4999C0.606039 46.4453 1.04408 46.3366 1.20876 46.2751C2.40849 45.8305 3.26891 44.9225 3.51047 43.8468C3.55556 43.6471 3.76105 43.5023 4.00024 43.5023C4.23943 43.5023 4.44492 43.6471 4.48953 43.8472C4.73156 44.9229 5.59198 45.8309 6.79124 46.2755C6.95592 46.3366 7.39396 46.4457 7.63125 46.5003C7.84861 46.55 8 46.7182 8 46.9102C8 47.1022 7.84861 47.2704 7.63125 47.3201C7.39396 47.3747 6.95592 47.4835 6.79124 47.5449C5.59198 47.9896 4.73109 48.8976 4.48953 49.9733C4.44444 50.1726 4.23943 50.3173 4.00024 50.3173ZM1.95717 46.9098C2.83467 47.3064 3.54274 47.9108 4.00024 48.6376C4.45773 47.9108 5.16581 47.3064 6.0433 46.9098C5.16581 46.5132 4.45773 45.9089 4.00024 45.182C3.54274 45.9089 2.83467 46.5132 1.95717 46.9098Z" fill="#020203"/>
<circle cx="37.0532" cy="49.5" r="18.5" fill="#FDC040" fill-opacity="0.35"/>
<path d="M43.978 25.0279H36.8496L40.3621 22.024C40.84 21.6154 41.6277 21.6154 42.1055 22.024L43.9393 23.5922C44.4041 23.9898 44.4171 24.6192 43.978 25.0279Z" fill="#FDC040"/>
<path d="M23.5142 25.0279H30.6426L27.13 22.024C26.6522 21.6154 25.8645 21.6154 25.3867 22.024L23.5529 23.5922C23.088 23.9898 23.0751 24.6192 23.5142 25.0279Z" fill="#FDC040"/>
<path d="M16.2378 51.5106C16.2378 57.5106 18.2378 59.5106 24.2378 59.5106H40.2378C46.2378 59.5106 48.2378 57.5106 48.2378 51.5106V35.5106H16.2378V43.1906" stroke="#292D32" stroke-width="2" stroke-miterlimit="10" stroke-linecap="round" stroke-linejoin="round"/>
<path d="M51.2978 29.5106V31.5106C51.2978 33.7106 50.2378 35.5106 47.2978 35.5106H17.2979C14.2379 35.5106 13.2979 33.7106 13.2979 31.5106V29.5106C13.2979 27.3106 14.2379 25.5106 17.2979 25.5106H47.2978C50.2378 25.5106 51.2978 27.3106 51.2978 29.5106Z" stroke="#292D32" stroke-width="2" stroke-miterlimit="10" stroke-linecap="round" stroke-linejoin="round"/>
<path d="M31.5779 25.5106H20.5379C19.8579 24.7706 19.8779 23.6306 20.5979 22.9106L23.4379 20.0706C24.1779 19.3306 25.3979 19.3306 26.1379 20.0706L31.5779 25.5106Z" stroke="#292D32" stroke-width="2" stroke-miterlimit="10" stroke-linecap="round" stroke-linejoin="round"/>
<path d="M44.0376 25.5106H32.9976L38.4376 20.0706C39.1776 19.3306 40.3976 19.3306 41.1376 20.0706L43.9776 22.9106C44.6976 23.6306 44.7176 24.7706 44.0376 25.5106Z" stroke="#292D32" stroke-width="2" stroke-miterlimit="10" stroke-linecap="round" stroke-linejoin="round"/>
<path d="M26.1777 35.5106V45.7906C26.1777 47.3906 27.9377 48.3306 29.2777 47.4706L31.1577 46.2306C31.8377 45.7906 32.6977 45.7906 33.3577 46.2306L35.1377 47.4306C36.4577 48.3106 38.2377 47.3706 38.2377 45.7706V35.5106H26.1777Z" stroke="#292D32" stroke-width="2" stroke-miterlimit="10" stroke-linecap="round" stroke-linejoin="round"/>
</svg>
