<svg width="30" height="26" viewBox="0 0 30 26" fill="none" xmlns="http://www.w3.org/2000/svg">
<ellipse cx="14.3891" cy="13" rx="12.7924" ry="13" fill="#FDC040" fill-opacity="0.35"/>
<path d="M21.4647 4.0625H8.56691C3.85669 4.0625 0 7.94964 0 12.7684C0 17.5872 3.85669 21.4743 8.56691 21.4743H21.4331C26.1749 21.4743 30 17.5551 30 12.7684C30 7.98177 26.1749 4.0625 21.4647 4.0625ZM21.4647 19.7396H8.56691C4.77345 19.7396 1.70706 16.6234 1.70706 12.7684C1.70706 8.91339 4.77345 5.79726 8.56691 5.79726H21.4331C25.2266 5.79726 28.2929 8.91339 28.2929 12.7684C28.2929 16.6234 25.2582 19.7396 21.4647 19.7396Z" fill="#124F7A"/>
<path d="M23.7388 11.6759L22.4743 11.4832L21.9053 10.2946C21.8421 10.1982 21.7472 10.1018 21.6208 10.1018C21.4944 10.1018 21.3995 10.1661 21.3363 10.2946L20.7673 11.4832L19.4396 11.6438C19.3131 11.6759 19.2183 11.7402 19.1867 11.8687C19.155 11.9972 19.1867 12.1257 19.2815 12.1899L20.1983 13.1216L19.977 14.4387C19.9454 14.5672 20.0086 14.6636 20.1034 14.76C20.1982 14.8242 20.3247 14.8563 20.4195 14.7921L21.5576 14.1817L22.7272 14.7921C22.7588 14.8242 22.8221 14.8242 22.8853 14.8242C22.9485 14.8242 23.0117 14.7921 23.075 14.76C23.1698 14.6957 23.233 14.5672 23.2014 14.4387L22.9801 13.1537L23.9285 12.2221C24.0233 12.1257 24.0549 11.9972 24.0233 11.9008C23.9601 11.7723 23.8653 11.6759 23.7388 11.6759Z" fill="#124F7A"/>
<path d="M17.1594 11.6759L15.8949 11.4832L15.3258 10.2946C15.2626 10.1982 15.1678 10.1018 15.0413 10.1018C14.9149 10.1018 14.8201 10.1661 14.7568 10.2946L14.1878 11.4832L12.8917 11.6759C12.7653 11.7081 12.6704 11.7723 12.6388 11.9008C12.6072 12.0293 12.6388 12.1578 12.7336 12.2221L13.6504 13.1537L13.4291 14.4708C13.3975 14.5993 13.4607 14.6957 13.5556 14.7921C13.6504 14.8563 13.7768 14.8885 13.8717 14.8242L15.0097 14.2138L16.1794 14.8242C16.211 14.8563 16.2742 14.8563 16.3374 14.8563C16.4007 14.8563 16.4639 14.8242 16.5271 14.7921C16.6219 14.7278 16.6852 14.5993 16.6536 14.4708L16.4323 13.1858L17.3806 12.2542C17.4755 12.1578 17.5071 12.0293 17.4755 11.9329C17.3806 11.7723 17.2858 11.6759 17.1594 11.6759Z" fill="#124F7A"/>
<path d="M10.5845 11.6759L9.28842 11.4832L8.7194 10.2946C8.65618 10.1982 8.56134 10.1018 8.43489 10.1018C8.30844 10.1018 8.21361 10.1661 8.15038 10.2946L7.58136 11.4832L6.28526 11.6759C6.15881 11.7081 6.06397 11.7723 6.03236 11.9008C6.00075 12.0293 6.03236 12.1578 6.1272 12.2221L7.04395 13.1537L6.79106 14.4387C6.75944 14.5672 6.82267 14.6636 6.9175 14.76C7.01234 14.8242 7.13879 14.8563 7.23363 14.7921L8.37167 14.1817L9.54132 14.7921C9.57293 14.8242 9.63616 14.8242 9.69938 14.8242C9.7626 14.8242 9.82583 14.7921 9.88905 14.76C9.98389 14.6957 10.0471 14.5672 10.0155 14.4387L9.79422 13.1537L10.7426 12.2221C10.8374 12.1257 10.869 11.9972 10.8374 11.9008C10.8058 11.7723 10.711 11.6759 10.5845 11.6759Z" fill="#124F7A"/>
</svg>
