<svg width="32" height="34" viewBox="0 0 32 34" fill="none" xmlns="http://www.w3.org/2000/svg">
<circle cx="15.7616" cy="19.3462" r="12.2308" fill="#FDC040" fill-opacity="0.35"/>
<path d="M28.5583 17.4344C28.5065 17.1269 28.7137 16.8359 29.0207 16.7841C29.3316 16.73 29.6193 16.9395 29.6716 17.247L28.5583 17.4344ZM28.5583 17.4344C28.6807 18.1575 28.7424 18.8851 28.7424 19.5983C28.7424 23.5347 27.0062 27.0919 24.2019 29.4825C24.1957 29.444 24.1892 29.4056 24.1825 29.3674M28.5583 17.4344L1.85137 17.247C1.90373 16.9395 2.18813 16.7311 2.50229 16.7841C2.80929 16.8359 3.01652 17.1269 2.96471 17.4344C2.84236 18.1575 2.78063 18.8851 2.78063 19.5983C2.78063 23.5347 4.51679 27.0919 7.32116 29.4825C7.32736 29.444 7.33381 29.4056 7.34051 29.3674M7.34051 29.3674C7.36989 29.3926 7.3994 29.4178 7.42902 29.4428C7.95691 26.3 10.1844 23.7781 13.1418 22.8285C13.1077 22.8049 13.0739 22.7808 13.0404 22.7563M7.34051 29.3674C7.88805 26.2398 10.1015 23.7284 13.0404 22.7563M7.34051 29.3674C4.58467 26.9957 2.88063 23.4834 2.88063 19.5983C2.88063 18.8908 2.94187 18.1689 3.06331 17.4511L3.06333 17.451C3.12431 17.0891 2.88039 16.7465 2.51893 16.6855L2.5189 16.6854C2.14944 16.6232 1.81426 16.8692 1.75279 17.2302L1.75277 17.2304C1.61959 18.0195 1.55186 18.8165 1.55186 19.5983C1.55186 26.5782 6.53727 32.4699 13.406 33.607C13.4062 33.607 13.4064 33.607 13.4066 33.6071L13.4229 33.5084L24.1825 29.3674M13.0404 22.7563C13.0797 22.7433 13.1191 22.7306 13.1586 22.7182C12.0033 21.8999 11.2464 20.5547 11.2464 19.0339C11.2464 16.5438 13.2719 14.5188 15.7615 14.5188C18.2511 14.5188 20.2766 16.5438 20.2766 19.0339C20.2766 20.5547 19.5198 21.8999 18.3644 22.7182C18.4039 22.7306 18.4433 22.7433 18.4826 22.7563M13.0404 22.7563C11.894 21.9164 11.1464 20.562 11.1464 19.0339C11.1464 16.4885 13.2167 14.4188 15.7615 14.4188C18.3063 14.4188 20.3766 16.4885 20.3766 19.0339C20.3766 20.562 19.629 21.9164 18.4826 22.7563M18.4826 22.7563C18.4491 22.7808 18.4154 22.8049 18.3813 22.8285C21.3386 23.7781 23.5661 26.3 24.094 29.4428C24.1236 29.4178 24.1531 29.3926 24.1825 29.3674M18.4826 22.7563C21.4215 23.7284 23.635 26.2398 24.1825 29.3674M24.1825 29.3674C26.9384 26.9957 28.6424 23.4834 28.6424 19.5983C28.6424 18.8908 28.5812 18.1689 28.4597 17.4511L28.4597 17.451C28.3987 17.0891 28.6425 16.7466 29.0038 16.6855C29.3704 16.6219 29.7088 16.8694 29.7702 17.2302L29.7703 17.2304C29.9034 18.0195 29.9712 18.8165 29.9712 19.5983C29.9712 26.5782 24.9858 32.4699 18.117 33.607C18.0795 33.6136 18.0423 33.6161 18.0075 33.6161C17.6882 33.6161 17.4066 33.3853 17.3527 33.0608L24.1825 29.3674ZM14.0717 33.0443L14.1703 33.0608C14.1703 33.0608 14.1703 33.0607 14.1703 33.0607M14.0717 33.0443L17.3527 33.0607M14.0717 33.0443L14.1703 33.0607M14.0717 33.0443L14.1703 33.0607M14.1703 33.0607C14.2306 32.6987 13.9854 32.3561 13.6234 32.2964M13.6234 32.2964C11.7563 31.9874 10.0467 31.2858 8.56266 30.2908M13.6234 32.2964L13.607 32.3951L13.6233 32.2964C13.6233 32.2964 13.6233 32.2964 13.6234 32.2964ZM8.56266 30.2908C8.85849 26.5407 11.9508 23.649 15.7615 23.649C19.5722 23.649 22.6645 26.5407 22.9604 30.2908M8.56266 30.2908C8.56115 30.3099 8.55971 30.3291 8.55834 30.3483L8.45859 30.3412L8.51465 30.2584C8.53063 30.2693 8.54663 30.28 8.56266 30.2908ZM22.9604 30.2908C21.4763 31.2858 19.7667 31.9874 17.8997 32.2964M22.9604 30.2908C22.9764 30.28 22.9924 30.2693 23.0084 30.2584L23.0644 30.3412M22.9604 30.2908C22.9619 30.3099 22.9633 30.3291 22.9647 30.3483L23.0644 30.3412M17.8997 32.2964C17.5376 32.3561 17.2924 32.6987 17.3527 33.0607M17.8997 32.2964C17.8997 32.2964 17.8997 32.2964 17.8997 32.2964L17.916 32.3951M17.8997 32.2964L17.916 32.3951M17.3527 33.0607L17.4514 33.0443C17.4001 32.7368 17.6084 32.4458 17.916 32.3951M17.3527 33.0607L23.0644 30.3412M17.916 32.3951C19.8178 32.0803 21.5577 31.3612 23.0644 30.3412M12.4752 19.0339C12.4752 17.2218 13.9494 15.7476 15.7615 15.7476C17.5736 15.7476 19.0478 17.2218 19.0478 19.0339C19.0478 20.846 17.5736 22.3202 15.7615 22.3202C13.9494 22.3202 12.4752 20.846 12.4752 19.0339Z" fill="#124F7A" stroke="#124F7A" stroke-width="0.2"/>
<path d="M22.0375 5.43345L22.0375 5.43353C22.1153 5.67353 22.0505 5.93814 21.8694 6.1147L21.8694 6.11472L19.2973 8.62106L19.9046 12.1606L19.9047 12.1606C19.9474 12.4107 19.8451 12.6626 19.6404 12.8108C19.5244 12.8949 19.3876 12.9378 19.25 12.9378C19.1446 12.9378 19.038 12.9132 18.9402 12.8611C18.9401 12.861 18.9401 12.861 18.94 12.861L15.7617 11.1893L12.5838 12.8608C12.5836 12.8608 12.5835 12.8609 12.5833 12.861C12.3583 12.9821 12.0876 12.9592 11.883 12.8108C11.6783 12.6626 11.576 12.4107 11.6187 12.1606L11.6187 12.1606L12.226 8.62106L9.65396 6.11472L9.65394 6.1147C9.47284 5.93814 9.40804 5.67353 9.48588 5.43353L9.4859 5.43345C9.56433 5.19234 9.77192 5.01706 10.0225 4.98071M22.0375 5.43345L13.643 4.55607M22.0375 5.43345C21.9591 5.19234 21.7515 5.01706 21.5009 4.98071L22.0375 5.43345ZM10.0225 4.98071L10.0368 5.07967L10.0224 4.98071L10.0225 4.98071ZM10.0225 4.98071L13.5766 4.46467M13.5766 4.46467L13.5534 4.51183L13.643 4.55607M13.5766 4.46467L15.166 1.24346L15.1661 1.2434C15.2818 1.00928 15.5282 0.9 15.7617 0.9C15.9952 0.9 16.2416 1.00928 16.3573 1.2434L16.3573 1.24346L17.9468 4.46467M13.5766 4.46467L13.6287 4.45711L13.643 4.55607M13.643 4.55607L17.9468 4.46467M17.9468 4.46467L17.8947 4.45711L17.8803 4.55607M17.9468 4.46467L15.2557 1.2877C15.4453 0.904098 16.0781 0.904098 16.2677 1.2877L17.8803 4.55607M17.9468 4.46467L17.97 4.51183L17.8803 4.55607M17.9468 4.46467L21.5009 4.98071L21.4866 5.07967L17.8803 4.55607M18.1198 7.91265L18.1196 7.91283C17.9633 8.06584 17.892 8.28511 17.9289 8.50155L17.9289 8.50164L18.3676 11.0588L16.0711 9.85128L16.0707 9.85107C15.9741 9.80081 15.8685 9.77475 15.7617 9.77475C15.6549 9.77475 15.5493 9.80081 15.4527 9.85107L15.4522 9.85128L13.1558 11.0588L13.5944 8.50164L13.5945 8.50155C13.6314 8.28511 13.5601 8.06584 13.4038 7.91283L13.4036 7.91265L11.5459 6.10298L14.1132 5.72979L14.1137 5.72973C14.3297 5.69739 14.5166 5.56268 14.6135 5.36643L15.7617 3.03931L16.9099 5.36643C17.0067 5.56268 17.1937 5.69739 17.4097 5.72973L17.4102 5.72979L19.9775 6.10298L18.1198 7.91265Z" fill="#124F7A" stroke="#124F7A" stroke-width="0.2"/>
<path d="M2.15745 14.5283L2.15744 14.5284C2.11468 14.7785 2.21704 15.0304 2.4217 15.1785L2.42173 15.1785C2.6271 15.3271 2.89839 15.3486 3.122 15.2288C3.1221 15.2287 3.1222 15.2287 3.1223 15.2286L5.60264 13.9241L8.0832 15.2287C8.08328 15.2288 8.08337 15.2288 8.08345 15.2289C8.18129 15.281 8.28787 15.3055 8.39316 15.3055C8.53074 15.3055 8.66762 15.2627 8.78359 15.1785C8.98825 15.0304 9.09061 14.7785 9.04785 14.5284L9.04784 14.5283L8.57392 11.766L10.5816 9.80967L10.5816 9.80966C10.7627 9.63309 10.8275 9.36848 10.7497 9.12848L10.7497 9.1284C10.6712 8.88729 10.4636 8.71201 10.2131 8.67566L7.43883 8.27315L6.19829 5.75854L6.19826 5.75847C6.08254 5.52435 5.83616 5.41508 5.60264 5.41508C5.36913 5.41508 5.12275 5.52435 5.00703 5.75847L5.007 5.75854L3.76646 8.27315L0.992177 8.67566C0.741644 8.71201 0.534057 8.88729 0.455631 9.1284L0.455605 9.12848C0.377769 9.36848 0.442566 9.63309 0.62367 9.80966L0.623689 9.80967L2.63137 11.766L2.15745 14.5283ZM0.550727 9.15934C0.484588 9.36326 0.539704 9.58814 0.693477 9.73805L0.550727 9.15934ZM2.51566 9.79795L4.30306 9.53829L4.30349 9.53822C4.51952 9.50588 4.70648 9.37117 4.80331 9.17492L4.80331 9.17491L5.60264 7.55444L6.40198 9.17491L6.40198 9.17492C6.49881 9.37117 6.68577 9.50588 6.9018 9.53822L6.90223 9.53829L8.68963 9.79795L7.39634 11.0575L7.39615 11.0577C7.23989 11.2107 7.16856 11.43 7.2055 11.6465L7.20551 11.6465L7.51078 13.4266L5.91208 12.5861L5.91168 12.5859C5.81504 12.5356 5.70941 12.5096 5.60264 12.5096C5.49588 12.5096 5.39025 12.5356 5.29361 12.5859L5.29321 12.5861L3.69451 13.4266L3.99978 11.6465L3.99979 11.6465C4.03673 11.43 3.9654 11.2107 3.80914 11.0577L3.80895 11.0575L2.51566 9.79795Z" fill="#124F7A" stroke="#124F7A" stroke-width="0.2"/>
<path d="M26.5162 5.75854L26.5161 5.75847C26.4004 5.52435 26.154 5.41508 25.9205 5.41508C25.687 5.41508 25.4406 5.52435 25.3249 5.75847L25.3249 5.75854L24.0843 8.27315L21.31 8.67566C21.0595 8.71201 20.8519 8.88729 20.7735 9.1284L20.7735 9.12848C20.6956 9.36848 20.7604 9.63309 20.9415 9.80966L20.9416 9.80967L22.9492 11.766L22.4753 14.5283L22.4753 14.5284C22.4325 14.7785 22.5349 15.0304 22.7396 15.1785C22.9446 15.3272 23.2153 15.3485 23.4397 15.2289C23.4398 15.2288 23.4399 15.2288 23.44 15.2287L25.9205 13.9241L28.4011 15.2287C28.4012 15.2288 28.4012 15.2288 28.4013 15.2289C28.4992 15.281 28.6057 15.3055 28.711 15.3055C28.8486 15.3055 28.9855 15.2627 29.1015 15.1785C29.3061 15.0304 29.4085 14.7785 29.3657 14.5284L29.3657 14.5283L28.8918 11.766L30.8995 9.80967L30.8995 9.80966C31.0806 9.63309 31.1454 9.36848 31.0676 9.12848L31.0675 9.1284C30.9891 8.88729 30.7815 8.71201 30.531 8.67566L27.7567 8.27315L26.5162 5.75854ZM27.7142 11.0575L27.714 11.0577C27.5578 11.2107 27.4864 11.43 27.5234 11.6465L27.5234 11.6465L27.8286 13.4266L26.23 12.5861L26.2296 12.5859C26.1329 12.5356 26.0273 12.5096 25.9205 12.5096C25.8138 12.5096 25.7081 12.5356 25.6115 12.5859L25.6111 12.5861L24.0124 13.4266L24.3177 11.6465L24.3177 11.6465C24.3546 11.43 24.2833 11.2107 24.127 11.0577L24.1268 11.0575L22.8335 9.79795L24.6209 9.53829L24.6214 9.53822C24.8374 9.50588 25.0244 9.37117 25.1212 9.17492L25.1212 9.17491L25.9205 7.55444L26.7199 9.17491L26.7199 9.17492C26.8167 9.37117 27.0036 9.50588 27.2197 9.53822L27.2201 9.53829L29.0075 9.79795L27.7142 11.0575Z" fill="#124F7A" stroke="#124F7A" stroke-width="0.2"/>
<path d="M15.7617 33.8079C16.1286 33.8079 16.426 33.5105 16.426 33.1435C16.426 32.7766 16.1286 32.4792 15.7617 32.4792C15.3947 32.4792 15.0973 32.7766 15.0973 33.1435C15.0973 33.5105 15.3947 33.8079 15.7617 33.8079Z" fill="#124F7A" stroke="#124F7A" stroke-width="0.2"/>
</svg>
