<svg width="14" height="15" viewBox="0 0 14 15" fill="none" xmlns="http://www.w3.org/2000/svg">
<path d="M7 1.66675C5.47072 1.66694 4.0033 2.27068 2.91667 3.34675V2.25008C2.91667 2.09537 2.85521 1.947 2.74581 1.8376C2.63642 1.72821 2.48804 1.66675 2.33333 1.66675C2.17862 1.66675 2.03025 1.72821 1.92085 1.8376C1.81146 1.947 1.75 2.09537 1.75 2.25008V5.16675C1.75 5.32146 1.81146 5.46983 1.92085 5.57923C2.03025 5.68862 2.17862 5.75008 2.33333 5.75008H5.25C5.40471 5.75008 5.55308 5.68862 5.66248 5.57923C5.77187 5.46983 5.83333 5.32146 5.83333 5.16675C5.83333 5.01204 5.77187 4.86367 5.66248 4.75427C5.55308 4.64487 5.40471 4.58341 5.25 4.58341H3.36922C3.96791 3.84075 4.78012 3.29976 5.69614 3.03351C6.61215 2.76727 7.58782 2.7886 8.49132 3.09464C9.39482 3.40068 10.1826 3.97667 10.7483 4.7448C11.3139 5.51292 11.6301 6.43616 11.6543 7.38978C11.6784 8.3434 11.4092 9.28144 10.8831 10.0772C10.357 10.8729 9.59932 11.488 8.71244 11.8393C7.82557 12.1906 6.85223 12.2612 5.92392 12.0416C4.99562 11.822 4.1571 11.3227 3.52164 10.6113C3.47078 10.5534 3.40894 10.5062 3.33972 10.4723C3.27049 10.4385 3.19525 10.4187 3.11833 10.4141C3.0414 10.4094 2.96433 10.4201 2.89156 10.4455C2.81879 10.4708 2.75176 10.5103 2.69435 10.5617C2.63694 10.6131 2.59028 10.6754 2.55707 10.7449C2.52386 10.8145 2.50476 10.8899 2.50086 10.9669C2.49697 11.0438 2.50836 11.1208 2.53438 11.1933C2.56041 11.2659 2.60054 11.3325 2.65247 11.3895C3.30123 12.1146 4.12107 12.666 5.03735 12.9933C5.95364 13.3207 6.93726 13.4137 7.89865 13.2638C8.86004 13.1139 9.76866 12.7259 10.5418 12.1351C11.3149 11.5443 11.928 10.7695 12.3252 9.88126C12.7223 8.993 12.891 8.01951 12.8158 7.04941C12.7407 6.07931 12.424 5.14342 11.8948 4.32696C11.3655 3.51051 10.6404 2.83941 9.78546 2.37478C8.93056 1.91016 7.97301 1.66676 7 1.66675Z" fill="#FDC040"/>
</svg>
