<svg width="24" height="24" viewBox="0 0 24 24" fill="none" xmlns="http://www.w3.org/2000/svg">
<path d="M3.20168 11.5015C2.56249 12.173 1.9754 12.7985 1.37896 13.4126C0.897399 13.9089 0.186744 13.6951 0.02845 13.0092C-0.0583781 12.6346 0.0591738 12.3294 0.304296 12.0703C1.32085 10.9961 2.33407 9.91822 3.34929 8.84256C5.9381 6.09752 8.52692 3.35247 11.1157 0.607422C11.1945 0.523575 11.2734 0.439728 11.3535 0.356636C11.809 -0.116986 12.1997 -0.120008 12.6479 0.35437C13.4387 1.19133 14.2275 2.03056 15.017 2.86903C17.895 5.92605 20.7724 8.98458 23.653 12.0386C23.9015 12.3014 24.0538 12.5953 23.9823 12.9873C23.8561 13.6808 23.1254 13.9436 22.6512 13.4579C22.1082 12.9012 21.5799 12.3264 21.0442 11.7598C20.9787 11.6903 20.9113 11.6231 20.8124 11.5226C20.8071 11.6594 20.8004 11.7568 20.7997 11.855C20.7991 15.5292 20.7991 19.2041 20.7991 22.8783C20.7991 23.6744 20.5152 24 19.8213 24C14.6062 24 9.39119 24 4.17616 24C3.49356 24 3.20102 23.6714 3.20102 22.9039C3.20102 19.2298 3.20102 15.5549 3.20102 11.8807C3.20168 11.7772 3.20168 11.6752 3.20168 11.5015ZM19.1921 22.178C19.1954 22.1017 19.1994 22.0466 19.1994 21.9914C19.2001 17.9962 19.2008 14.0003 19.1934 10.0051C19.1934 9.88574 19.1253 9.73542 19.0458 9.65082C16.7475 7.20188 14.4433 4.75974 12.1403 2.31684C12.0942 2.2685 12.0415 2.22847 11.9967 2.18919C11.9666 2.21336 11.9513 2.22167 11.9393 2.23451C9.59958 4.71593 7.25923 7.19735 4.92556 9.68557C4.84941 9.76639 4.80667 9.9288 4.80667 10.0534C4.80066 13.992 4.80132 17.9313 4.80199 21.8706C4.80199 21.9695 4.80934 22.0677 4.81335 22.1607C6.63874 22.1607 8.43274 22.1607 10.2728 22.1607C10.1626 22.0005 10.0778 21.8766 9.99231 21.7535C9.02985 20.3523 8.15423 18.8921 7.48298 17.2794C6.75696 15.5367 6.78435 13.819 7.55177 12.1171C8.98911 8.93019 12.4869 7.99352 14.9729 10.1108C16.5371 11.4426 17.7815 14.3576 16.5225 17.2786C15.8358 18.8725 14.9803 20.3334 14.0305 21.7331C13.937 21.8713 13.8428 22.0088 13.7273 22.1788C15.5714 22.178 17.3674 22.178 19.1921 22.178ZM11.9807 21.6908C12.0254 21.6568 12.0415 21.65 12.0515 21.6364C12.1777 21.4612 12.3053 21.2874 12.4288 21.1099C13.4334 19.6641 14.3865 18.1813 15.0731 16.5029C15.3803 15.752 15.5239 14.9823 15.4077 14.1461C15.1225 12.099 13.3699 10.5422 11.5813 10.8322C9.23824 11.2114 8.00328 14.0124 8.78339 16.1078C9.5555 18.1828 10.7524 19.9361 11.9807 21.6908Z" fill="#676767"/>
<path d="M11.9987 12.8047C12.7321 12.8039 13.3365 13.48 13.3432 14.3094C13.3499 15.1449 12.7287 15.8451 11.9907 15.8353C11.2567 15.8254 10.6555 15.1388 10.6589 14.3139C10.6622 13.4853 11.2653 12.8054 11.9987 12.8047Z" fill="#676767"/>
</svg>
