<svg width="33" height="34" viewBox="0 0 33 34" fill="none" xmlns="http://www.w3.org/2000/svg">
<path d="M5.50396 16.2332L7.20013 23.884C8.01824 25.1496 9.1051 26.2706 10.4433 27.1541C11.7816 28.0375 13.2395 28.5965 14.7247 28.8515L27.6898 19.7656C28.457 15.4816 26.6829 10.9558 22.8203 8.40582C17.6431 4.98799 10.6755 6.41428 7.25767 11.5915C6.30287 13.0378 5.7265 14.6239 5.50396 16.2332Z" fill="#746BF9"/>
<path d="M27.6898 19.7656L16.8421 9.29017L16.6532 9.43335C16.5714 9.49535 16.5299 9.59694 16.5449 9.69847L16.6385 10.331C16.6489 10.401 16.6051 10.4674 16.5366 10.4854L15.9181 10.6479C15.8189 10.6739 15.7418 10.752 15.7169 10.8516L15.5621 11.4716C15.5449 11.5405 15.4789 11.585 15.4086 11.5753L14.7756 11.4879C14.6739 11.4738 14.5727 11.5163 14.5114 11.5988L14.1305 12.1124C14.0883 12.1693 14.0104 12.1853 13.9492 12.1495L13.3972 11.8268C13.3085 11.7751 13.1987 11.7758 13.1107 11.8287L12.5629 12.1579C12.5021 12.1945 12.4237 12.1794 12.3811 12.1228L11.9952 11.6133C11.9333 11.5317 11.8317 11.49 11.7301 11.5051L11.0976 11.5987C11.0275 11.609 10.9613 11.5652 10.9432 11.4968L10.7807 10.8783C10.7629 10.8104 10.7206 10.7528 10.6637 10.7152C10.6376 10.698 10.6083 10.6849 10.577 10.6771L9.95698 10.5223C9.88803 10.5049 9.84354 10.4391 9.85322 10.3688L9.94069 9.73578C9.9491 9.67469 9.93683 9.61397 9.90809 9.56181L5.50391 16.2331C5.13573 18.8955 5.73737 21.6212 7.20011 23.884L14.7247 28.8515L14.7247 28.8515C20.8413 29.9017 26.6085 25.8042 27.6898 19.7656Z" fill="#FF7186"/>
<path d="M27.4294 20.8872C27.5341 20.5216 27.6214 20.1475 27.6898 19.7656L16.8421 9.29014L16.6531 9.43332C16.5714 9.49533 16.5298 9.59691 16.5448 9.69844L16.6385 10.331C16.6488 10.401 16.605 10.4673 16.5366 10.4853L15.9181 10.6478C15.8189 10.6739 15.7418 10.752 15.7169 10.8515L15.5621 11.4716C15.5449 11.5404 15.4789 11.585 15.4086 11.5753L14.7756 11.4879C14.6739 11.4738 14.5726 11.5163 14.5113 11.5988L14.1305 12.1123C14.0883 12.1692 14.0104 12.1852 13.9492 12.1494L13.3972 11.8268C13.3085 11.775 13.1987 11.7757 13.1107 11.8286L12.5629 12.1578C12.5021 12.1944 12.4237 12.1793 12.3811 12.1227L11.9952 11.6133C11.9333 11.5317 11.8317 11.49 11.7301 11.5051L11.0976 11.5987C11.0275 11.609 10.9613 11.5652 10.9432 11.4968L10.7807 10.8783C10.7629 10.8104 10.7206 10.7528 10.6637 10.7152C10.6376 10.698 10.6083 10.6849 10.577 10.6771L9.95698 10.5223C9.88803 10.5049 9.84354 10.4391 9.85322 10.3688L9.94069 9.73578C9.9491 9.67469 9.93683 9.61397 9.90809 9.56181L5.50391 16.2331C5.13573 18.8955 5.73737 21.6212 7.20011 23.884L14.7247 28.8515L14.7247 28.8515C15.3952 28.9666 16.0614 29.0198 16.7177 29.0155L27.4294 20.8872Z" fill="#FF7186"/>
<path d="M16.6532 9.43334C16.5714 9.49534 16.5299 9.59693 16.5449 9.69846L16.6385 10.331C16.6489 10.401 16.6051 10.4674 16.5366 10.4854L15.9182 10.6479C15.8189 10.6739 15.7419 10.752 15.7169 10.8516L15.5622 11.4716C15.545 11.5404 15.479 11.585 15.4087 11.5753L14.7757 11.4879C14.6739 11.4738 14.5727 11.5163 14.5114 11.5988L14.1306 12.1123C14.0884 12.1692 14.0105 12.1852 13.9493 12.1494L13.3973 11.8268C13.3086 11.775 13.1988 11.7757 13.1108 11.8286L12.563 12.1578C12.5022 12.1944 12.4238 12.1793 12.3811 12.1227L11.9952 11.6133C11.9333 11.5317 11.8317 11.49 11.7301 11.5051L11.0976 11.5987C11.0276 11.609 10.9613 11.5652 10.9432 11.4968L10.7807 10.8783C10.7629 10.8104 10.7206 10.7528 10.6637 10.7152C10.6376 10.698 10.6084 10.6849 10.577 10.6771L9.95702 10.5223C9.88808 10.5049 9.84359 10.4391 9.85327 10.3688L9.94073 9.73577C9.94914 9.67469 9.93688 9.61396 9.90813 9.5618L5.50395 16.2331C5.13578 18.8955 5.73741 21.6212 7.20016 23.884L12.5734 27.4312C12.582 27.4094 12.584 27.3848 12.5768 27.3607C12.4494 26.9352 12.764 26.7289 12.9278 26.6527C12.9756 26.6304 13 26.5767 12.9855 26.5258C12.9019 26.2321 13.1143 26.0626 13.2342 25.9928C13.2767 25.968 13.2956 25.9166 13.2817 25.8694C13.0661 25.1335 13.6266 24.9037 13.775 24.8566C13.7985 24.8491 13.8186 24.8335 13.8322 24.8129L15.1661 22.7961C15.1833 22.7701 15.1885 22.738 15.1802 22.7079L15.0772 22.3339C15.0705 22.3097 15.0552 22.2891 15.0351 22.2742C14.668 22.0018 14.9317 21.6167 14.9317 21.6167L15.2832 21.0843C15.3071 21.0481 15.3072 21.0008 15.2827 20.965C14.848 20.328 15.332 19.9477 15.4735 19.8551C15.4973 19.8395 15.5137 19.8152 15.5195 19.7874L15.5913 19.4465C15.6004 19.4032 15.5821 19.3587 15.5452 19.3343L14.6888 18.7689C14.6391 18.7361 14.6254 18.6692 14.6582 18.6194L16.174 16.3234C16.1897 16.2996 16.2143 16.2829 16.2422 16.2772L17.0283 16.1153C17.0896 16.1027 17.1276 16.0406 17.1102 15.9805C16.5564 14.0613 17.9543 13.2337 18.2902 13.0658C18.3313 13.0453 18.3535 13.0011 18.3485 12.9554C18.3105 12.6099 18.5363 12.4891 18.6687 12.4483C18.7181 12.4331 18.7505 12.385 18.744 12.3337C18.6823 11.8519 18.9704 11.7061 19.1477 11.6619C19.1858 11.6524 19.2124 11.6232 19.2225 11.5886L16.8422 9.29002L16.6532 9.43334Z" fill="#FF4155"/>
<path d="M27.3329 21.2026L16.2995 10.5477L15.9181 10.6479C15.8189 10.674 15.7418 10.752 15.7169 10.8516L15.5621 11.4716C15.545 11.5405 15.4789 11.5851 15.4086 11.5754L14.7756 11.4879C14.6739 11.4738 14.5727 11.5163 14.5114 11.5989L14.1306 12.1124C14.0883 12.1693 14.0104 12.1853 13.9493 12.1495L13.3972 11.8269C13.3085 11.7751 13.1988 11.7758 13.1107 11.8287L12.5629 12.1579C12.5021 12.1945 12.4237 12.1794 12.3811 12.1228L11.9952 11.6133C11.9333 11.5317 11.8317 11.49 11.7301 11.5051L11.0976 11.5987C11.0276 11.609 10.9613 11.5652 10.9433 11.4968L10.7807 10.8783C10.7643 10.8155 10.7263 10.7624 10.6759 10.7249L5.434 18.6653C5.51392 19.6673 5.7273 20.6555 6.0687 21.6016L17.2682 28.9951C21.9534 28.7258 25.9228 25.6034 27.3329 21.2026Z" fill="#FF4155"/>
<path d="M16.2994 10.5477L15.9181 10.6479C15.8189 10.6739 15.7418 10.752 15.7169 10.8516L15.5621 11.4716C15.5449 11.5405 15.4789 11.585 15.4086 11.5753L14.7756 11.4879C14.6739 11.4738 14.5726 11.5163 14.5113 11.5988L14.1305 12.1123C14.0883 12.1692 14.0104 12.1852 13.9493 12.1495L13.3972 11.8268C13.3085 11.775 13.1987 11.7757 13.1107 11.8286L12.5629 12.1578C12.5021 12.1944 12.4237 12.1793 12.3811 12.1227L11.9952 11.6133C11.9332 11.5317 11.8316 11.49 11.7301 11.5051L11.0975 11.5987C11.0275 11.609 10.9612 11.5652 10.9432 11.4968L10.7807 10.8783C10.7642 10.8155 10.7263 10.7624 10.6759 10.725L5.43397 18.6653C5.5139 19.6673 5.72727 20.6555 6.06868 21.6016L13.0232 26.1927C13.0809 26.0956 13.1704 26.03 13.2341 25.9929C13.2766 25.9682 13.2955 25.9167 13.2817 25.8695C13.066 25.1337 13.6265 24.9038 13.7749 24.8567C13.7985 24.8492 13.8185 24.8336 13.8321 24.813L15.1661 22.7962C15.1832 22.7702 15.1884 22.7381 15.1801 22.708L15.0771 22.334C15.0705 22.3098 15.0551 22.2892 15.035 22.2743C14.668 22.0019 14.9317 21.6168 14.9317 21.6168L15.2831 21.0844C15.307 21.0482 15.3071 21.0009 15.2827 20.9651C14.8479 20.3281 15.332 19.9478 15.4734 19.8552C15.4972 19.8396 15.5136 19.8154 15.5194 19.7875L15.5912 19.4466C15.6004 19.4033 15.5821 19.3588 15.5451 19.3344L14.6887 18.769C14.639 18.7362 14.6253 18.6693 14.6581 18.6196L16.1739 16.3235C16.1896 16.2997 16.2142 16.2831 16.2422 16.2773L17.0282 16.1155C17.0895 16.1028 17.1275 16.0407 17.1101 15.9806C16.5564 14.0614 17.9542 13.2339 18.2901 13.066C18.3312 13.0454 18.3534 13.0012 18.3484 12.9555C18.3308 12.7951 18.3702 12.6836 18.4306 12.6056L16.2994 10.5477Z" fill="#E80054"/>
<path d="M6.29532 22.1777L16.6493 29.0131C17.0484 29.0121 17.4465 28.9904 17.842 28.9473L5.88721 21.0552C6.003 21.4358 6.13945 21.8104 6.29532 22.1777Z" fill="#E80054"/>
<path d="M6.29532 22.1777L12.9827 26.5925C12.9903 26.5717 12.9919 26.5486 12.9855 26.526C12.9019 26.2322 13.1143 26.0627 13.2342 25.9929C13.2566 25.9798 13.2722 25.9592 13.2802 25.9358L5.88721 21.0552C6.003 21.4358 6.13945 21.8104 6.29532 22.1777Z" fill="#CC0053"/>
<path d="M5.49225 19.2231L10.973 10.9211C11.0813 10.757 11.0361 10.5362 10.8721 10.4279C10.708 10.3196 10.4872 10.3647 10.3788 10.5289L5.40261 18.0666C5.41288 18.4539 5.44247 18.8399 5.49225 19.2231Z" fill="#CC0053"/>
<path d="M16.0522 10.8038C27.6526 22.0093 27.156 21.5199 27.2039 21.5802C27.2947 21.3283 27.3761 21.0743 27.4479 20.8188L16.5468 10.2916C16.4053 10.155 16.18 10.159 16.0434 10.3004C15.9068 10.4418 15.9107 10.6671 16.0522 10.8038Z" fill="#E80054"/>
<path d="M18.6686 12.4485C18.6952 12.4403 18.7165 12.4224 18.7299 12.3998L16.5468 10.2916C16.4053 10.155 16.18 10.159 16.0434 10.3004C15.9068 10.4418 15.9107 10.6672 16.0522 10.8038C16.8738 11.5975 17.6348 12.3325 18.3395 13.0132C18.3472 12.9955 18.3506 12.9758 18.3484 12.9556C18.3104 12.6101 18.5362 12.4893 18.6686 12.4485Z" fill="#CC0053"/>
<path d="M23.2608 20.4436C23.2616 20.4402 23.2623 20.4368 23.263 20.4334C23.2968 20.2609 23.2238 20.087 23.0772 19.9903C23.077 19.9901 23.0769 19.99 23.0768 19.99C22.9299 19.8933 22.7412 19.8948 22.5959 19.994C22.5935 19.9956 22.5912 19.9973 22.5888 19.999L19.727 22.0568C19.5674 22.1716 19.5311 22.394 19.6459 22.5537C19.7607 22.7134 19.9831 22.7496 20.1427 22.6349L20.6563 22.2656L21.9284 23.1054L21.7891 23.7205C21.7555 23.8691 21.8201 24.017 21.9402 24.0963C21.975 24.1193 22.0146 24.1365 22.0577 24.1463C22.2494 24.1897 22.4401 24.0695 22.4835 23.8777L23.2608 20.4436ZM21.2747 21.8208L22.4027 21.0097L22.0963 22.3631L21.2747 21.8208Z" fill="#E3E7FC"/>
<path d="M23.9329 24.5552C23.9323 24.5549 23.9317 24.5545 23.9312 24.5541C23.6942 24.3995 23.4394 24.2327 23.252 24.1092L24.8966 21.618C25.005 21.4539 24.9597 21.2331 24.7956 21.1248C24.6316 21.0164 24.4107 21.0616 24.3024 21.2257L22.4632 24.0116C22.3677 24.1563 22.3903 24.3486 22.5167 24.4673C22.5356 24.485 22.5518 24.5002 22.8583 24.7025C23.0069 24.8007 23.2238 24.9428 23.5422 25.1505C23.7069 25.2579 23.9275 25.2114 24.0349 25.0467C24.1419 24.8826 24.0962 24.663 23.9329 24.5552Z" fill="#E3E7FC"/>
<path d="M19.0427 22.1835C19.2068 22.2918 19.4276 22.2466 19.5359 22.0825L21.3767 19.2942C21.485 19.1301 21.4398 18.9094 21.2757 18.8011C21.1116 18.6928 20.8908 18.7379 20.7825 18.902L18.9418 21.6903C18.8335 21.8544 18.8787 22.0752 19.0427 22.1835Z" fill="#E3E7FC"/>
<path d="M13.4583 19.791L12.3365 19.0504C12.1725 18.9421 11.9516 18.9873 11.8433 19.1514L10.016 21.9193C9.90767 22.0834 9.95291 22.3042 10.117 22.4125C10.281 22.5208 10.5018 22.4756 10.6102 22.3115L11.345 21.1984L12.0806 21.6841C12.2447 21.7924 12.4655 21.7472 12.5738 21.5831C12.6821 21.419 12.6369 21.1982 12.4729 21.0899L11.7372 20.6043L12.2413 19.8407L13.0661 20.3852C13.2301 20.4935 13.451 20.4483 13.5593 20.2843C13.6676 20.1201 13.6224 19.8993 13.4583 19.791Z" fill="#E3E7FC"/>
<path d="M15.324 21.0226L14.2021 20.282C14.0381 20.1737 13.8172 20.2189 13.7089 20.383L11.8816 23.1509C11.7733 23.315 11.8185 23.5358 11.9826 23.6441C12.1466 23.7524 12.3674 23.7072 12.4758 23.5431L13.2106 22.4301L13.9462 22.9157C14.1103 23.024 14.3311 22.9788 14.4394 22.8148C14.5478 22.6507 14.5026 22.4299 14.3385 22.3215L13.6028 21.8359L14.1069 21.0723L14.9317 21.6168C15.0957 21.7251 15.3165 21.6799 15.4248 21.5158C15.5332 21.3517 15.488 21.1309 15.324 21.0226Z" fill="#E3E7FC"/>
<path d="M14.3458 19.0644L15.5099 19.833C15.674 19.9413 15.8948 19.8961 16.0031 19.732C16.1115 19.5679 16.0663 19.3471 15.9022 19.2388L15.0351 18.6664L15.5549 17.8792L16.3361 18.3949C16.5002 18.5032 16.721 18.458 16.8293 18.2939C16.9377 18.1298 16.8924 17.9091 16.7283 17.8007L15.9471 17.285L16.4668 16.4977L17.3339 17.0701C17.4979 17.1785 17.7187 17.1333 17.8271 16.9692C17.9354 16.805 17.8902 16.5843 17.7261 16.476L16.562 15.7074C16.3979 15.5991 16.1771 15.6443 16.0688 15.8084L14.2449 18.5712C14.1365 18.7353 14.1817 18.9561 14.3458 19.0644Z" fill="#E3E7FC"/>
<path d="M16.798 22.8524C16.9621 22.9607 17.1829 22.9156 17.2912 22.7515C17.3995 22.5874 17.3543 22.3666 17.1902 22.2583L16.0261 21.4898C15.862 21.3815 15.6412 21.4267 15.5329 21.5907L13.709 24.3535C13.6006 24.5176 13.6459 24.7384 13.81 24.8467L14.9741 25.6153C15.1381 25.7236 15.3589 25.6784 15.4673 25.5143C15.5756 25.3502 15.5304 25.1294 15.3663 25.0211L14.4993 24.4487L15.019 23.6615L15.8002 24.1772C15.9643 24.2855 16.1851 24.2403 16.2934 24.0762C16.4017 23.9121 16.3565 23.6914 16.1924 23.5831L15.4112 23.0673L15.9309 22.28L16.798 22.8524Z" fill="#E3E7FC"/>
<path d="M18.6638 21.4278C18.7441 21.4161 18.825 21.3983 18.9043 21.3747C19.0928 21.3186 19.2001 21.1204 19.144 20.932C19.088 20.7436 18.8898 20.6363 18.7013 20.6922C18.6549 20.7061 18.6078 20.7165 18.5615 20.7232C18.323 20.7578 18.0873 20.6995 17.8609 20.5501C17.256 20.1507 17.0887 19.3337 17.4881 18.7288C17.8874 18.1239 18.7044 17.9566 19.3093 18.356C19.5292 18.5012 19.6985 18.7058 19.7989 18.948C19.8743 19.1295 20.0825 19.2158 20.2642 19.1404C20.4458 19.0651 20.5319 18.8568 20.4566 18.6752C20.3015 18.3014 20.0405 17.9855 19.7016 17.7618C18.769 17.1462 17.5095 17.404 16.8939 18.3366C16.2783 19.2691 16.5361 20.5286 17.4686 21.1443C17.8398 21.3893 18.253 21.4873 18.6638 21.4278Z" fill="#E3E7FC"/>
<path d="M10.4391 16.5038C11.0017 16.8752 11.7096 16.8298 12.1223 16.3957C12.4312 16.0708 12.5796 15.4767 12.07 14.7835C11.8047 14.4225 11.5719 14.0663 11.5071 13.9662C11.4716 13.8642 11.4938 13.7556 11.5684 13.6716C11.6158 13.6182 11.7529 13.502 12.0014 13.5765C12.5057 13.7276 12.6884 14.2874 12.6928 14.3012C12.7495 14.4886 12.9469 14.5951 13.1347 14.5394C13.3232 14.4835 13.4307 14.2853 13.3748 14.0969C13.3635 14.0587 13.0871 13.1585 12.2056 12.8944C11.7674 12.7632 11.3192 12.8799 11.0359 13.1989C10.7712 13.4971 10.7047 13.9081 10.8626 14.2716C10.87 14.2889 10.8789 14.3055 10.889 14.3213C10.9003 14.3391 11.1704 14.7618 11.4964 15.2052C11.7112 15.4975 11.7514 15.7526 11.6064 15.9051C11.4582 16.061 11.1277 16.1052 10.8313 15.9096C10.5399 15.7172 10.3369 15.4137 10.2883 15.0977C10.2584 14.9034 10.0766 14.7701 9.88229 14.8C9.68797 14.8299 9.5547 15.0117 9.58461 15.206C9.66324 15.7173 9.98267 16.2025 10.4391 16.5038Z" fill="#E3E7FC"/>
<path d="M19.0037 24.9043C19.3756 24.3409 19.2015 23.5678 18.6155 23.1809L17.8746 22.6918C17.8744 22.6917 17.8743 22.6916 17.8741 22.6915C17.8739 22.6914 17.8738 22.6913 17.8736 22.6912C17.7096 22.5829 17.4887 22.628 17.3804 22.7921L15.5397 25.5804C15.4313 25.7446 15.4765 25.9654 15.6406 26.0737C15.8047 26.182 16.0255 26.1368 16.1338 25.9727L16.7449 25.0471L16.9917 26.8208C17.0064 26.9263 17.0658 27.0146 17.1482 27.069C17.2179 27.115 17.3041 27.1368 17.3933 27.1244C17.588 27.0973 17.7239 26.9175 17.6968 26.7228L17.5058 25.3493C18.05 25.5661 18.6806 25.3937 19.0037 24.9043ZM17.6587 24.6302C17.5568 24.563 17.3751 24.4441 17.2172 24.3411C17.3182 24.1863 17.4338 24.0095 17.4989 23.9109C17.554 23.8274 17.6743 23.6443 17.7803 23.4827L18.2232 23.7751C18.4772 23.9427 18.5625 24.2802 18.4095 24.512C18.2565 24.7438 17.9127 24.7979 17.6587 24.6302Z" fill="#E3E7FC"/>
<path d="M12.0709 17.5809C12.235 17.6892 12.4558 17.644 12.5641 17.4799L13.1686 16.5642C13.3377 16.6746 13.5386 16.8058 13.6491 16.8788C14.2553 17.279 15.0695 17.1183 15.464 16.5207C15.8586 15.923 15.6865 15.1112 15.0803 14.711L14.3039 14.1984C14.294 14.1919 14.2837 14.1858 14.2733 14.1804C14.2646 14.1758 14.2557 14.1718 14.2468 14.1681C14.2451 14.1673 14.2434 14.1664 14.2416 14.1657C14.231 14.1614 14.2202 14.1576 14.2094 14.1544C14.2092 14.1543 14.209 14.1542 14.2088 14.1542C14.1867 14.1477 14.1641 14.1434 14.1416 14.1412C14.1412 14.1412 14.1408 14.1411 14.1405 14.1411C14.1299 14.1401 14.1194 14.1397 14.1088 14.1397C14.1077 14.1397 14.1066 14.1396 14.1055 14.1396C14.0944 14.1397 14.0834 14.1403 14.0723 14.1414C14.0718 14.1415 14.0712 14.1414 14.0707 14.1415C14.0591 14.1427 14.0475 14.1445 14.036 14.1468C14.036 14.1468 14.0359 14.1468 14.0359 14.1469C14.0343 14.1471 14.0328 14.1477 14.0313 14.1481C14.0215 14.1502 14.0119 14.1526 14.0023 14.1556C13.9994 14.1564 13.9967 14.1576 13.9938 14.1586C13.9856 14.1613 13.9775 14.1642 13.9694 14.1675C13.9669 14.1686 13.9646 14.1699 13.9622 14.1709C13.954 14.1746 13.9458 14.1784 13.9379 14.1827C13.936 14.1838 13.9341 14.185 13.9321 14.1861C13.924 14.1907 13.9159 14.1955 13.9081 14.2008C13.9064 14.2019 13.9049 14.2033 13.9032 14.2044C13.8954 14.2099 13.8877 14.2155 13.8803 14.2217C13.8783 14.2233 13.8765 14.2252 13.8745 14.2269C13.8678 14.2328 13.8611 14.2387 13.8548 14.2451C13.8518 14.2482 13.849 14.2516 13.8461 14.2547C13.8411 14.2601 13.8361 14.2654 13.8314 14.2712C13.8268 14.2769 13.8226 14.283 13.8183 14.2891C13.8158 14.2926 13.8131 14.2958 13.8107 14.2994L11.97 17.0877C11.8616 17.2517 11.9068 17.4725 12.0709 17.5809ZM14.688 15.3052C14.9618 15.4859 15.0451 15.8629 14.8699 16.1284C14.6946 16.3939 14.3152 16.4654 14.0414 16.2847C13.9316 16.2122 13.7333 16.0825 13.5647 15.9725C13.6781 15.7988 13.813 15.5923 13.8873 15.4797C13.95 15.3847 14.0907 15.1705 14.2096 14.9893L14.688 15.3052Z" fill="#E3E7FC"/>
<path d="M10.2732 17.6737C9.34069 17.058 8.08117 17.3159 7.46552 18.2484C6.8499 19.181 7.10769 20.4405 8.04025 21.0561C8.97281 21.6718 10.2323 21.4139 10.848 20.4814C11.4636 19.5488 11.2058 18.2893 10.2732 17.6737ZM8.4325 20.462C7.82758 20.0626 7.66034 19.2456 8.05969 18.6407C8.45904 18.0358 9.27608 17.8685 9.881 18.2678C10.4859 18.6672 10.6531 19.4842 10.2538 20.0892C9.85444 20.6941 9.03743 20.8613 8.4325 20.462Z" fill="#E3E7FC"/>
<path d="M19.291 26.9557C19.4551 27.064 19.6759 27.0188 19.7842 26.8547L20.9224 25.1305C21.0308 24.9664 20.9856 24.7456 20.8215 24.6373C20.6575 24.529 20.4366 24.5741 20.3283 24.7383L19.19 26.4624C19.0817 26.6265 19.1269 26.8473 19.291 26.9557Z" fill="#E3E7FC"/>
<path d="M19.2743 27.4593C19.2623 27.431 19.2474 27.4035 19.2298 27.3777C19.2126 27.3521 19.1926 27.3281 19.1707 27.3062C19.1264 27.2622 19.0737 27.2274 19.0158 27.204C18.9874 27.1927 18.9575 27.1837 18.9268 27.1776C18.8965 27.1719 18.8654 27.169 18.8346 27.1691C18.8034 27.169 18.7722 27.1722 18.7416 27.1782C18.6193 27.2033 18.5098 27.2777 18.441 27.3819C18.4238 27.408 18.4091 27.4354 18.3973 27.4645C18.3857 27.4932 18.3768 27.5231 18.371 27.5535C18.3652 27.5838 18.3623 27.6149 18.3622 27.646C18.3627 27.6771 18.366 27.7083 18.3722 27.7385C18.3781 27.7692 18.3876 27.7987 18.3998 27.8278C18.4117 27.8562 18.4266 27.8836 18.4439 27.9092C18.4615 27.935 18.4815 27.9591 18.503 27.9807C18.5254 28.0028 18.5499 28.0225 18.5757 28.0395C18.6014 28.0565 18.6291 28.0713 18.6578 28.0829C18.6866 28.0946 18.7165 28.1034 18.7469 28.1092C18.7775 28.1153 18.8086 28.1182 18.8394 28.118C18.8709 28.1178 18.9018 28.1149 18.9323 28.1083C18.9626 28.1021 18.9926 28.0929 19.0209 28.0809C19.0495 28.0685 19.077 28.0537 19.1026 28.0365C19.1282 28.0192 19.1522 27.9992 19.1741 27.9773C19.1962 27.9549 19.216 27.931 19.2332 27.9049C19.302 27.8007 19.3271 27.6705 19.302 27.5482C19.2959 27.518 19.2867 27.488 19.2743 27.4593Z" fill="#E3E7FC"/>
<path d="M16.5547 10.5542C16.6581 10.527 16.7246 10.4264 16.7089 10.3206L16.6153 9.68805C16.6041 9.61225 16.6351 9.53639 16.6961 9.49013L17.2055 9.10416C17.2909 9.03942 17.3138 8.92074 17.2586 8.82889L16.9294 8.28113C16.8899 8.21546 16.8894 8.13343 16.9281 8.06721L17.2507 7.51516C17.3047 7.42276 17.2805 7.30455 17.1945 7.24081L16.681 6.85992C16.6194 6.81426 16.5876 6.73863 16.5981 6.66268L16.6856 6.02966C16.7003 5.92348 16.6326 5.82337 16.5286 5.7974L15.9085 5.64252C15.8342 5.62399 15.7759 5.56639 15.7564 5.49228L15.594 4.87384C15.5668 4.7704 15.4662 4.70397 15.3604 4.7196L14.7278 4.81321C14.652 4.82443 14.5762 4.79342 14.5299 4.73238L14.1439 4.22303C14.0791 4.1376 13.9605 4.1147 13.8686 4.16991L13.3209 4.49911C13.2552 4.53857 13.1732 4.53908 13.107 4.50044L12.5549 4.17786C12.4626 4.12387 12.3443 4.14808 12.2806 4.23402L11.8997 4.74757C11.854 4.80913 11.7784 4.84089 11.7024 4.8304L11.0694 4.74287C10.9632 4.72821 10.8631 4.79593 10.8371 4.89988L10.6823 5.51994C10.6637 5.59426 10.6062 5.65257 10.5321 5.67204L9.91362 5.83451C9.81019 5.8617 9.74376 5.96233 9.75939 6.06813L9.853 6.70067C9.86421 6.77648 9.83325 6.85234 9.77217 6.8986L9.26284 7.28456C9.17744 7.34926 9.15455 7.46798 9.20972 7.55983L9.53892 8.10755C9.57838 8.17327 9.57892 8.25526 9.54022 8.32145L9.21764 8.8735C9.16362 8.9659 9.18782 9.08411 9.2738 9.14785L9.78735 9.52874C9.84895 9.5744 9.88071 9.65003 9.87018 9.72598L9.78271 10.359C9.76801 10.4652 9.83573 10.5653 9.93972 10.5913L10.5597 10.7461C10.6341 10.7646 10.6924 10.8222 10.7118 10.8963L10.8743 11.5148C10.9015 11.6182 11.0021 11.6847 11.1079 11.669L11.7405 11.5754C11.8163 11.5642 11.8921 11.5952 11.9384 11.6562L12.3244 12.1655C12.3891 12.251 12.5078 12.2739 12.5996 12.2187L13.1474 11.8895C13.2131 11.85 13.2951 11.8495 13.3613 11.8882L13.9133 12.2107C14.0057 12.2647 14.124 12.2405 14.1877 12.1546L14.5686 11.641C14.6142 11.5794 14.6898 11.5477 14.7658 11.5582L15.3988 11.6457C15.505 11.6603 15.6051 11.5926 15.6311 11.4887L15.7859 10.8686C15.8045 10.7943 15.862 10.736 15.9361 10.7165L16.5547 10.5542Z" fill="#FFDD40"/>
<path d="M17.688 5.89576C17.6868 5.89498 17.6856 5.89419 17.6844 5.89335C17.5216 5.78312 17.479 5.56179 17.5893 5.39898L18.1666 4.5464C18.2769 4.38356 18.4994 4.33983 18.661 4.45123C18.8238 4.56146 18.8664 4.78279 18.7561 4.94559L18.1788 5.79814C18.0694 5.95986 17.8505 6.00301 17.688 5.89576Z" fill="#FFDD40"/>
<path d="M19.1368 9.57074C19.1356 9.56996 19.1344 9.56917 19.1332 9.56833L18.2806 8.99094C18.1178 8.88068 18.0752 8.65938 18.1855 8.49654C18.2949 8.33496 18.5139 8.29179 18.6763 8.39902C18.6775 8.3998 18.6787 8.40058 18.6798 8.40141L19.5324 8.97879C19.6952 9.08902 19.7378 9.31035 19.6275 9.47315C19.5181 9.63484 19.2992 9.67799 19.1368 9.57074Z" fill="#FFDD40"/>
<path d="M18.6276 7.32108C18.5503 7.27011 18.493 7.18929 18.4741 7.09123C18.4369 6.89818 18.5633 6.71155 18.7564 6.67438L19.7676 6.47977C19.9607 6.44256 20.1473 6.56893 20.1844 6.76206C20.2216 6.95511 20.0952 7.14171 19.9021 7.17891L18.891 7.37354C18.7959 7.39185 18.7024 7.37049 18.6276 7.32108Z" fill="#FFDD40"/>
<path d="M12.5549 4.17779C12.4625 4.1238 12.3443 4.14801 12.2806 4.23395L11.8997 4.7475C11.854 4.80908 11.7784 4.84086 11.7024 4.83034L11.0694 4.74287C10.9632 4.72821 10.8631 4.79592 10.8371 4.89988L10.6823 5.51994C10.6637 5.59426 10.6062 5.65256 10.5321 5.67204L9.91362 5.8345C9.81018 5.8617 9.74375 5.96233 9.75938 6.06813L9.85299 6.70067C9.86421 6.77647 9.83324 6.85233 9.77216 6.89859L9.26284 7.28456C9.17741 7.3493 9.15452 7.46802 9.20972 7.55983L9.53891 8.10755C9.57841 8.17329 9.57891 8.25525 9.54021 8.32145L9.21763 8.87349C9.16361 8.96589 9.18781 9.0841 9.27379 9.14784L9.78734 9.52873C9.84894 9.5744 9.8807 9.65003 9.87017 9.72598L9.78271 10.359C9.76804 10.4652 9.83572 10.5653 9.93972 10.5913L10.5597 10.7461C10.6341 10.7646 10.6924 10.8222 10.7118 10.8963L10.8743 11.5148C10.9015 11.6182 11.0021 11.6847 11.1079 11.669L11.7405 11.5754C11.8163 11.5642 11.8921 11.5952 11.9384 11.6562L12.3244 12.1655C12.3891 12.251 12.5078 12.2739 12.5996 12.2187L13.1474 11.8895C12.2103 10.9118 13.1711 10.0153 13.1711 10.0153C13.1711 10.0153 14.0438 9.26016 13.2341 8.19421C12.4244 7.12836 13.257 6.36536 13.257 6.36536C12.2388 5.69319 13.1069 4.50037 13.1069 4.50037L12.5549 4.17779Z" fill="#FFB332"/>
<path d="M13.7342 8.24896L13.3293 7.68888C13.3278 7.6868 13.3263 7.6847 13.3248 7.6827C13.1372 7.43456 13.2539 7.2422 13.3401 7.14962C13.4833 6.99593 13.7521 6.90514 14.0038 7.06893C14.2631 7.23737 14.3296 7.29831 14.4408 7.55547C14.5188 7.73584 14.7283 7.819 14.9088 7.74098C15.0893 7.66301 15.1723 7.45348 15.0943 7.27298C14.9704 6.98623 14.8478 6.82049 14.6672 6.66987L14.7306 6.57372C14.839 6.40962 14.7937 6.18885 14.6296 6.08052C14.4655 5.97218 14.2447 6.01738 14.1364 6.18145L14.0481 6.31529C13.5765 6.18285 13.1005 6.36243 12.8192 6.66428C12.438 7.07336 12.4122 7.65343 12.7545 8.1089L13.1594 8.66896C13.1609 8.67103 13.1624 8.6731 13.1639 8.67514C13.3516 8.9232 13.2349 9.11559 13.1486 9.2082C13.0054 9.36187 12.7367 9.45265 12.4849 9.28886C12.2252 9.12074 12.1592 9.05954 12.048 8.80231C11.97 8.62182 11.7605 8.53875 11.58 8.6168C11.3995 8.69478 11.3164 8.90431 11.3945 9.0848C11.5184 9.37161 11.6411 9.53697 11.8218 9.68764L11.7377 9.81498C11.6294 9.97908 11.6746 10.1999 11.8387 10.3082C12.0028 10.4166 12.2236 10.3714 12.332 10.2073L12.4407 10.0425C12.9123 10.175 13.3883 9.99538 13.6696 9.69349C14.0506 9.28442 14.0764 8.70434 13.7342 8.24896Z" fill="#FF9100"/>
</svg>
