<svg width="55" height="69" viewBox="0 0 55 69" fill="none" xmlns="http://www.w3.org/2000/svg">
<path d="M27.5 66.8026C13.3645 66.8026 1.86182 55.3162 1.86182 41.2005C1.86182 30.8387 8.05362 21.5616 17.6341 17.5678L17.982 17.4229L27.515 3.21725L37.0555 17.4354L37.4009 17.5803C46.9614 21.5816 53.1382 30.8512 53.1382 41.198C53.1382 55.3162 41.638 66.8026 27.5 66.8026Z" fill="#197CC1"/>
<path d="M37.8839 16.4282L27.515 0.972931L17.1537 16.4132C7.44048 20.4644 0.610474 30.034 0.610474 41.2005C0.610474 56.0285 12.6487 68.0522 27.5 68.0522C42.3488 68.0522 54.3896 56.031 54.3896 41.2005C54.3896 30.0465 47.5771 20.4844 37.8839 16.4282ZM27.5 65.553C14.0527 65.553 3.11322 54.6264 3.11322 41.2005C3.11322 31.3436 9.00219 22.5213 18.1172 18.7225L18.813 18.4325L19.2334 17.8077L27.515 5.46405L35.8067 17.8202L36.2246 18.445L36.9179 18.735C46.0129 22.5413 51.8893 31.3611 51.8893 41.203C51.8868 54.6264 40.9473 65.553 27.5 65.553Z" fill="white"/>
<path d="M12.989 41.3605C13.2618 42.5576 14.1203 43.0799 15.4993 43.0799C16.8758 43.0799 17.4664 42.5376 17.4664 41.6679C17.4664 40.6982 16.8908 40.2758 14.8511 39.8034C11.605 39.0412 10.8016 37.864 10.8016 36.2545C10.8016 34.1802 12.3583 32.7681 15.1789 32.7681C18.3474 32.7681 19.6088 34.4701 19.779 36.212H17.1811C17.056 35.4773 16.6506 34.6825 15.1114 34.6825C14.0652 34.6825 13.4345 35.1149 13.4345 35.9621C13.4345 36.7894 13.9401 37.1243 15.8672 37.5691C19.336 38.3864 20.0968 39.676 20.0968 41.3555C20.0968 43.5298 18.45 45.0218 15.2966 45.0218C12.2707 45.0218 10.674 43.5323 10.3887 41.363H12.989V41.3605Z" fill="white"/>
<path d="M24.2089 44.0597V48.2759H21.7462V38.064C21.7462 37.3417 21.7462 36.627 21.7286 35.9097H24.1288C24.1638 36.1471 24.2089 36.6944 24.2089 37.0243C24.5918 36.367 25.3927 35.7022 26.8117 35.7022C28.8239 35.7022 30.3781 37.3842 30.3781 40.1559C30.3781 43.3124 28.6412 45.0594 26.4739 45.0594C25.2075 45.0569 24.5492 44.582 24.2089 44.0597ZM27.8629 40.2508C27.8629 38.6138 27.1971 37.6891 26.0184 37.6891C24.6093 37.6891 24.1113 38.5888 24.1113 40.3933C24.1113 42.1003 24.5743 43.0925 25.9132 43.0925C27.2247 43.09 27.8629 42.0703 27.8629 40.2508Z" fill="white"/>
<path d="M32.0725 32.2408H34.5502V34.4501H32.0725V32.2408ZM32.0725 35.9072H34.5502V44.8494H32.0725V35.9072Z" fill="white"/>
<path d="M36.7902 38.1615C36.7902 37.4017 36.7902 36.5695 36.7727 35.9097H39.1753C39.2229 36.1421 39.2579 36.7619 39.2704 37.0493C39.5758 36.487 40.2991 35.7022 41.8683 35.7022C43.6678 35.7022 44.8366 36.9169 44.8366 39.1637V44.8519H42.3563V39.4361C42.3563 38.4314 42.021 37.7041 40.9273 37.7041C39.8736 37.7041 39.2704 38.2864 39.2704 39.866V44.8494H36.7902V38.1615Z" fill="white"/>
</svg>
