<svg width="24" height="25" viewBox="0 0 24 25" fill="none" xmlns="http://www.w3.org/2000/svg">
<path d="M11.4576 24.0393C8.44243 24.0393 5.42655 24.0386 2.41136 24.04C1.41996 24.0408 0.651139 23.6221 0.229177 22.6481C0.0844257 22.3145 0.0127328 21.9147 0.0113672 21.5455C-0.00297131 17.0114 -0.0016089 12.4781 0.0038534 7.94401C0.00590177 6.48668 0.976827 5.46909 2.34377 5.4611C2.64215 5.45964 2.94053 5.45165 3.23822 5.46473C3.39799 5.47127 3.47447 5.41749 3.53523 5.25249C4.03094 3.91364 4.5362 2.57842 5.04215 1.24393C5.44431 0.182733 6.35924 -0.225028 7.3527 0.214715C11.2234 1.92862 15.0928 3.64471 18.9642 5.35425C19.1083 5.41821 19.2735 5.44947 19.4305 5.45674C19.9488 5.48 20.4731 5.4422 20.9859 5.50543C22.0538 5.63772 22.8622 6.59789 22.8895 7.7434C22.9114 8.64033 22.9011 9.53871 22.895 10.4364C22.8936 10.621 22.9305 10.7002 23.1196 10.7387C23.629 10.8441 23.9881 11.3093 23.9916 11.8944C24.0025 13.7988 24.0032 15.7031 23.9916 17.6067C23.9875 18.2144 23.629 18.6526 23.0684 18.7726C22.897 18.8096 22.8977 18.902 22.8977 19.0357C22.8998 19.8519 22.8998 20.6682 22.8984 21.4837C22.8957 23.0392 21.9644 24.0364 20.5032 24.0379C17.488 24.0415 14.4728 24.0393 11.4576 24.0393ZM21.8128 10.6835C21.8128 10.5694 21.8128 10.4814 21.8128 10.3928C21.8128 9.61285 21.8128 8.83367 21.8128 8.05376C21.8128 7.10668 21.3683 6.62987 20.4827 6.62987C17.587 6.62914 14.6913 6.62987 11.7956 6.62987C8.65273 6.62987 5.50986 6.62914 2.36767 6.63059C1.59407 6.63132 1.10383 7.11468 1.10314 7.89967C1.09905 12.4694 1.09973 17.0383 1.10314 21.608C1.10383 22.2244 1.43703 22.6925 1.96755 22.8298C2.12186 22.8698 2.28778 22.8691 2.44892 22.8691C5.81301 22.8713 9.17711 22.8705 12.5412 22.8705C15.1727 22.8705 17.8048 22.8487 20.4363 22.8822C21.371 22.8938 21.8633 22.2331 21.8217 21.4161C21.7827 20.6566 21.8135 19.8934 21.8135 19.1316C21.8135 19.035 21.8135 18.9376 21.8135 18.8162C21.6837 18.8162 21.5834 18.8162 21.483 18.8162C19.9843 18.8162 18.4849 18.8256 16.9862 18.814C14.5827 18.7944 12.8881 16.7774 13.1236 14.232C13.3052 12.2658 14.9753 10.6966 16.9138 10.6849C18.4384 10.6762 19.9631 10.6828 21.4871 10.6828C21.5861 10.6835 21.6865 10.6835 21.8128 10.6835ZM22.8868 11.8864C22.6943 11.8864 22.5338 11.8872 22.3733 11.8864C20.4923 11.8784 18.6105 11.8348 16.7308 11.8726C15.1331 11.9046 13.9286 13.5713 14.2222 15.2423C14.4755 16.6814 15.5598 17.6387 16.9711 17.6452C18.8611 17.654 20.7504 17.6474 22.6403 17.6467C22.7216 17.6467 22.8028 17.6387 22.8875 17.6351C22.8868 15.7104 22.8868 13.8191 22.8868 11.8864ZM16.2194 5.46037C16.2221 5.44438 16.2248 5.42839 16.2283 5.4124C16.1934 5.3935 16.16 5.37097 16.1245 5.35498C13.0717 4.00304 10.0197 2.65183 6.96624 1.30135C6.48351 1.08766 6.22678 1.20831 6.02945 1.7331C5.59998 2.8757 5.17119 4.01831 4.74308 5.16164C4.70963 5.25177 4.68095 5.34335 4.64067 5.46037C5.00801 5.46037 5.34804 5.4531 5.68738 5.464C5.83213 5.46837 5.89631 5.41022 5.94547 5.27066C6.13187 4.73643 6.32988 4.20656 6.5238 3.67523C6.70747 3.17226 6.93347 3.05887 7.41688 3.22968C9.1177 3.83078 10.8267 4.40935 12.5166 5.04607C13.3155 5.34698 14.1096 5.52797 14.9569 5.46619C15.3761 5.43493 15.7988 5.46037 16.2194 5.46037ZM7.41074 4.45441C7.29057 4.79167 7.17791 5.10858 7.05978 5.44002C8.09284 5.44002 9.09313 5.44002 10.0941 5.44002C10.0961 5.42694 10.0982 5.41385 10.0996 5.40077C9.21057 5.0875 8.32089 4.77423 7.41074 4.45441Z" fill="#676767"/>
<path d="M5.96875 12.4221C5.25387 12.4221 4.53831 12.4279 3.82343 12.4191C3.51822 12.4155 3.3011 12.1887 3.27925 11.8856C3.25808 11.6 3.45541 11.3303 3.72579 11.2787C3.78383 11.2678 3.8446 11.27 3.904 11.27C5.3003 11.2693 6.69592 11.2686 8.09222 11.27C8.47868 11.2707 8.72858 11.5011 8.72721 11.8486C8.72585 12.196 8.48004 12.4213 8.08881 12.4228C7.38212 12.4257 6.67544 12.4235 5.96943 12.4235C5.96875 12.4235 5.96875 12.4228 5.96875 12.4221Z" fill="#676767"/>
<path d="M4.92743 8.94197C5.25995 8.94197 5.59178 8.93834 5.9243 8.9427C6.29983 8.94851 6.53539 9.17093 6.54017 9.514C6.54495 9.86361 6.32031 10.1013 5.94546 10.1064C5.25585 10.1158 4.56555 10.1166 3.87593 10.1064C3.51133 10.1013 3.26825 9.84253 3.27849 9.50891C3.28874 9.17965 3.52635 8.95578 3.88003 8.94124C3.8971 8.94052 3.91417 8.94124 3.93124 8.94124C4.26307 8.94197 4.59491 8.94197 4.92743 8.94197Z" fill="#676767"/>
<path d="M16.8905 13.0115C17.8007 13.0071 18.5354 13.7769 18.5408 14.7407C18.5463 15.7008 17.8082 16.4916 16.9083 16.4916C16.0152 16.4909 15.2798 15.719 15.271 14.7726C15.2621 13.8052 15.9886 13.0159 16.8905 13.0115ZM16.8926 15.3272C17.193 15.3345 17.4504 15.0685 17.4511 14.7487C17.4525 14.4441 17.2067 14.1759 16.9192 14.1672C16.6249 14.1577 16.3614 14.4318 16.36 14.7479C16.3593 15.0554 16.6024 15.32 16.8926 15.3272Z" fill="#676767"/>
</svg>
