<svg width="158" height="74" viewBox="0 0 158 74" fill="none" xmlns="http://www.w3.org/2000/svg">
<path d="M5.0438 10.5C6.37356 10.5 7.29581 10.7566 7.81056 11.2698C8.3253 11.7847 8.58446 12.7042 8.58446 14.0281V14.5252C8.58446 15.851 8.32709 16.7704 7.81056 17.2854C7.29581 17.7985 6.37177 18.0551 5.0438 18.0551H3.99644C2.63272 18.0551 1.70332 17.7985 1.20466 17.2854C0.706001 16.7722 0.457565 15.851 0.457565 14.5252V14.0281C0.457565 12.7042 0.706001 11.7829 1.20466 11.2698C1.70332 10.7566 2.63272 10.5 3.99644 10.5H5.0438ZM6.48974 20.3947C7.15462 20.3947 7.61932 20.5266 7.88562 20.7921C8.15193 21.0576 8.28419 21.5369 8.28419 22.2336V44.4072C8.28419 45.1022 8.15015 45.5851 7.88562 45.8488C7.61932 46.1143 7.15462 46.2461 6.48974 46.2461H2.60055C1.90171 46.2461 1.42093 46.1143 1.15462 45.8488C0.888307 45.5833 0.756046 45.1022 0.756046 44.4072V22.2336C0.756046 21.5369 0.888307 21.0576 1.15462 20.7921C1.42093 20.5266 1.90171 20.3947 2.60055 20.3947H6.48974Z" fill="white"/>
<path d="M23.8445 19.6482H25.4906C26.1555 19.6482 26.6291 19.7818 26.9115 20.0456C27.1939 20.311 27.3351 20.7904 27.3351 21.4871V24.5697C27.3351 25.2326 27.1939 25.6976 26.9115 25.9631C26.6291 26.2286 26.1555 26.3605 25.4906 26.3605H23.6461C22.3164 26.3605 21.1349 26.4763 20.1055 26.708C19.9053 26.7418 19.807 26.8576 19.807 27.0554V44.4073C19.807 45.1022 19.6729 45.5851 19.4084 45.8488C19.1421 46.1143 18.6774 46.2462 18.0125 46.2462H14.1197C13.4209 46.2462 12.9383 46.1143 12.6738 45.8488C12.4075 45.5833 12.2752 45.1022 12.2752 44.4073V24.0726C12.2752 23.244 12.4075 22.64 12.6738 22.2586C12.9383 21.8773 13.471 21.5209 14.2699 21.1895C16.529 20.295 19.7212 19.7818 23.8445 19.6482Z" fill="white"/>
<path d="M28.0822 30.1381C28.0822 26.8256 29.0974 24.2473 31.1242 22.4084C33.151 20.5695 36.0929 19.65 39.95 19.65C43.8391 19.65 46.7989 20.5695 48.8257 22.4084C50.8543 24.2473 51.8677 26.8256 51.8677 30.1381V36.5529C51.8677 39.8671 50.8525 42.4366 48.8257 44.2577C46.7971 46.0805 43.8391 46.9911 39.95 46.9911C36.0929 46.9911 33.151 46.0716 31.1242 44.2327C29.0956 42.3938 28.0822 39.8333 28.0822 36.5529V30.1381ZM44.3396 30.0383C44.3396 27.5526 42.8758 26.3089 39.9517 26.3089C37.0599 26.3089 35.6139 27.5526 35.6139 30.0383V36.601C35.6139 39.0867 37.0599 40.3304 39.9517 40.3304C42.8758 40.3304 44.3396 39.0867 44.3396 36.601V30.0383Z" fill="white"/>
<path d="M57.0545 21.4372C59.9464 20.2451 63.3387 19.6482 67.2279 19.6482C74.4093 19.6482 78 23.0783 78 29.9403V44.4073C78 45.1022 77.8677 45.5851 77.6014 45.8488C77.3351 46.1143 76.8704 46.2462 76.2055 46.2462H72.3146C71.6157 46.2462 71.1332 46.1143 70.8686 45.8488C70.6023 45.5833 70.4701 45.1022 70.4701 44.4073V30.188C70.4701 27.7023 69.0563 26.4585 66.2324 26.4585C64.9348 26.4585 63.7712 26.6082 62.7417 26.9058C62.6416 26.9058 62.5916 26.9717 62.5916 27.1035V44.4055C62.5916 45.1005 62.4593 45.5833 62.193 45.8471C61.9267 46.1126 61.4441 46.2444 60.7471 46.2444H56.908C56.2091 46.2444 55.7265 46.1126 55.462 45.8471C55.1957 45.5816 55.0634 45.1005 55.0634 44.4055V24.322C55.0634 23.4935 55.1957 22.8894 55.462 22.5081C55.7248 22.1268 56.2574 21.7704 57.0545 21.4372Z" fill="white"/>
<path d="M13.5156 49.8366C13.832 49.8366 14.0518 49.8918 14.1752 50.0005C14.2985 50.1092 14.361 50.3124 14.361 50.6064V62.7285C14.361 63.0242 14.3003 63.2256 14.1752 63.3343C14.0518 63.443 13.8302 63.4982 13.5156 63.4982H11.9678C11.6515 63.4982 11.4334 63.4412 11.3172 63.3254C11.2011 63.2096 11.1421 63.0118 11.1421 62.7285V58.3611C11.1421 57.1298 11.3691 55.6865 11.8231 54.0311H11.6372C11.2243 55.3016 10.681 56.4955 10.0071 57.6109L8.54155 60.0539C8.41823 60.2588 8.29312 60.4031 8.16979 60.4869C8.04647 60.5706 7.86059 60.6116 7.61394 60.6116H6.66488C6.40393 60.6116 6.2109 60.5724 6.08758 60.4958C5.96425 60.4191 5.83914 60.2713 5.71582 60.0539L4.23056 57.6109C3.63896 56.6879 3.12958 55.4941 2.70241 54.0311H2.51653C2.9294 55.674 3.13494 57.1227 3.13494 58.3807V62.7285C3.13494 63.0118 3.07596 63.2096 2.95979 63.3254C2.84361 63.4412 2.62556 63.4982 2.3092 63.4982H0.84361C0.527256 63.4982 0.307417 63.4412 0.182306 63.3254C0.0625558 63.2096 0 63.01 0 62.7285V50.6064C0 50.3248 0.0625558 50.1253 0.18588 50.0095C0.309205 49.8936 0.530831 49.8366 0.847185 49.8366H2.18767C2.51832 49.8366 2.75782 49.8758 2.90974 49.9524C3.06166 50.0291 3.2118 50.1823 3.36372 50.4139L7.1403 56.9178L10.9383 50.4335C11.0903 50.1769 11.2332 50.013 11.3709 49.9417C11.5085 49.8723 11.7355 49.8366 12.0518 49.8366H13.5156Z" fill="white"/>
<path d="M28.8883 62.7285C29.0956 63.2416 28.9097 63.4982 28.3307 63.4982H26.7828C26.2735 63.4982 25.916 63.4501 25.7105 63.3539C25.5049 63.2577 25.353 63.0688 25.2565 62.7873L24.6166 60.9787H19.5192L18.8597 62.7873C18.7489 63.0688 18.5988 63.2577 18.4057 63.3539C18.2127 63.4501 17.8624 63.4982 17.353 63.4982H15.9285C15.3494 63.4982 15.1653 63.2416 15.3709 62.7285L20.3021 50.4906C20.3986 50.234 20.5183 50.0611 20.6631 49.9702C20.8079 49.8812 21.0313 49.8366 21.3333 49.8366H22.9223C23.2243 49.8366 23.4495 49.8776 23.5925 49.9613C23.7373 50.0451 23.857 50.209 23.9535 50.4514L28.8883 62.7285ZM22.6774 55.4549C22.5398 55.045 22.4254 54.6085 22.336 54.147C22.2467 53.6855 22.1948 53.3255 22.1805 53.0689L22.1627 52.7036H21.9553C21.9696 53.6142 21.8106 54.5247 21.4799 55.437L20.4075 58.4377H23.7498L22.6774 55.4549Z" fill="white"/>
<path d="M36.4826 49.8366C37.9821 49.8366 39.1671 50.2268 40.0411 51.0109C40.9133 51.7931 41.3512 52.8765 41.3512 54.2628C41.3512 56.2122 40.5541 57.5272 38.958 58.2078C38.9991 58.2595 39.1439 58.484 39.3905 58.8814L41.5156 62.6732C41.6676 62.9031 41.7087 63.0991 41.639 63.2595C41.5693 63.4198 41.3834 63.5 41.0813 63.5H39.4299C38.9062 63.5 38.5255 63.4483 38.286 63.3468C38.0447 63.2434 37.8481 63.0456 37.6979 62.7498L36.1716 59.7866C35.9374 59.3376 35.6872 59.0364 35.4191 58.8814C35.151 58.7282 34.7203 58.6515 34.1287 58.6515H33.2815V62.7124C33.2815 63.0082 33.2207 63.2113 33.0956 63.3272C32.9723 63.443 32.7507 63.5 32.4343 63.5H30.7632C30.4468 63.5 30.227 63.443 30.1019 63.3272C29.9786 63.2113 29.916 63.0064 29.916 62.7124V50.6278C29.916 50.332 29.9786 50.1271 30.1019 50.0112C30.2252 49.8954 30.4468 49.8384 30.7632 49.8384H36.4826V49.8366ZM37.4209 55.4263C37.7158 55.1519 37.8642 54.7617 37.8642 54.2628C37.8642 53.7639 37.7158 53.3754 37.4209 53.0992C37.126 52.823 36.7024 52.6858 36.1519 52.6858H33.2833V55.8415H36.1519C36.7024 55.8397 37.126 55.7025 37.4209 55.4263Z" fill="white"/>
<path d="M54.6828 62.6697C54.8347 62.8996 54.8722 63.0956 54.7954 63.2559C54.7203 63.4163 54.5308 63.4965 54.2288 63.4965H52.5773C52.0411 63.4965 51.6622 63.4519 51.4424 63.3611C51.2225 63.272 51.0366 63.0795 50.8847 62.7837L48.9455 59.1273C48.7113 58.6783 48.4647 58.3736 48.202 58.2132C47.941 58.0529 47.521 57.9727 46.9437 57.9727H46.4075V62.7053C46.4075 63.0011 46.3449 63.2043 46.2216 63.3201C46.0983 63.4359 45.8785 63.4929 45.5621 63.4929H43.891C43.5746 63.4929 43.3548 63.4359 43.2297 63.3201C43.1063 63.2043 43.0438 62.9993 43.0438 62.7053V50.6207C43.0438 50.3249 43.1063 50.12 43.2297 50.0041C43.353 49.8883 43.5746 49.8313 43.891 49.8313H45.5621C45.8785 49.8313 46.0983 49.8883 46.2216 50.0041C46.3449 50.12 46.4075 50.3249 46.4075 50.6207V55.1627H46.7382H46.924L50.5773 50.487C50.7971 50.2055 51.0027 50.0255 51.1957 49.9489C51.3887 49.8723 51.7319 49.8331 52.227 49.8331H54.0214C54.311 49.8331 54.4933 49.9097 54.5684 50.0629C54.6434 50.2162 54.5987 50.3962 54.4343 50.6011L50.1626 55.9503C50.8633 56.3227 51.4906 56.9962 52.0411 57.9709L54.6828 62.6697Z" fill="white"/>
<path d="M64.9991 49.8367C65.3155 49.8367 65.5353 49.8937 65.6604 50.0095C65.7837 50.1254 65.8463 50.3303 65.8463 50.6261V51.9144C65.8463 52.2101 65.7837 52.4115 65.6604 52.5202C65.5371 52.6289 65.3155 52.6841 64.9991 52.6841H59.2207V55.1663H63.966C64.2824 55.1663 64.5022 55.2215 64.6273 55.3302C64.7507 55.4389 64.8132 55.642 64.8132 55.936V57.2243C64.8132 57.5201 64.7507 57.725 64.6273 57.8409C64.504 57.9567 64.2824 58.0137 63.966 58.0137H59.2207V60.6295H65.2046C65.5067 60.6295 65.7247 60.6901 65.8552 60.813C65.9857 60.936 66.0518 61.1373 66.0518 61.4189V62.7072C66.0518 63.0029 65.9893 63.2061 65.8659 63.3219C65.7426 63.4377 65.521 63.4947 65.2046 63.4947H56.7042C56.3878 63.4947 56.168 63.4377 56.0429 63.3219C55.9196 63.2061 55.857 63.0012 55.857 62.7072V50.6225C55.857 50.3267 55.9178 50.1218 56.0429 50.006C56.1662 49.8902 56.3861 49.8331 56.7042 49.8331H64.9991V49.8367Z" fill="white"/>
<path d="M77.1528 49.8366C77.4692 49.8366 77.689 49.8936 77.8141 50.0095C77.9374 50.1253 78 50.3302 78 50.626V51.9143C78 52.2101 77.9374 52.4114 77.8141 52.5201C77.6908 52.6288 77.4692 52.684 77.1528 52.684H73.9339V62.7089C73.9339 63.0046 73.8713 63.2078 73.748 63.3236C73.6247 63.4394 73.4048 63.4964 73.0885 63.4964H71.4173C71.101 63.4964 70.8847 63.4394 70.7667 63.3236C70.6488 63.2078 70.5916 63.0029 70.5916 62.7089V52.684H67.3512C67.0348 52.684 66.815 52.6288 66.6899 52.5201C66.5666 52.4114 66.504 52.2083 66.504 51.9143V50.626C66.504 50.3302 66.5666 50.1253 66.6899 50.0095C66.8132 49.8936 67.0331 49.8366 67.3512 49.8366H77.1528Z" fill="white"/>
<path d="M121 0C100.597 0 84 16.5974 84 37C84 57.4026 100.597 74 121 74C141.403 74 158 57.4026 158 37C158 16.5974 141.401 0 121 0ZM99.3708 30.4221C99.3708 29.1266 100.421 28.0765 101.716 28.0765C103.012 28.0765 104.062 29.1266 104.062 30.4221C104.062 31.7176 103.012 32.7677 101.716 32.7677C100.421 32.7677 99.3708 31.7176 99.3708 30.4221ZM126.921 49.9987C126.921 50.77 126.297 51.3948 125.525 51.3948C124.754 51.3948 124.129 50.77 124.129 49.9987V27.2593C124.129 23.3359 121.651 21.9434 119.53 21.9434C115.456 21.9434 115.017 25.6603 115.017 27.2593V47.2719C115.017 52.9709 111.884 56.9525 107.398 56.9525C103.164 56.9525 100.32 53.2674 100.32 49.824V43.2108C100.32 42.4395 100.945 41.8147 101.716 41.8147C102.488 41.8147 103.112 42.4395 103.112 43.2108V49.824C103.112 51.8748 104.872 54.1604 107.398 54.1604C110.732 54.1604 112.225 50.7012 112.225 47.2737V27.2593C112.225 22.3334 115.093 19.1513 119.53 19.1513C123.09 19.1513 126.921 21.6892 126.921 27.2593V49.9987ZM141.177 45.1487C141.177 45.92 140.552 46.5447 139.781 46.5447C139.009 46.5447 138.385 45.92 138.385 45.1487V23.5954C138.385 19.8096 136.692 19.2077 134.864 19.1195C133.42 19.0542 132.333 19.6807 132.096 19.9172C131.551 20.4626 130.667 20.4626 130.121 19.9172C129.576 19.3719 129.576 18.4876 130.121 17.9423C130.97 17.0934 132.853 16.2232 134.996 16.3309C137.814 16.465 141.175 17.8346 141.175 23.5954V45.1487H141.177Z" fill="#FCC000"/>
</svg>
