<svg width="19" height="24" viewBox="0 0 19 24" fill="none" xmlns="http://www.w3.org/2000/svg">
<path d="M0.408826 9.55802C0.314713 9.4306 0.246619 9.28589 0.208432 9.13215C0.170244 8.97842 0.162712 8.81866 0.186263 8.66202C0.233829 8.34565 0.405121 8.06114 0.662459 7.87107C0.919796 7.681 1.2421 7.60094 1.55846 7.64851C1.87483 7.69607 2.15934 7.86736 2.34941 8.1247C2.79515 8.72289 3.14353 9.38779 3.38163 10.0948C3.62918 10.8283 3.75471 11.5974 3.75324 12.3716C3.75407 13.1437 3.62854 13.9108 3.38163 14.6425C3.14353 15.3495 2.79515 16.0143 2.34941 16.6125C2.15934 16.8699 1.87483 17.0412 1.55846 17.0887C1.2421 17.1363 0.919796 17.0562 0.662459 16.8662C0.405121 16.6761 0.233829 16.3916 0.186263 16.0752C0.138698 15.7589 0.218756 15.4366 0.408826 15.1792C0.703353 14.7873 0.934259 14.3513 1.09304 13.8875C1.26187 13.3998 1.34955 12.8877 1.35257 12.3716C1.3546 11.8584 1.27292 11.3484 1.11074 10.8616C0.94764 10.3925 0.710686 9.95241 0.408826 9.55802ZM4.53773 7.31072C5.47659 8.83136 5.97105 10.5845 5.96515 12.3716C5.97318 14.1555 5.48289 15.9062 4.54952 17.4265C4.46625 17.5613 4.41035 17.7112 4.385 17.8675C4.35964 18.0239 4.36534 18.1838 4.40176 18.338C4.43819 18.4921 4.50462 18.6376 4.59728 18.7662C4.68993 18.8947 4.80699 19.0037 4.94177 19.0869C5.07655 19.1702 5.22641 19.2261 5.38279 19.2515C5.53918 19.2768 5.69903 19.2711 5.85321 19.2347C6.00739 19.1983 6.15289 19.1318 6.2814 19.0392C6.40991 18.9465 6.51891 18.8295 6.60218 18.6947C7.77172 16.7939 8.38478 14.6033 8.37171 12.3716C8.38557 10.1379 7.77249 7.94514 6.60218 6.04256C6.51891 5.90778 6.40991 5.79072 6.2814 5.69807C6.15289 5.60541 6.00739 5.53898 5.85321 5.50255C5.69903 5.46613 5.53918 5.46043 5.38279 5.48578C5.22641 5.51114 5.07655 5.56704 4.94177 5.65031C4.80699 5.73358 4.68993 5.84258 4.59728 5.97109C4.50462 6.0996 4.43819 6.2451 4.40176 6.39928C4.36534 6.55346 4.35964 6.71331 4.385 6.8697C4.41035 7.02608 4.46625 7.17594 4.54952 7.31072H4.53773ZM8.93206 5.03982C10.2354 7.27187 10.9214 9.81047 10.9198 12.3952C10.9207 14.9779 10.2346 17.5144 8.93206 19.7446C8.85189 19.8813 8.79943 20.0325 8.77768 20.1895C8.75593 20.3465 8.76532 20.5062 8.8053 20.6596C8.84528 20.8129 8.91508 20.9569 9.01071 21.0833C9.10634 21.2097 9.22593 21.316 9.36264 21.3962C9.49936 21.4763 9.65052 21.5288 9.80751 21.5505C9.9645 21.5723 10.1242 21.5629 10.2776 21.5229C10.431 21.4829 10.5749 21.4131 10.7013 21.3175C10.8277 21.2219 10.934 21.1023 11.0142 20.9656C12.537 18.3686 13.3374 15.4116 13.3323 12.4011C13.3423 9.37952 12.544 6.41028 11.0201 3.80115C10.8558 3.52426 10.5883 3.32396 10.2764 3.24432C9.96444 3.16467 9.63364 3.21221 9.35674 3.37647C9.07985 3.54073 8.87955 3.80825 8.79991 4.12019C8.72026 4.43213 8.7678 4.76293 8.93206 5.03982ZM13.3087 2.73944C14.9851 5.68093 15.8635 9.00952 15.8568 12.3952C15.8627 15.7788 14.9843 19.1053 13.3087 22.045C13.2312 22.1825 13.1816 22.3339 13.1627 22.4906C13.1437 22.6472 13.1558 22.8061 13.1983 22.9581C13.2407 23.1101 13.3127 23.2522 13.4101 23.3764C13.5074 23.5006 13.6283 23.6043 13.7658 23.6818C13.9033 23.7593 14.0547 23.8089 14.2114 23.8278C14.368 23.8468 14.5269 23.8347 14.6789 23.7922C14.8309 23.7498 14.973 23.6778 15.0972 23.5804C15.2214 23.4831 15.3252 23.3622 15.4026 23.2247C17.2851 19.9197 18.2732 16.181 18.2693 12.3775C18.278 8.56402 17.2898 4.81453 15.4026 1.50077C15.2462 1.22309 14.9859 1.01894 14.6789 0.933208C14.3719 0.84748 14.0435 0.887203 13.7658 1.04364C13.4881 1.20008 13.284 1.46041 13.1983 1.76737C13.1125 2.07433 13.1523 2.40278 13.3087 2.68045" fill="white"/>
</svg>
